<svg width="230" height="187" viewBox="0 0 230 187" fill="none" xmlns="http://www.w3.org/2000/svg">
<rect width="230" height="187" rx="5" fill="#185E8B"/>
<path d="M59.9929 168L57.1129 163.95C56.7889 163.986 56.4529 164.004 56.1049 164.004H52.7209V168H51.3889V155.4H56.1049C57.7129 155.4 58.9729 155.784 59.8849 156.552C60.7969 157.32 61.2529 158.376 61.2529 159.72C61.2529 160.704 61.0009 161.538 60.4969 162.222C60.0049 162.894 59.2969 163.38 58.3729 163.68L61.4509 168H59.9929ZM56.0689 162.87C57.3169 162.87 58.2709 162.594 58.9309 162.042C59.5909 161.49 59.9209 160.716 59.9209 159.72C59.9209 158.7 59.5909 157.92 58.9309 157.38C58.2709 156.828 57.3169 156.552 56.0689 156.552H52.7209V162.87H56.0689ZM73.3067 166.848V168H64.3967V155.4H73.0367V156.552H65.7287V161.034H72.2447V162.168H65.7287V166.848H73.3067ZM86.9677 155.4V168H85.8697L77.7697 157.776V168H76.4377V155.4H77.5357L85.6537 165.624V155.4H86.9677ZM93.5283 156.552H89.1003V155.4H99.2883V156.552H94.8603V168H93.5283V156.552ZM114.029 164.634H107.009L105.497 168H104.111L109.871 155.4H111.185L116.945 168H115.541L114.029 164.634ZM113.543 163.554L110.519 156.786L107.495 163.554H113.543ZM134.27 155.4V168H132.956V162.186H125.072V168H123.74V155.4H125.072V161.016H132.956V155.4H134.27ZM143.891 168.108C142.643 168.108 141.509 167.832 140.489 167.28C139.481 166.716 138.689 165.948 138.113 164.976C137.549 164.004 137.267 162.912 137.267 161.7C137.267 160.488 137.549 159.396 138.113 158.424C138.689 157.452 139.481 156.69 140.489 156.138C141.509 155.574 142.643 155.292 143.891 155.292C145.139 155.292 146.261 155.568 147.257 156.12C148.265 156.672 149.057 157.44 149.633 158.424C150.209 159.396 150.497 160.488 150.497 161.7C150.497 162.912 150.209 164.01 149.633 164.994C149.057 165.966 148.265 166.728 147.257 167.28C146.261 167.832 145.139 168.108 143.891 168.108ZM143.891 166.92C144.887 166.92 145.787 166.698 146.591 166.254C147.395 165.798 148.025 165.174 148.481 164.382C148.937 163.578 149.165 162.684 149.165 161.7C149.165 160.716 148.937 159.828 148.481 159.036C148.025 158.232 147.395 157.608 146.591 157.164C145.787 156.708 144.887 156.48 143.891 156.48C142.895 156.48 141.989 156.708 141.173 157.164C140.369 157.608 139.733 158.232 139.265 159.036C138.809 159.828 138.581 160.716 138.581 161.7C138.581 162.684 138.809 163.578 139.265 164.382C139.733 165.174 140.369 165.798 141.173 166.254C141.989 166.698 142.895 166.92 143.891 166.92ZM166.569 155.4V168H165.291V157.92L160.341 166.398H159.711L154.761 157.974V168H153.483V155.4H154.581L160.053 164.742L165.471 155.4H166.569ZM179.584 166.848V168H170.674V155.4H179.314V156.552H172.006V161.034H178.522V162.168H172.006V166.848H179.584Z" fill="white"/>
<path d="M19.3322 127.15C19.0322 127.15 18.7989 127.05 18.6322 126.85C18.4989 126.617 18.4322 126.35 18.4322 126.05C18.4656 125.55 18.5656 125.25 18.7322 125.15C18.8989 125.05 19.2156 125 19.6822 125C20.6489 125 21.3656 124.833 21.8322 124.5C22.2989 124.133 22.5822 123.7 22.6822 123.2C22.8156 122.667 22.8989 121.983 22.9322 121.15V101.35C22.8989 100.483 22.8156 99.8 22.6822 99.3C22.5822 98.8 22.2989 98.3667 21.8322 98C21.3656 97.6333 20.6489 97.45 19.6822 97.45H19.3822C19.0489 97.45 18.8156 97.4 18.6822 97.3C18.5489 97.1667 18.4656 96.8667 18.4322 96.4C18.4322 96.1 18.4989 95.85 18.6322 95.65C18.7989 95.4167 19.0322 95.3 19.3322 95.3C21.4989 95.4 23.4822 95.45 25.2822 95.45H33.8822C36.4489 95.4833 38.5822 95.9 40.2822 96.7C42.0156 97.4667 43.2822 98.4667 44.0822 99.7C44.8822 100.9 45.2822 102.2 45.2822 103.6C45.2822 105.433 44.5489 107.117 43.0822 108.65C41.6489 110.183 39.6822 111.283 37.1822 111.95L38.0322 113.3C39.4322 115.567 40.6989 117.517 41.8322 119.15C42.9656 120.75 44.1989 122.25 45.5322 123.65C46.4656 124.417 47.4656 124.867 48.5322 125C48.5989 125 48.7489 125.017 48.9822 125.05C49.2156 125.05 49.3989 125.133 49.5322 125.3C49.6989 125.467 49.7822 125.717 49.7822 126.05C49.7822 126.35 49.6989 126.617 49.5322 126.85C49.3989 127.05 49.1822 127.15 48.8822 127.15L47.5822 127.1C46.1156 127.033 45.0489 127 44.3822 127C43.0489 126.733 41.8989 126.267 40.9322 125.6C39.9989 124.9 39.0656 123.917 38.1322 122.65C37.1656 121.383 35.8156 119.317 34.0822 116.45L33.1822 115C32.6822 114.233 32.1989 113.717 31.7322 113.45C31.2656 113.15 30.4656 113 29.3322 113H27.8822V121.15C27.9156 121.983 27.9822 122.667 28.0822 123.2C28.2156 123.7 28.5156 124.133 28.9822 124.5C29.4489 124.833 30.1656 125 31.1322 125H31.4322C31.7322 125 31.9489 125.067 32.0822 125.2C32.2489 125.3 32.3489 125.583 32.3822 126.05C32.3822 126.35 32.2989 126.617 32.1322 126.85C31.9989 127.05 31.7822 127.15 31.4822 127.15C29.3489 127.05 27.2656 127 25.2322 127C23.4656 127 21.4989 127.05 19.3322 127.15ZM32.2822 111.05C37.2489 111.05 39.7322 108.717 39.7322 104.05C39.7322 102.15 39.0822 100.55 37.7822 99.25C36.4822 97.95 34.3489 97.3 31.3822 97.3C30.4156 97.3 29.6822 97.4167 29.1822 97.65C28.6822 97.8833 28.3322 98.2833 28.1322 98.85C27.9656 99.4167 27.8822 100.283 27.8822 101.45V111.05H32.2822ZM52.61 117.05C52.2766 117.05 51.9933 116.883 51.76 116.55C51.56 116.183 51.46 115.817 51.46 115.45C51.46 115.083 51.56 114.733 51.76 114.4C51.9933 114.033 52.2766 113.85 52.61 113.85H63.56C63.8933 113.85 64.16 114.033 64.36 114.4C64.5933 114.733 64.71 115.083 64.71 115.45C64.71 115.817 64.5933 116.183 64.36 116.55C64.16 116.883 63.8933 117.05 63.56 117.05H52.61ZM69.3811 127.15C69.0811 127.15 68.8477 127.05 68.6811 126.85C68.5477 126.617 68.4811 126.35 68.4811 126.05C68.5144 125.55 68.6144 125.25 68.7811 125.15C68.9477 125.05 69.2644 125 69.7311 125C70.6977 125 71.4144 124.833 71.8811 124.5C72.3477 124.133 72.6311 123.7 72.7311 123.2C72.8644 122.667 72.9477 121.983 72.9811 121.15V101.3C72.9477 100.467 72.8644 99.8 72.7311 99.3C72.6311 98.7667 72.3477 98.3333 71.8811 98C71.4144 97.6333 70.6977 97.45 69.7311 97.45H69.4311C69.0977 97.45 68.8644 97.4 68.7311 97.3C68.5977 97.1667 68.5144 96.8667 68.4811 96.4C68.4811 96.1 68.5477 95.85 68.6811 95.65C68.8477 95.4167 69.0811 95.3 69.3811 95.3C71.5477 95.4 73.5144 95.45 75.2811 95.45C77.2811 95.45 79.3644 95.4 81.5311 95.3C81.8311 95.3 82.0477 95.4167 82.1811 95.65C82.3477 95.85 82.4311 96.1 82.4311 96.4C82.3977 96.9 82.2977 97.2 82.1311 97.3C81.9644 97.4 81.6477 97.45 81.1811 97.45C80.2144 97.45 79.4977 97.6333 79.0311 98C78.5644 98.3333 78.2644 98.7667 78.1311 99.3C78.0311 99.8 77.9644 100.467 77.9311 101.3V110.15H93.6311V101.3C93.5977 100.467 93.5144 99.8 93.3811 99.3C93.2811 98.7667 92.9977 98.3333 92.5311 98C92.0644 97.6333 91.3477 97.45 90.3811 97.45H90.0811C89.7477 97.45 89.4977 97.4 89.3311 97.3C89.1977 97.1667 89.1144 96.8667 89.0811 96.4C89.0811 96.1 89.1644 95.85 89.3311 95.65C89.4977 95.4167 89.7144 95.3 89.9811 95.3C92.1477 95.4 94.2311 95.45 96.2311 95.45C98.0644 95.45 100.048 95.4 102.181 95.3C102.481 95.3 102.698 95.4167 102.831 95.65C102.998 95.85 103.081 96.1 103.081 96.4C103.048 96.9 102.931 97.2 102.731 97.3C102.564 97.4 102.264 97.45 101.831 97.45C100.864 97.45 100.131 97.6333 99.6311 98C99.1644 98.3333 98.8644 98.7667 98.7311 99.3C98.6311 99.8 98.5644 100.467 98.5311 101.3V121.15C98.5644 121.983 98.6311 122.667 98.7311 123.2C98.8644 123.7 99.1644 124.133 99.6311 124.5C100.131 124.833 100.864 125 101.831 125H102.131C102.431 125 102.648 125.067 102.781 125.2C102.948 125.3 103.048 125.583 103.081 126.05C103.081 126.35 102.998 126.617 102.831 126.85C102.698 127.05 102.481 127.15 102.181 127.15C100.048 127.05 98.0477 127 96.1811 127C94.2144 127 92.1477 127.05 89.9811 127.15C89.7144 127.15 89.4977 127.05 89.3311 126.85C89.1644 126.617 89.0811 126.35 89.0811 126.05C89.1144 125.55 89.2144 125.25 89.3811 125.15C89.5811 125.05 89.9144 125 90.3811 125C91.3477 125 92.0644 124.833 92.5311 124.5C92.9977 124.133 93.2811 123.7 93.3811 123.2C93.5144 122.667 93.5977 121.983 93.6311 121.15V112.3H77.9311V121.15C77.9644 121.983 78.0311 122.667 78.1311 123.2C78.2644 123.7 78.5644 124.133 79.0311 124.5C79.4977 124.833 80.2144 125 81.1811 125H81.4811C81.8144 125 82.0477 125.067 82.1811 125.2C82.3144 125.3 82.3977 125.583 82.4311 126.05C82.4311 126.35 82.3477 126.617 82.1811 126.85C82.0477 127.05 81.8311 127.15 81.5311 127.15C79.3977 127.05 77.3311 127 75.3311 127C73.5311 127 71.5477 127.05 69.3811 127.15ZM159.997 127.25C159.497 127.25 159.147 127.083 158.947 126.75L147.697 101.3H147.547L147.647 121.15C147.68 122.05 147.747 122.75 147.847 123.25C147.947 123.717 148.213 124.133 148.647 124.5C149.113 124.833 149.83 125 150.797 125H151.097C151.43 125 151.663 125.067 151.797 125.2C151.963 125.3 152.063 125.583 152.097 126.05C152.097 126.35 152.013 126.617 151.847 126.85C151.713 127.05 151.497 127.15 151.197 127.15L149.947 127.1C148.413 127.033 147.313 127 146.647 127C145.513 127 143.863 127.05 141.697 127.15C141.397 127.15 141.163 127.05 140.997 126.85C140.863 126.617 140.797 126.35 140.797 126.05C140.83 125.55 140.93 125.25 141.097 125.15C141.263 125.05 141.58 125 142.047 125C143.013 125 143.713 124.833 144.147 124.5C144.613 124.133 144.897 123.717 144.997 123.25C145.097 122.75 145.163 122.05 145.197 121.15L145.297 101.3C145.297 100.267 145.18 99.5 144.947 99C144.713 98.4667 144.363 98.1 143.897 97.9C143.463 97.6667 142.813 97.4667 141.947 97.3C141.813 97.2667 141.613 97.2333 141.347 97.2C141.08 97.1333 140.897 97.0333 140.797 96.9C140.73 96.7333 140.697 96.4833 140.697 96.15C140.697 95.75 140.797 95.4833 140.997 95.35C141.23 95.2167 141.58 95.15 142.047 95.15C144.013 95.15 145.63 95.2833 146.897 95.55C148.163 95.7833 149.263 96.2833 150.197 97.05C151.163 97.8167 151.963 98.95 152.597 100.45L161.197 119.75H161.347L171.197 95.45H174.047C175.88 95.45 177.863 95.4 179.997 95.3C180.297 95.3 180.513 95.4167 180.647 95.65C180.813 95.85 180.897 96.1 180.897 96.4C180.863 96.9 180.747 97.2 180.547 97.3C180.38 97.4 180.08 97.45 179.647 97.45C178.68 97.45 177.963 97.6333 177.497 98C177.03 98.3333 176.73 98.7667 176.597 99.3C176.497 99.8 176.43 100.467 176.397 101.3V121.15C176.43 121.983 176.497 122.667 176.597 123.2C176.73 123.7 177.03 124.133 177.497 124.5C177.963 124.833 178.68 125 179.647 125H179.947C180.247 125 180.463 125.067 180.597 125.2C180.763 125.3 180.863 125.583 180.897 126.05C180.897 126.35 180.813 126.617 180.647 126.85C180.513 127.05 180.297 127.15 179.997 127.15C177.863 127.05 175.863 127 173.997 127C172.063 127 170.013 127.05 167.847 127.15C167.547 127.15 167.313 127.05 167.147 126.85C167.013 126.617 166.947 126.35 166.947 126.05C166.98 125.55 167.08 125.25 167.247 125.15C167.413 125.05 167.73 125 168.197 125C169.163 125 169.88 124.833 170.347 124.5C170.813 124.133 171.097 123.7 171.197 123.2C171.33 122.667 171.413 121.983 171.447 121.15V101.3H171.297L160.997 126.75C160.863 127.083 160.53 127.25 159.997 127.25ZM186.03 127.15C185.764 127.15 185.547 127.05 185.38 126.85C185.247 126.617 185.18 126.35 185.18 126.05C185.214 125.55 185.314 125.25 185.48 125.15C185.647 125.05 185.964 125 186.43 125C187.397 125 188.114 124.833 188.58 124.5C189.047 124.133 189.33 123.7 189.43 123.2C189.564 122.667 189.647 121.983 189.68 121.15V101.3C189.647 100.467 189.564 99.8 189.43 99.3C189.33 98.7667 189.047 98.3333 188.58 98C188.114 97.6333 187.397 97.45 186.43 97.45H186.13C185.797 97.45 185.564 97.4 185.43 97.3C185.297 97.1667 185.214 96.8667 185.18 96.4C185.18 96.1 185.247 95.85 185.38 95.65C185.547 95.4167 185.764 95.3 186.03 95.3C188.23 95.4 190.214 95.45 191.98 95.45H207.68C208.547 95.45 208.98 95.85 208.98 96.65L209.13 103.65C209.13 103.95 208.98 104.2 208.68 104.4C208.38 104.567 208.08 104.65 207.78 104.65C207.38 104.65 207.03 104.583 206.73 104.45C206.43 104.283 206.264 104.05 206.23 103.75C205.964 102.117 205.664 100.883 205.33 100.05C205.03 99.1833 204.564 98.55 203.93 98.15C203.33 97.7167 202.464 97.4833 201.33 97.45H194.63V110.15H203.68C203.914 110.183 204.097 110.317 204.23 110.55C204.364 110.75 204.43 111 204.43 111.3C204.43 111.567 204.364 111.8 204.23 112C204.097 112.2 203.914 112.3 203.68 112.3H194.63V121.75C194.697 122.45 194.78 123.017 194.88 123.45C194.98 123.85 195.28 124.217 195.78 124.55C196.28 124.883 197.064 125.033 198.13 125H202.73C203.897 124.967 204.78 124.783 205.38 124.45C205.98 124.083 206.447 123.533 206.78 122.8C207.147 122.067 207.58 120.867 208.08 119.2C208.314 118.6 208.88 118.367 209.78 118.5C210.114 118.567 210.397 118.7 210.63 118.9C210.897 119.1 211.014 119.35 210.98 119.65L209.98 125.95C209.88 126.383 209.73 126.667 209.53 126.8C209.33 126.933 208.997 127 208.53 127H192.03C190.23 127 188.23 127.05 186.03 127.15Z" fill="white"/>
<path d="M19.3322 127.15V127.75H19.3461L19.3599 127.749L19.3322 127.15ZM18.6322 126.85L18.1113 127.148L18.1375 127.194L18.1713 127.234L18.6322 126.85ZM18.4322 126.05L17.8336 126.01L17.8322 126.03V126.05H18.4322ZM18.7322 125.15L19.0409 125.664H19.0409L18.7322 125.15ZM21.8322 124.5L22.181 124.988L22.1921 124.98L22.2029 124.972L21.8322 124.5ZM22.6822 123.2L22.1001 123.054L22.0967 123.068L22.0939 123.082L22.6822 123.2ZM22.9322 121.15L23.5317 121.174L23.5322 121.162V121.15H22.9322ZM22.9322 101.35H23.5322V101.338L23.5318 101.327L22.9322 101.35ZM22.6822 99.3L22.0939 99.4177L22.0976 99.4363L22.1025 99.4546L22.6822 99.3ZM21.8322 98L22.2029 97.5282L22.2029 97.5282L21.8322 98ZM18.6822 97.3L18.258 97.7243L18.2881 97.7544L18.3222 97.78L18.6822 97.3ZM18.4322 96.4H17.8322V96.4214L17.8338 96.4427L18.4322 96.4ZM18.6322 95.65L18.144 95.3013L18.1384 95.3091L18.133 95.3172L18.6322 95.65ZM19.3322 95.3L19.3599 94.7006L19.3461 94.7H19.3322V95.3ZM33.8822 95.45L33.89 94.85H33.8822V95.45ZM40.2822 96.7L40.0267 97.243L40.0395 97.2487L40.2822 96.7ZM44.0822 99.7L43.5788 100.027L43.583 100.033L44.0822 99.7ZM43.0822 108.65L42.6486 108.235L42.6439 108.24L43.0822 108.65ZM37.1822 111.95L37.0276 111.37L36.2404 111.58L36.6745 112.27L37.1822 111.95ZM38.0322 113.3L38.5427 112.985L38.54 112.98L38.0322 113.3ZM41.8322 119.15L41.3393 119.492L41.3426 119.497L41.8322 119.15ZM45.5322 123.65L45.0977 124.064L45.123 124.09L45.1514 124.114L45.5322 123.65ZM48.5322 125L48.4578 125.595L48.4949 125.6H48.5322V125ZM48.9822 125.05L48.8974 125.644L48.9396 125.65H48.9822V125.05ZM49.5322 125.3L49.0637 125.675L49.0845 125.701L49.108 125.724L49.5322 125.3ZM49.5322 126.85L49.044 126.501L49.0384 126.509L49.033 126.517L49.5322 126.85ZM48.8822 127.15L48.8592 127.75L48.8707 127.75H48.8822V127.15ZM47.5822 127.1L47.555 127.699L47.5592 127.7L47.5822 127.1ZM44.3822 127L44.2646 127.588L44.3228 127.6H44.3822V127ZM40.9322 125.6L40.5722 126.08L40.5818 126.087L40.5916 126.094L40.9322 125.6ZM38.1322 122.65L38.6153 122.294L38.6092 122.286L38.1322 122.65ZM34.0822 116.45L34.5957 116.14L34.592 116.134L34.0822 116.45ZM33.1822 115L33.6921 114.684L33.6848 114.672L33.1822 115ZM31.7322 113.45L31.4078 113.955L31.4209 113.963L31.4345 113.971L31.7322 113.45ZM27.8822 113V112.4H27.2822V113H27.8822ZM27.8822 121.15H27.2822V121.162L27.2827 121.174L27.8822 121.15ZM28.0822 123.2L27.4925 123.311L27.4967 123.333L27.5025 123.355L28.0822 123.2ZM28.9822 124.5L28.6115 124.972L28.6223 124.98L28.6335 124.988L28.9822 124.5ZM32.0822 125.2L31.658 125.624L31.7102 125.676L31.7735 125.714L32.0822 125.2ZM32.3822 126.05H32.9822V126.029L32.9807 126.007L32.3822 126.05ZM32.1322 126.85L31.644 126.501L31.6384 126.509L31.633 126.517L32.1322 126.85ZM31.4822 127.15L31.4541 127.749L31.4682 127.75H31.4822V127.15ZM37.7822 99.25L37.358 99.6743H37.358L37.7822 99.25ZM29.1822 97.65L29.436 98.1937L29.436 98.1937L29.1822 97.65ZM28.1322 98.85L27.5664 98.6503L27.5611 98.6654L27.5566 98.6807L28.1322 98.85ZM27.8822 111.05H27.2822V111.65H27.8822V111.05ZM19.3322 126.55C19.18 126.55 19.1278 126.507 19.0932 126.466L18.1713 127.234C18.47 127.593 18.8845 127.75 19.3322 127.75V126.55ZM19.1532 126.552C19.0775 126.42 19.0322 126.258 19.0322 126.05H17.8322C17.8322 126.442 17.9203 126.813 18.1113 127.148L19.1532 126.552ZM19.0309 126.09C19.0459 125.865 19.0742 125.722 19.1014 125.64C19.1327 125.546 19.1371 125.607 19.0409 125.664L18.4235 124.636C18.1607 124.793 18.0318 125.054 17.963 125.26C17.8903 125.478 17.8519 125.735 17.8336 126.01L19.0309 126.09ZM19.0409 125.664C19.0291 125.672 19.063 125.65 19.1883 125.63C19.3052 125.612 19.4675 125.6 19.6822 125.6V124.4C19.4303 124.4 19.2009 124.413 19.0011 124.445C18.8097 124.475 18.6021 124.528 18.4235 124.636L19.0409 125.664ZM19.6822 125.6C20.6967 125.6 21.5639 125.429 22.181 124.988L21.4835 124.012C21.1672 124.238 20.6011 124.4 19.6822 124.4V125.6ZM22.2029 124.972C22.7626 124.532 23.138 123.98 23.2706 123.318L22.0939 123.082C22.0264 123.42 21.8352 123.735 21.4615 124.028L22.2029 124.972ZM23.2643 123.346C23.4113 122.758 23.4975 122.03 23.5317 121.174L22.3327 121.126C22.3003 121.937 22.2198 122.576 22.1001 123.054L23.2643 123.346ZM23.5322 121.15V101.35H22.3322V121.15H23.5322ZM23.5318 101.327C23.4977 100.441 23.4119 99.7075 23.262 99.1454L22.1025 99.4546C22.2193 99.8925 22.3001 100.525 22.3327 101.373L23.5318 101.327ZM23.2706 99.1823C23.138 98.5196 22.7626 97.9679 22.2029 97.5282L21.4615 98.4718C21.8352 98.7654 22.0264 99.0804 22.0939 99.4177L23.2706 99.1823ZM22.2029 97.5282C21.5822 97.0405 20.7052 96.85 19.6822 96.85V98.05C20.5926 98.05 21.1489 98.2262 21.4615 98.4718L22.2029 97.5282ZM19.6822 96.85H19.3822V98.05H19.6822V96.85ZM19.3822 96.85C19.2425 96.85 19.1456 96.8393 19.0829 96.8258C19.0172 96.8117 19.0162 96.8005 19.0422 96.82L18.3222 97.78C18.6215 98.0045 19.0277 98.05 19.3822 98.05V96.85ZM19.1065 96.8757C19.1461 96.9153 19.1278 96.9224 19.0978 96.8144C19.0708 96.7169 19.0458 96.5685 19.0307 96.3572L17.8338 96.4427C17.852 96.6982 17.8854 96.9331 17.9416 97.1356C17.9949 97.3276 18.085 97.5513 18.258 97.7243L19.1065 96.8757ZM19.0322 96.4C19.0322 96.189 19.0785 96.0623 19.1315 95.9828L18.133 95.3172C17.9193 95.6377 17.8322 96.011 17.8322 96.4H19.0322ZM19.1205 95.9987C19.1685 95.9315 19.2154 95.9 19.3322 95.9V94.7C18.849 94.7 18.4293 94.9018 18.144 95.3013L19.1205 95.9987ZM19.3046 95.8994C21.4787 95.9997 23.4714 96.05 25.2822 96.05V94.85C23.4931 94.85 21.5191 94.8003 19.3599 94.7006L19.3046 95.8994ZM25.2822 96.05H33.8822V94.85H25.2822V96.05ZM33.8744 96.0499C36.385 96.0826 38.4272 96.4902 40.0267 97.2429L40.5377 96.1571C38.7373 95.3098 36.5128 94.8841 33.89 94.85L33.8744 96.0499ZM40.0395 97.2487C41.6967 97.9817 42.8583 98.9157 43.5789 100.027L44.5856 99.3735C43.7061 98.0177 42.3344 96.9516 40.5249 96.1513L40.0395 97.2487ZM43.583 100.033C44.3194 101.137 44.6822 102.322 44.6822 103.6H45.8822C45.8822 102.078 45.4451 100.663 44.5815 99.3672L43.583 100.033ZM44.6822 103.6C44.6822 105.255 44.0266 106.795 42.6486 108.235L43.5158 109.065C45.0712 107.439 45.8822 105.612 45.8822 103.6H44.6822ZM42.6439 108.24C41.3034 109.674 39.4443 110.726 37.0276 111.37L37.3368 112.53C39.9202 111.841 41.9943 110.692 43.5205 109.06L42.6439 108.24ZM36.6745 112.27L37.5245 113.62L38.54 112.98L37.69 111.63L36.6745 112.27ZM37.5217 113.615C38.9256 115.888 40.1982 117.848 41.3393 119.492L42.3252 118.808C41.1996 117.186 39.9389 115.245 38.5427 112.985L37.5217 113.615ZM41.3426 119.497C42.4924 121.12 43.7442 122.643 45.0977 124.064L45.9667 123.236C44.6536 121.857 43.4387 120.38 42.3218 118.803L41.3426 119.497ZM45.1514 124.114C46.1612 124.943 47.2651 125.446 48.4578 125.595L48.6067 124.405C47.666 124.287 46.7699 123.89 45.9131 123.186L45.1514 124.114ZM48.5322 125.6C48.5296 125.6 48.5551 125.601 48.6285 125.609C48.6948 125.616 48.7839 125.628 48.8974 125.644L49.0671 124.456C48.846 124.424 48.6502 124.4 48.5322 124.4V125.6ZM48.9822 125.65C49.0268 125.65 49.0442 125.658 49.0464 125.659C49.0481 125.659 49.0494 125.66 49.0511 125.662C49.0528 125.663 49.0572 125.667 49.0637 125.675L50.0007 124.925C49.742 124.602 49.3784 124.45 48.9822 124.45V125.65ZM49.108 125.724C49.1224 125.739 49.1822 125.809 49.1822 126.05H50.3822C50.3822 125.624 50.2754 125.195 49.9565 124.876L49.108 125.724ZM49.1822 126.05C49.1822 126.231 49.1345 126.375 49.044 126.501L50.0205 127.199C50.2633 126.859 50.3822 126.469 50.3822 126.05H49.1822ZM49.033 126.517C49.0288 126.523 49.0264 126.525 49.0261 126.526C49.0259 126.526 49.024 126.528 49.0183 126.53C49.0063 126.536 48.9671 126.55 48.8822 126.55V127.75C49.3264 127.75 49.7588 127.592 50.0315 127.183L49.033 126.517ZM48.9053 126.55L47.6053 126.5L47.5592 127.7L48.8592 127.75L48.9053 126.55ZM47.6095 126.501C46.1418 126.434 45.0635 126.4 44.3822 126.4V127.6C45.0343 127.6 46.0893 127.633 47.555 127.699L47.6095 126.501ZM44.4999 126.412C43.234 126.158 42.1626 125.72 41.2729 125.106L40.5916 126.094C41.6352 126.814 42.8638 127.308 44.2646 127.588L44.4999 126.412ZM41.2922 125.12C40.4188 124.465 39.5251 123.529 38.6153 122.294L37.6492 123.006C38.606 124.304 39.579 125.335 40.5722 126.08L41.2922 125.12ZM38.6092 122.286C37.6633 121.047 36.3272 119.003 34.5957 116.14L33.5688 116.76C35.3039 119.63 36.6678 121.72 37.6553 123.014L38.6092 122.286ZM34.592 116.134L33.692 114.684L32.6724 115.316L33.5724 116.766L34.592 116.134ZM33.6848 114.672C33.1646 113.875 32.6182 113.265 32.0299 112.929L31.4345 113.971C31.7796 114.168 32.1998 114.592 32.6797 115.328L33.6848 114.672ZM32.0567 112.945C31.435 112.546 30.4828 112.4 29.3322 112.4V113.6C30.4483 113.6 31.0961 113.754 31.4078 113.955L32.0567 112.945ZM29.3322 112.4H27.8822V113.6H29.3322V112.4ZM27.2822 113V121.15H28.4822V113H27.2822ZM27.2827 121.174C27.3167 122.023 27.3851 122.738 27.4925 123.311L28.672 123.089C28.5793 122.596 28.5145 121.944 28.4817 121.126L27.2827 121.174ZM27.5025 123.355C27.6741 123.998 28.0583 124.537 28.6115 124.972L29.3529 124.028C28.9728 123.73 28.757 123.402 28.662 123.045L27.5025 123.355ZM28.6335 124.988C29.2505 125.429 30.1177 125.6 31.1322 125.6V124.4C30.2134 124.4 29.6472 124.238 29.331 124.012L28.6335 124.988ZM31.1322 125.6H31.4322V124.4H31.1322V125.6ZM31.4322 125.6C31.5405 125.6 31.6072 125.612 31.6433 125.623C31.6769 125.634 31.6732 125.639 31.658 125.624L32.5065 124.776C32.2096 124.479 31.8006 124.4 31.4322 124.4V125.6ZM31.7735 125.714C31.687 125.663 31.6888 125.609 31.7164 125.687C31.7415 125.758 31.769 125.887 31.7838 126.093L32.9807 126.007C32.9621 125.747 32.9229 125.5 32.848 125.288C32.7757 125.083 32.6441 124.837 32.3909 124.686L31.7735 125.714ZM31.7822 126.05C31.7822 126.231 31.7345 126.375 31.644 126.501L32.6205 127.199C32.8633 126.859 32.9822 126.469 32.9822 126.05H31.7822ZM31.633 126.517C31.6288 126.523 31.6264 126.525 31.6261 126.526C31.6259 126.526 31.624 126.528 31.6183 126.53C31.6063 126.536 31.5671 126.55 31.4822 126.55V127.75C31.9264 127.75 32.3588 127.592 32.6315 127.183L31.633 126.517ZM31.5103 126.551C29.3681 126.45 27.2754 126.4 25.2322 126.4V127.6C27.2557 127.6 29.3297 127.65 31.4541 127.749L31.5103 126.551ZM25.2322 126.4C23.4545 126.4 21.4785 126.45 19.3046 126.551L19.3599 127.749C21.5193 127.65 23.4766 127.6 25.2322 127.6V126.4ZM32.2822 111.65C34.8491 111.65 36.8858 111.048 38.2806 109.737C39.6824 108.42 40.3322 106.486 40.3322 104.05H39.1322C39.1322 106.281 38.5404 107.847 37.4589 108.863C36.3703 109.886 34.6821 110.45 32.2822 110.45V111.65ZM40.3322 104.05C40.3322 101.997 39.6232 100.242 38.2065 98.8257L37.358 99.6743C38.5413 100.858 39.1322 102.303 39.1322 104.05H40.3322ZM38.2065 98.8257C36.7416 97.3609 34.4144 96.7 31.3822 96.7V97.9C34.2834 97.9 36.2228 98.5391 37.358 99.6743L38.2065 98.8257ZM31.3822 96.7C30.3842 96.7 29.5467 96.8178 28.9285 97.1063L29.436 98.1937C29.8177 98.0156 30.4469 97.9 31.3822 97.9V96.7ZM28.9285 97.1063C28.2687 97.4142 27.8148 97.9467 27.5664 98.6503L28.698 99.0497C28.8497 98.62 29.0957 98.3525 29.436 98.1937L28.9285 97.1063ZM27.5566 98.6807C27.3648 99.3329 27.2822 100.27 27.2822 101.45H28.4822C28.4822 100.296 28.5663 99.5004 28.7078 99.0193L27.5566 98.6807ZM27.2822 101.45V111.05H28.4822V101.45H27.2822ZM27.8822 111.65H32.2822V110.45H27.8822V111.65ZM51.76 116.55L51.2332 116.837L51.2492 116.867L51.2684 116.894L51.76 116.55ZM51.76 114.4L51.2538 114.078L51.2495 114.085L51.2455 114.091L51.76 114.4ZM64.36 114.4L63.8332 114.687L63.8492 114.717L63.8684 114.744L64.36 114.4ZM64.36 116.55L63.8538 116.228L63.8495 116.235L63.8455 116.241L64.36 116.55ZM52.61 116.45C52.5167 116.45 52.4006 116.419 52.2515 116.206L51.2684 116.894C51.586 117.348 52.0366 117.65 52.61 117.65V116.45ZM52.2867 116.263C52.128 115.972 52.06 115.703 52.06 115.45H50.86C50.86 115.93 50.9919 116.395 51.2332 116.837L52.2867 116.263ZM52.06 115.45C52.06 115.199 52.1269 114.955 52.2745 114.709L51.2455 114.091C50.993 114.512 50.86 114.968 50.86 115.45H52.06ZM52.2662 114.722C52.4271 114.469 52.5433 114.45 52.61 114.45V113.25C52.0099 113.25 51.5595 113.597 51.2538 114.078L52.2662 114.722ZM52.61 114.45H63.56V113.25H52.61V114.45ZM63.56 114.45C63.6153 114.45 63.7071 114.456 63.8332 114.687L64.8867 114.113C64.6129 113.611 64.1713 113.25 63.56 113.25V114.45ZM63.8684 114.744C64.0392 114.988 64.11 115.22 64.11 115.45H65.31C65.31 114.947 65.1473 114.479 64.8515 114.056L63.8684 114.744ZM64.11 115.45C64.11 115.683 64.0373 115.939 63.8538 116.228L64.8662 116.872C65.1492 116.427 65.31 115.95 65.31 115.45H64.11ZM63.8455 116.241C63.7326 116.429 63.6442 116.45 63.56 116.45V117.65C64.1424 117.65 64.5873 117.337 64.8745 116.859L63.8455 116.241ZM63.56 116.45H52.61V117.65H63.56V116.45ZM69.3811 127.15V127.75H69.3949L69.4087 127.749L69.3811 127.15ZM68.6811 126.85L68.1601 127.148L68.1863 127.194L68.2201 127.234L68.6811 126.85ZM68.4811 126.05L67.8824 126.01L67.8811 126.03V126.05H68.4811ZM68.7811 125.15L69.0898 125.664L68.7811 125.15ZM71.8811 124.5L72.2298 124.988L72.241 124.98L72.2517 124.972L71.8811 124.5ZM72.7311 123.2L72.149 123.054L72.1455 123.068L72.1427 123.082L72.7311 123.2ZM72.9811 121.15L73.5806 121.174L73.5811 121.162V121.15H72.9811ZM72.9811 101.3H73.5811V101.288L73.5806 101.276L72.9811 101.3ZM72.7311 99.3L72.1413 99.4106L72.1455 99.4328L72.1513 99.4546L72.7311 99.3ZM71.8811 98L71.5104 98.4718L71.5211 98.4803L71.5323 98.4882L71.8811 98ZM68.7311 97.3L68.3068 97.7243L68.3369 97.7544L68.3711 97.78L68.7311 97.3ZM68.4811 96.4H67.8811V96.4214L67.8826 96.4427L68.4811 96.4ZM68.6811 95.65L68.1928 95.3013L68.1872 95.3091L68.1818 95.3172L68.6811 95.65ZM69.3811 95.3L69.4087 94.7006L69.3949 94.7H69.3811V95.3ZM81.5311 95.3V94.7H81.5172L81.5034 94.7006L81.5311 95.3ZM82.1811 95.65L81.6601 95.9477L81.6863 95.9935L81.7201 96.0341L82.1811 95.65ZM82.4311 96.4L83.0297 96.4399L83.0311 96.42V96.4H82.4311ZM82.1311 97.3L81.8224 96.7855V96.7855L82.1311 97.3ZM79.0311 98L79.3798 98.4882L79.391 98.4803L79.4017 98.4718L79.0311 98ZM78.1311 99.3L77.549 99.1545L77.5455 99.1683L77.5427 99.1823L78.1311 99.3ZM77.9311 101.3L77.3315 101.276L77.3311 101.288V101.3H77.9311ZM77.9311 110.15H77.3311V110.75H77.9311V110.15ZM93.6311 110.15V110.75H94.2311V110.15H93.6311ZM93.6311 101.3H94.2311V101.288L94.2306 101.276L93.6311 101.3ZM93.3811 99.3L92.7913 99.4106L92.7955 99.4328L92.8013 99.4546L93.3811 99.3ZM92.5311 98L92.1604 98.4718L92.1712 98.4803L92.1823 98.4882L92.5311 98ZM89.3311 97.3L88.9068 97.7243L88.959 97.7765L89.0224 97.8145L89.3311 97.3ZM89.0811 96.4H88.4811V96.4214L88.4826 96.4427L89.0811 96.4ZM89.3311 95.65L89.792 96.0341L89.8063 96.0169L89.8193 95.9987L89.3311 95.65ZM89.9811 95.3L90.0087 94.7006L89.9949 94.7H89.9811V95.3ZM102.181 95.3V94.7H102.167L102.153 94.7007L102.181 95.3ZM102.831 95.65L102.31 95.9477L102.336 95.9935L102.37 96.0341L102.831 95.65ZM103.081 96.4L103.68 96.4399L103.681 96.42V96.4H103.081ZM102.731 97.3L102.463 96.7633L102.442 96.7736L102.422 96.7855L102.731 97.3ZM99.6311 98L99.9798 98.4883L99.9859 98.4838L99.6311 98ZM98.7311 99.3L98.149 99.1545L98.1455 99.1683L98.1427 99.1823L98.7311 99.3ZM98.5311 101.3L97.9315 101.276L97.9311 101.288V101.3H98.5311ZM98.5311 121.15H97.9311V121.162L97.9315 121.174L98.5311 121.15ZM98.7311 123.2L98.1413 123.311L98.1455 123.333L98.1513 123.355L98.7311 123.2ZM99.6311 124.5L99.2604 124.972L99.2788 124.986L99.2982 124.999L99.6311 124.5ZM102.781 125.2L102.357 125.624L102.409 125.676L102.472 125.714L102.781 125.2ZM103.081 126.05H103.681V126.029L103.68 126.007L103.081 126.05ZM102.831 126.85L102.343 126.501L102.337 126.509L102.332 126.517L102.831 126.85ZM102.181 127.15L102.153 127.749L102.167 127.75H102.181V127.15ZM89.9811 127.15V127.75H89.9949L90.0087 127.749L89.9811 127.15ZM89.3311 126.85L88.8428 127.199L88.8558 127.217L88.8701 127.234L89.3311 126.85ZM89.0811 126.05L88.4824 126.01L88.4811 126.03V126.05H89.0811ZM89.3811 125.15L89.1127 124.613L89.0921 124.624L89.0724 124.636L89.3811 125.15ZM92.5311 124.5L92.8798 124.988L92.891 124.98L92.9017 124.972L92.5311 124.5ZM93.3811 123.2L92.799 123.054L92.7955 123.068L92.7927 123.082L93.3811 123.2ZM93.6311 121.15L94.2306 121.174L94.2311 121.162V121.15H93.6311ZM93.6311 112.3H94.2311V111.7H93.6311V112.3ZM77.9311 112.3V111.7H77.3311V112.3H77.9311ZM77.9311 121.15H77.3311V121.162L77.3315 121.174L77.9311 121.15ZM78.1311 123.2L77.5413 123.311L77.5455 123.333L77.5513 123.355L78.1311 123.2ZM79.0311 124.5L78.6604 124.972L78.6712 124.98L78.6823 124.988L79.0311 124.5ZM82.1811 125.2L81.7568 125.624L81.7869 125.654L81.8211 125.68L82.1811 125.2ZM82.4311 126.05H83.0311V126.029L83.0295 126.007L82.4311 126.05ZM82.1811 126.85L81.6928 126.501L81.6872 126.509L81.6818 126.517L82.1811 126.85ZM81.5311 127.15L81.503 127.749L81.517 127.75H81.5311V127.15ZM69.3811 126.55C69.2288 126.55 69.1766 126.507 69.142 126.466L68.2201 127.234C68.5189 127.593 68.9333 127.75 69.3811 127.75V126.55ZM69.202 126.552C69.1263 126.42 69.0811 126.258 69.0811 126.05H67.8811C67.8811 126.442 67.9691 126.813 68.1601 127.148L69.202 126.552ZM69.0797 126.09C69.0947 125.865 69.123 125.722 69.1503 125.64C69.1815 125.546 69.1859 125.607 69.0898 125.664L68.4724 124.636C68.2095 124.793 68.0806 125.054 68.0118 125.26C67.9391 125.478 67.9007 125.735 67.8824 126.01L69.0797 126.09ZM69.0898 125.664C69.0779 125.672 69.1119 125.65 69.2371 125.63C69.354 125.612 69.5163 125.6 69.7311 125.6V124.4C69.4791 124.4 69.2497 124.413 69.05 124.445C68.8586 124.475 68.6509 124.528 68.4724 124.636L69.0898 125.664ZM69.7311 125.6C70.7455 125.6 71.6127 125.429 72.2298 124.988L71.5323 124.012C71.216 124.238 70.6499 124.4 69.7311 124.4V125.6ZM72.2517 124.972C72.8114 124.532 73.1869 123.98 73.3194 123.318L72.1427 123.082C72.0752 123.42 71.8841 123.735 71.5104 124.028L72.2517 124.972ZM73.3131 123.346C73.4601 122.758 73.5464 122.03 73.5806 121.174L72.3815 121.126C72.3491 121.937 72.2687 122.576 72.149 123.054L73.3131 123.346ZM73.5811 121.15V101.3H72.3811V121.15H73.5811ZM73.5806 101.276C73.5464 100.422 73.4603 99.7059 73.3108 99.1454L72.1513 99.4546C72.2685 99.8941 72.349 100.511 72.3815 101.324L73.5806 101.276ZM73.3208 99.1894C73.1905 98.4945 72.8146 97.9295 72.2298 97.5118L71.5323 98.4882C71.8808 98.7372 72.0716 99.0388 72.1413 99.4106L73.3208 99.1894ZM72.2517 97.5282C71.631 97.0405 70.754 96.85 69.7311 96.85V98.05C70.6414 98.05 71.1977 98.2262 71.5104 98.4718L72.2517 97.5282ZM69.7311 96.85H69.4311V98.05H69.7311V96.85ZM69.4311 96.85C69.2914 96.85 69.1945 96.8393 69.1318 96.8258C69.066 96.8117 69.065 96.8005 69.0911 96.82L68.3711 97.78C68.6704 98.0045 69.0765 98.05 69.4311 98.05V96.85ZM69.1553 96.8757C69.1949 96.9153 69.1767 96.9224 69.1467 96.8144C69.1196 96.7169 69.0946 96.5685 69.0795 96.3572L67.8826 96.4427C67.9008 96.6982 67.9342 96.9331 67.9904 97.1356C68.0438 97.3276 68.1339 97.5513 68.3068 97.7243L69.1553 96.8757ZM69.0811 96.4C69.0811 96.189 69.1273 96.0623 69.1803 95.9828L68.1818 95.3172C67.9682 95.6377 67.8811 96.011 67.8811 96.4H69.0811ZM69.1693 95.9987C69.2173 95.9315 69.2642 95.9 69.3811 95.9V94.7C68.8979 94.7 68.4781 94.9018 68.1928 95.3013L69.1693 95.9987ZM69.3534 95.8994C71.5273 95.9997 73.5034 96.05 75.2811 96.05V94.85C73.5254 94.85 71.5681 94.8003 69.4087 94.7006L69.3534 95.8994ZM75.2811 96.05C77.291 96.05 79.3836 95.9998 81.5587 95.8994L81.5034 94.7006C79.3452 94.8002 77.2711 94.85 75.2811 94.85V96.05ZM81.5311 95.9C81.6033 95.9 81.6304 95.9138 81.6341 95.9158C81.6366 95.9171 81.6385 95.9184 81.6412 95.9211C81.6441 95.9241 81.651 95.9317 81.6601 95.9477L82.702 95.3523C82.4476 94.9071 82.0161 94.7 81.5311 94.7V95.9ZM81.7201 96.0341C81.7835 96.1101 81.8311 96.2178 81.8311 96.4H83.0311C83.0311 95.9822 82.912 95.5899 82.642 95.2659L81.7201 96.0341ZM81.8324 96.3601C81.8174 96.5851 81.7891 96.7284 81.7618 96.8103C81.7306 96.904 81.7262 96.8432 81.8224 96.7855L82.4398 97.8145C82.7026 97.6568 82.8315 97.396 82.9003 97.1897C82.973 96.9716 83.0114 96.7149 83.0297 96.4399L81.8324 96.3601ZM81.8224 96.7855C81.8342 96.7784 81.8002 96.8001 81.675 96.8198C81.5581 96.8383 81.3958 96.85 81.1811 96.85V98.05C81.433 98.05 81.6624 98.0367 81.8621 98.0052C82.0535 97.9749 82.2612 97.9216 82.4398 97.8145L81.8224 96.7855ZM81.1811 96.85C80.1581 96.85 79.2811 97.0405 78.6604 97.5282L79.4017 98.4718C79.7144 98.2262 80.2707 98.05 81.1811 98.05V96.85ZM78.6823 97.5118C78.1051 97.9241 77.7185 98.4764 77.549 99.1545L78.7131 99.4455C78.8103 99.0569 79.0237 98.7426 79.3798 98.4882L78.6823 97.5118ZM77.5427 99.1823C77.4339 99.7264 77.3654 100.428 77.3315 101.276L78.5306 101.324C78.5633 100.505 78.6282 99.8736 78.7194 99.4177L77.5427 99.1823ZM77.3311 101.3V110.15H78.5311V101.3H77.3311ZM77.9311 110.75H93.6311V109.55H77.9311V110.75ZM94.2311 110.15V101.3H93.0311V110.15H94.2311ZM94.2306 101.276C94.1964 100.422 94.1103 99.7059 93.9608 99.1454L92.8013 99.4546C92.9185 99.8941 92.999 100.511 93.0315 101.324L94.2306 101.276ZM93.9708 99.1894C93.8405 98.4945 93.4646 97.9295 92.8798 97.5118L92.1823 98.4882C92.5308 98.7372 92.7216 99.0388 92.7913 99.4106L93.9708 99.1894ZM92.9017 97.5282C92.281 97.0405 91.404 96.85 90.3811 96.85V98.05C91.2914 98.05 91.8477 98.2262 92.1604 98.4718L92.9017 97.5282ZM90.3811 96.85H90.0811V98.05H90.3811V96.85ZM90.0811 96.85C89.7881 96.85 89.6682 96.8026 89.6398 96.7855L89.0224 97.8145C89.3272 97.9974 89.7073 98.05 90.0811 98.05V96.85ZM89.7553 96.8757C89.7949 96.9153 89.7767 96.9224 89.7467 96.8144C89.7196 96.7169 89.6946 96.5685 89.6795 96.3572L88.4826 96.4427C88.5008 96.6982 88.5342 96.9331 88.5904 97.1356C88.6438 97.3276 88.7339 97.5513 88.9068 97.7243L89.7553 96.8757ZM89.6811 96.4C89.6811 96.2178 89.7286 96.1101 89.792 96.0341L88.8701 95.2659C88.6001 95.5899 88.4811 95.9822 88.4811 96.4H89.6811ZM89.8193 95.9987C89.8833 95.9092 89.9247 95.9 89.9811 95.9V94.7C89.5041 94.7 89.1122 94.9242 88.8428 95.3013L89.8193 95.9987ZM89.9534 95.8994C92.1285 95.9998 94.2211 96.05 96.2311 96.05V94.85C94.241 94.85 92.1669 94.8002 90.0087 94.7006L89.9534 95.8994ZM96.2311 96.05C98.0751 96.05 100.068 95.9997 102.209 95.8993L102.153 94.7007C100.028 94.8003 98.0536 94.85 96.2311 94.85V96.05ZM102.181 95.9C102.253 95.9 102.28 95.9138 102.284 95.9158C102.287 95.9171 102.288 95.9184 102.291 95.9211C102.294 95.9241 102.301 95.9317 102.31 95.9477L103.352 95.3523C103.098 94.9071 102.666 94.7 102.181 94.7V95.9ZM102.37 96.0341C102.433 96.1101 102.481 96.2178 102.481 96.4H103.681C103.681 95.9822 103.562 95.5899 103.292 95.2659L102.37 96.0341ZM102.482 96.3601C102.468 96.5791 102.437 96.7118 102.409 96.7825C102.382 96.8541 102.381 96.8041 102.463 96.7633L102.999 97.8367C103.281 97.6959 103.439 97.4459 103.528 97.2175C103.617 96.9882 103.661 96.7209 103.68 96.4399L102.482 96.3601ZM102.422 96.7855C102.43 96.7812 102.395 96.8018 102.282 96.8207C102.175 96.8385 102.027 96.85 101.831 96.85V98.05C102.27 98.05 102.719 98.0067 103.04 97.8145L102.422 96.7855ZM101.831 96.85C100.803 96.85 99.9223 97.0424 99.2762 97.5162L99.9859 98.4838C100.34 98.2243 100.925 98.05 101.831 98.05V96.85ZM99.2823 97.5118C98.7051 97.9241 98.3185 98.4764 98.149 99.1545L99.3131 99.4455C99.4103 99.0569 99.6237 98.7426 99.9798 98.4882L99.2823 97.5118ZM98.1427 99.1823C98.0339 99.7264 97.9654 100.428 97.9315 101.276L99.1306 101.324C99.1633 100.505 99.2282 99.8736 99.3194 99.4177L98.1427 99.1823ZM97.9311 101.3V121.15H99.1311V101.3H97.9311ZM97.9315 121.174C97.9655 122.023 98.0339 122.738 98.1413 123.311L99.3208 123.089C99.2282 122.596 99.1633 121.944 99.1306 121.126L97.9315 121.174ZM98.1513 123.355C98.3229 123.998 98.7072 124.537 99.2604 124.972L100.002 124.028C99.6216 123.73 99.4059 123.402 99.3108 123.045L98.1513 123.355ZM99.2982 124.999C99.9401 125.427 100.812 125.6 101.831 125.6V124.4C100.917 124.4 100.322 124.24 99.9639 124.001L99.2982 124.999ZM101.831 125.6H102.131V124.4H101.831V125.6ZM102.131 125.6C102.239 125.6 102.306 125.612 102.342 125.623C102.376 125.634 102.372 125.639 102.357 125.624L103.205 124.776C102.908 124.479 102.499 124.4 102.131 124.4V125.6ZM102.472 125.714C102.386 125.663 102.388 125.609 102.415 125.687C102.44 125.758 102.468 125.887 102.483 126.093L103.68 126.007C103.661 125.747 103.622 125.5 103.547 125.288C103.474 125.083 103.343 124.837 103.09 124.686L102.472 125.714ZM102.481 126.05C102.481 126.231 102.433 126.375 102.343 126.501L103.319 127.199C103.562 126.859 103.681 126.469 103.681 126.05H102.481ZM102.332 126.517C102.328 126.523 102.325 126.525 102.325 126.526C102.325 126.526 102.323 126.528 102.317 126.53C102.305 126.536 102.266 126.55 102.181 126.55V127.75C102.625 127.75 103.058 127.592 103.33 127.183L102.332 126.517ZM102.209 126.551C100.068 126.45 98.0583 126.4 96.1811 126.4V127.6C98.0371 127.6 100.028 127.65 102.153 127.749L102.209 126.551ZM96.1811 126.4C94.2043 126.4 92.1283 126.45 89.9534 126.551L90.0087 127.749C92.1671 127.65 94.2245 127.6 96.1811 127.6V126.4ZM89.9811 126.55C89.8875 126.55 89.8415 126.525 89.792 126.466L88.8701 127.234C89.1539 127.575 89.5413 127.75 89.9811 127.75V126.55ZM89.8193 126.501C89.7288 126.375 89.6811 126.231 89.6811 126.05H88.4811C88.4811 126.469 88.6 126.859 88.8428 127.199L89.8193 126.501ZM89.6797 126.09C89.6947 125.865 89.723 125.722 89.7503 125.64C89.7815 125.546 89.7859 125.607 89.6898 125.664L89.0724 124.636C88.8095 124.793 88.6806 125.054 88.6118 125.26C88.5391 125.478 88.5007 125.735 88.4824 126.01L89.6797 126.09ZM89.6494 125.687C89.7159 125.653 89.9275 125.6 90.3811 125.6V124.4C89.9013 124.4 89.4462 124.447 89.1127 124.613L89.6494 125.687ZM90.3811 125.6C91.3956 125.6 92.2627 125.429 92.8798 124.988L92.1823 124.012C91.866 124.238 91.2999 124.4 90.3811 124.4V125.6ZM92.9017 124.972C93.4614 124.532 93.8369 123.98 93.9694 123.318L92.7927 123.082C92.7253 123.42 92.5341 123.735 92.1604 124.028L92.9017 124.972ZM93.9631 123.346C94.1101 122.758 94.1964 122.03 94.2306 121.174L93.0315 121.126C92.9991 121.937 92.9187 122.576 92.799 123.054L93.9631 123.346ZM94.2311 121.15V112.3H93.0311V121.15H94.2311ZM93.6311 111.7H77.9311V112.9H93.6311V111.7ZM77.3311 112.3V121.15H78.5311V112.3H77.3311ZM77.3315 121.174C77.3655 122.023 77.4339 122.738 77.5413 123.311L78.7208 123.089C78.6282 122.596 78.5633 121.944 78.5306 121.126L77.3315 121.174ZM77.5513 123.355C77.7229 123.998 78.1072 124.537 78.6604 124.972L79.4017 124.028C79.0216 123.73 78.8059 123.402 78.7108 123.045L77.5513 123.355ZM78.6823 124.988C79.2994 125.429 80.1666 125.6 81.1811 125.6V124.4C80.2622 124.4 79.6961 124.238 79.3798 124.012L78.6823 124.988ZM81.1811 125.6H81.4811V124.4H81.1811V125.6ZM81.4811 125.6C81.6112 125.6 81.6939 125.613 81.7412 125.627C81.7873 125.64 81.78 125.647 81.7568 125.624L82.6053 124.776C82.2992 124.47 81.861 124.4 81.4811 124.4V125.6ZM81.8211 125.68C81.7705 125.642 81.7506 125.607 81.7493 125.605C81.7478 125.602 81.7559 125.616 81.7679 125.657C81.7926 125.741 81.8174 125.881 81.8326 126.093L83.0295 126.007C83.0114 125.753 82.9779 125.518 82.9192 125.318C82.866 125.137 82.7647 124.888 82.5411 124.72L81.8211 125.68ZM81.8311 126.05C81.8311 126.231 81.7833 126.375 81.6928 126.501L82.6693 127.199C82.9121 126.859 83.0311 126.469 83.0311 126.05H81.8311ZM81.6818 126.517C81.6776 126.523 81.6752 126.525 81.675 126.526C81.6747 126.526 81.6728 126.528 81.6671 126.53C81.6552 126.536 81.6159 126.55 81.5311 126.55V127.75C81.9752 127.75 82.4076 127.592 82.6803 127.183L81.6818 126.517ZM81.5592 126.551C79.4171 126.45 77.341 126.4 75.3311 126.4V127.6C77.3211 127.6 79.3784 127.65 81.503 127.749L81.5592 126.551ZM75.3311 126.4C73.5202 126.4 71.5275 126.45 69.3534 126.551L69.4087 127.749C71.568 127.65 73.5419 127.6 75.3311 127.6V126.4ZM158.947 126.75L158.398 126.993L158.413 127.027L158.432 127.059L158.947 126.75ZM147.697 101.3L148.245 101.057L148.087 100.7H147.697V101.3ZM147.547 101.3V100.7H146.944L146.947 101.303L147.547 101.3ZM147.647 121.15L147.047 121.153L147.047 121.163L147.047 121.172L147.647 121.15ZM147.847 123.25L147.258 123.368L147.26 123.376L147.847 123.25ZM148.647 124.5L148.259 124.958L148.278 124.974L148.298 124.988L148.647 124.5ZM151.797 125.2L151.372 125.624L151.425 125.676L151.488 125.714L151.797 125.2ZM152.097 126.05H152.697V126.029L152.695 126.007L152.097 126.05ZM151.847 126.85L151.358 126.501L151.353 126.509L151.347 126.517L151.847 126.85ZM151.197 127.15L151.173 127.75L151.185 127.75H151.197V127.15ZM149.947 127.1L149.921 127.699L149.923 127.7L149.947 127.1ZM141.697 127.15V127.75H141.711L141.724 127.749L141.697 127.15ZM140.997 126.85L140.476 127.148L140.502 127.194L140.536 127.234L140.997 126.85ZM140.797 126.05L140.198 126.01L140.197 126.03V126.05H140.797ZM141.097 125.15L141.405 125.664L141.097 125.15ZM144.147 124.5L144.513 124.976L144.517 124.972L144.147 124.5ZM144.997 123.25L145.583 123.376L145.585 123.368L144.997 123.25ZM145.197 121.15L145.796 121.172L145.797 121.163L145.797 121.153L145.197 121.15ZM145.297 101.3L145.897 101.303V101.3H145.297ZM144.947 99L144.397 99.2405L144.4 99.2471L144.403 99.2537L144.947 99ZM143.897 97.9L143.612 98.4283L143.636 98.441L143.66 98.4515L143.897 97.9ZM141.947 97.3L141.801 97.8821L141.817 97.8861L141.833 97.8892L141.947 97.3ZM141.347 97.2L141.201 97.7821L141.236 97.7909L141.272 97.7954L141.347 97.2ZM140.797 96.9L140.24 97.1228L140.269 97.1965L140.317 97.26L140.797 96.9ZM140.997 95.35L140.699 94.8291L140.681 94.8393L140.664 94.8508L140.997 95.35ZM146.897 95.55L146.773 96.1371L146.781 96.1387L146.788 96.1401L146.897 95.55ZM150.197 97.05L149.816 97.5137L149.824 97.5201L150.197 97.05ZM152.597 100.45L152.044 100.683L152.049 100.694L152.597 100.45ZM161.197 119.75L160.649 119.994L160.807 120.35H161.197V119.75ZM161.347 119.75V120.35H161.751L161.903 119.975L161.347 119.75ZM171.197 95.45V94.85H170.792L170.641 95.2246L171.197 95.45ZM179.997 95.3V94.7H179.983L179.969 94.7007L179.997 95.3ZM180.647 95.65L180.126 95.9477L180.152 95.9935L180.186 96.0341L180.647 95.65ZM180.897 96.4L181.495 96.4399L181.497 96.42V96.4H180.897ZM180.547 97.3L180.278 96.7633L180.258 96.7736L180.238 96.7855L180.547 97.3ZM177.497 98L177.845 98.4882L177.857 98.4803L177.867 98.4718L177.497 98ZM176.597 99.3L176.015 99.1545L176.011 99.1683L176.008 99.1823L176.597 99.3ZM176.397 101.3L175.797 101.276L175.797 101.288V101.3H176.397ZM176.397 121.15H175.797V121.162L175.797 121.174L176.397 121.15ZM176.597 123.2L176.007 123.311L176.011 123.333L176.017 123.355L176.597 123.2ZM177.497 124.5L177.126 124.972L177.137 124.98L177.148 124.988L177.497 124.5ZM180.597 125.2L180.172 125.624L180.225 125.676L180.288 125.714L180.597 125.2ZM180.897 126.05H181.497V126.029L181.495 126.007L180.897 126.05ZM180.647 126.85L180.158 126.501L180.153 126.509L180.147 126.517L180.647 126.85ZM179.997 127.15L179.969 127.749L179.983 127.75H179.997V127.15ZM167.847 127.15V127.75H167.861L167.874 127.749L167.847 127.15ZM167.147 126.85L166.626 127.148L166.652 127.194L166.686 127.234L167.147 126.85ZM166.947 126.05L166.348 126.01L166.347 126.03V126.05H166.947ZM167.247 125.15L167.555 125.664L167.247 125.15ZM170.347 124.5L170.695 124.988L170.707 124.98L170.717 124.972L170.347 124.5ZM171.197 123.2L170.615 123.054L170.611 123.068L170.608 123.082L171.197 123.2ZM171.447 121.15L172.046 121.174L172.047 121.162V121.15H171.447ZM171.447 101.3H172.047V100.7H171.447V101.3ZM171.297 101.3V100.7H170.892L170.741 101.075L171.297 101.3ZM160.997 126.75L160.441 126.525L160.44 126.527L160.997 126.75ZM159.997 126.65C159.638 126.65 159.521 126.542 159.461 126.441L158.432 127.059C158.772 127.625 159.355 127.85 159.997 127.85V126.65ZM159.495 126.507L148.245 101.057L147.148 101.543L158.398 126.993L159.495 126.507ZM147.697 100.7H147.547V101.9H147.697V100.7ZM146.947 101.303L147.047 121.153L148.247 121.147L148.147 101.297L146.947 101.303ZM147.047 121.172C147.081 122.084 147.149 122.821 147.258 123.368L148.435 123.132C148.344 122.679 148.279 122.016 148.246 121.128L147.047 121.172ZM147.26 123.376C147.393 123.995 147.744 124.522 148.259 124.958L149.034 124.042C148.682 123.744 148.501 123.438 148.433 123.124L147.26 123.376ZM148.298 124.988C148.915 125.429 149.782 125.6 150.797 125.6V124.4C149.878 124.4 149.312 124.238 148.995 124.012L148.298 124.988ZM150.797 125.6H151.097V124.4H150.797V125.6ZM151.097 125.6C151.227 125.6 151.31 125.613 151.357 125.627C151.403 125.64 151.396 125.647 151.372 125.624L152.221 124.776C151.915 124.47 151.477 124.4 151.097 124.4V125.6ZM151.488 125.714C151.402 125.663 151.403 125.609 151.431 125.687C151.456 125.758 151.483 125.887 151.498 126.093L152.695 126.007C152.677 125.747 152.637 125.5 152.562 125.288C152.49 125.083 152.359 124.837 152.105 124.686L151.488 125.714ZM151.497 126.05C151.497 126.231 151.449 126.375 151.358 126.501L152.335 127.199C152.578 126.859 152.697 126.469 152.697 126.05H151.497ZM151.347 126.517C151.343 126.523 151.341 126.525 151.341 126.526C151.34 126.526 151.338 126.528 151.333 126.53C151.321 126.536 151.282 126.55 151.197 126.55V127.75C151.641 127.75 152.073 127.592 152.346 127.183L151.347 126.517ZM151.221 126.55L149.971 126.5L149.923 127.7L151.173 127.75L151.221 126.55ZM149.973 126.501C148.439 126.434 147.328 126.4 146.647 126.4V127.6C147.299 127.6 148.388 127.633 149.921 127.699L149.973 126.501ZM146.647 126.4C145.499 126.4 143.838 126.451 141.669 126.551L141.724 127.749C143.888 127.649 145.527 127.6 146.647 127.6V126.4ZM141.697 126.55C141.544 126.55 141.492 126.507 141.458 126.466L140.536 127.234C140.834 127.593 141.249 127.75 141.697 127.75V126.55ZM141.518 126.552C141.442 126.42 141.397 126.258 141.397 126.05H140.197C140.197 126.442 140.285 126.813 140.476 127.148L141.518 126.552ZM141.395 126.09C141.41 125.865 141.439 125.722 141.466 125.64C141.497 125.546 141.502 125.607 141.405 125.664L140.788 124.636C140.525 124.793 140.396 125.054 140.327 125.26C140.255 125.478 140.216 125.735 140.198 126.01L141.395 126.09ZM141.405 125.664C141.394 125.672 141.427 125.65 141.553 125.63C141.67 125.612 141.832 125.6 142.047 125.6V124.4C141.795 124.4 141.565 124.413 141.366 124.445C141.174 124.475 140.967 124.528 140.788 124.636L141.405 125.664ZM142.047 125.6C143.055 125.6 143.92 125.431 144.513 124.976L143.781 124.024C143.507 124.235 142.971 124.4 142.047 124.4V125.6ZM144.517 124.972C145.067 124.54 145.447 124.01 145.583 123.376L144.41 123.124C144.346 123.423 144.16 123.726 143.776 124.028L144.517 124.972ZM145.585 123.368C145.694 122.821 145.762 122.084 145.796 121.172L144.597 121.128C144.564 122.016 144.499 122.679 144.408 123.132L145.585 123.368ZM145.797 121.153L145.897 101.303L144.697 101.297L144.597 121.147L145.797 121.153ZM145.897 101.3C145.897 100.242 145.781 99.3681 145.49 98.7463L144.403 99.2537C144.579 99.6319 144.697 100.291 144.697 101.3H145.897ZM145.496 98.7595C145.212 98.1085 144.76 97.6174 144.133 97.3485L143.66 98.4515C143.966 98.5826 144.215 98.8249 144.397 99.2405L145.496 98.7595ZM144.181 97.3717C143.668 97.0952 142.947 96.8814 142.06 96.7108L141.833 97.8892C142.68 98.052 143.259 98.2381 143.612 98.4283L144.181 97.3717ZM142.092 96.7179C141.923 96.6755 141.694 96.6387 141.421 96.6046L141.272 97.7954C141.533 97.828 141.704 97.8578 141.801 97.8821L142.092 96.7179ZM141.492 96.6179C141.394 96.5933 141.332 96.5676 141.296 96.5483C141.262 96.5293 141.264 96.5229 141.277 96.54L140.317 97.26C140.538 97.5552 140.881 97.702 141.201 97.7821L141.492 96.6179ZM141.354 96.6772C141.33 96.6185 141.297 96.461 141.297 96.15H140.097C140.097 96.5056 140.13 96.8482 140.24 97.1228L141.354 96.6772ZM141.297 96.15C141.297 95.9951 141.317 95.9054 141.333 95.8607C141.348 95.8228 141.352 95.8339 141.329 95.8492L140.664 94.8508C140.209 95.1537 140.097 95.6843 140.097 96.15H141.297ZM141.294 95.8709C141.393 95.8148 141.617 95.75 142.047 95.75V94.55C141.543 94.55 141.067 94.6186 140.699 94.8291L141.294 95.8709ZM142.047 95.75C143.991 95.75 145.562 95.8822 146.773 96.1371L147.02 94.9629C145.698 94.6845 144.036 94.55 142.047 94.55V95.75ZM146.788 96.1401C147.962 96.3563 148.966 96.8158 149.816 97.5136L150.578 96.5864C149.56 95.7509 148.365 95.2104 147.005 94.9599L146.788 96.1401ZM149.824 97.5201C150.69 98.2074 151.438 99.2475 152.044 100.683L153.149 100.217C152.489 98.6525 151.636 97.426 150.57 96.5799L149.824 97.5201ZM152.049 100.694L160.649 119.994L161.745 119.506L153.145 100.206L152.049 100.694ZM161.197 120.35H161.347V119.15H161.197V120.35ZM161.903 119.975L171.753 95.6754L170.641 95.2246L160.791 119.525L161.903 119.975ZM171.197 96.05H174.047V94.85H171.197V96.05ZM174.047 96.05C175.891 96.05 177.884 95.9997 180.025 95.8993L179.969 94.7007C177.843 94.8003 175.869 94.85 174.047 94.85V96.05ZM179.997 95.9C180.069 95.9 180.096 95.9138 180.1 95.9158C180.102 95.9171 180.104 95.9184 180.107 95.9211C180.11 95.9241 180.117 95.9317 180.126 95.9477L181.168 95.3523C180.913 94.9071 180.482 94.7 179.997 94.7V95.9ZM180.186 96.0341C180.249 96.1101 180.297 96.2178 180.297 96.4H181.497C181.497 95.9822 181.378 95.5899 181.108 95.2659L180.186 96.0341ZM180.298 96.3601C180.283 96.5791 180.252 96.7118 180.225 96.7825C180.197 96.8541 180.197 96.8041 180.278 96.7633L180.815 97.8367C181.097 97.6959 181.255 97.4459 181.343 97.2175C181.433 96.9882 181.477 96.7209 181.495 96.4399L180.298 96.3601ZM180.238 96.7855C180.245 96.7812 180.211 96.8018 180.098 96.8207C179.991 96.8385 179.843 96.85 179.647 96.85V98.05C180.085 98.05 180.535 98.0067 180.855 97.8145L180.238 96.7855ZM179.647 96.85C178.624 96.85 177.747 97.0405 177.126 97.5282L177.867 98.4718C178.18 98.2262 178.736 98.05 179.647 98.05V96.85ZM177.148 97.5118C176.571 97.9241 176.184 98.4764 176.015 99.1545L177.179 99.4455C177.276 99.0569 177.489 98.7426 177.845 98.4882L177.148 97.5118ZM176.008 99.1823C175.9 99.7264 175.831 100.428 175.797 101.276L176.996 101.324C177.029 100.505 177.094 99.8736 177.185 99.4177L176.008 99.1823ZM175.797 101.3V121.15H176.997V101.3H175.797ZM175.797 121.174C175.831 122.023 175.9 122.738 176.007 123.311L177.186 123.089C177.094 122.596 177.029 121.944 176.996 121.126L175.797 121.174ZM176.017 123.355C176.189 123.998 176.573 124.537 177.126 124.972L177.867 124.028C177.487 123.73 177.271 123.402 177.176 123.045L176.017 123.355ZM177.148 124.988C177.765 125.429 178.632 125.6 179.647 125.6V124.4C178.728 124.4 178.162 124.238 177.845 124.012L177.148 124.988ZM179.647 125.6H179.947V124.4H179.647V125.6ZM179.947 125.6C180.055 125.6 180.122 125.612 180.158 125.623C180.191 125.634 180.188 125.639 180.172 125.624L181.021 124.776C180.724 124.479 180.315 124.4 179.947 124.4V125.6ZM180.288 125.714C180.202 125.663 180.203 125.609 180.231 125.687C180.256 125.758 180.283 125.887 180.298 126.093L181.495 126.007C181.477 125.747 181.437 125.5 181.362 125.288C181.29 125.083 181.159 124.837 180.905 124.686L180.288 125.714ZM180.297 126.05C180.297 126.231 180.249 126.375 180.158 126.501L181.135 127.199C181.378 126.859 181.497 126.469 181.497 126.05H180.297ZM180.147 126.517C180.143 126.523 180.141 126.525 180.141 126.526C180.14 126.526 180.138 126.528 180.133 126.53C180.121 126.536 180.082 126.55 179.997 126.55V127.75C180.441 127.75 180.873 127.592 181.146 127.183L180.147 126.517ZM180.025 126.551C177.883 126.45 175.874 126.4 173.997 126.4V127.6C175.853 127.6 177.843 127.65 179.969 127.749L180.025 126.551ZM173.997 126.4C172.053 126.4 169.994 126.45 167.819 126.551L167.874 127.749C170.033 127.65 172.074 127.6 173.997 127.6V126.4ZM167.847 126.55C167.694 126.55 167.642 126.507 167.608 126.466L166.686 127.234C166.984 127.593 167.399 127.75 167.847 127.75V126.55ZM167.668 126.552C167.592 126.42 167.547 126.258 167.547 126.05H166.347C166.347 126.442 166.435 126.813 166.626 127.148L167.668 126.552ZM167.545 126.09C167.56 125.865 167.589 125.722 167.616 125.64C167.647 125.546 167.652 125.607 167.555 125.664L166.938 124.636C166.675 124.793 166.546 125.054 166.477 125.26C166.405 125.478 166.366 125.735 166.348 126.01L167.545 126.09ZM167.555 125.664C167.544 125.672 167.577 125.65 167.703 125.63C167.82 125.612 167.982 125.6 168.197 125.6V124.4C167.945 124.4 167.715 124.413 167.516 124.445C167.324 124.475 167.117 124.528 166.938 124.636L167.555 125.664ZM168.197 125.6C169.211 125.6 170.078 125.429 170.695 124.988L169.998 124.012C169.682 124.238 169.116 124.4 168.197 124.4V125.6ZM170.717 124.972C171.277 124.532 171.652 123.98 171.785 123.318L170.608 123.082C170.541 123.42 170.35 123.735 169.976 124.028L170.717 124.972ZM171.779 123.346C171.926 122.758 172.012 122.03 172.046 121.174L170.847 121.126C170.815 121.937 170.734 122.576 170.615 123.054L171.779 123.346ZM172.047 121.15V101.3H170.847V121.15H172.047ZM171.447 100.7H171.297V101.9H171.447V100.7ZM170.741 101.075L160.441 126.525L161.553 126.975L171.853 101.525L170.741 101.075ZM160.44 126.527C160.43 126.552 160.419 126.568 160.378 126.588C160.323 126.616 160.208 126.65 159.997 126.65V127.85C160.636 127.85 161.287 127.64 161.554 126.973L160.44 126.527ZM186.03 127.15V127.75H186.044L186.058 127.749L186.03 127.15ZM185.38 126.85L184.859 127.148L184.886 127.194L184.919 127.234L185.38 126.85ZM185.18 126.05L184.582 126.01L184.58 126.03V126.05H185.18ZM185.48 125.15L185.789 125.664L185.48 125.15ZM188.58 124.5L188.929 124.988L188.94 124.98L188.951 124.972L188.58 124.5ZM189.43 123.2L188.848 123.054L188.845 123.068L188.842 123.082L189.43 123.2ZM189.68 121.15L190.28 121.174L190.28 121.162V121.15H189.68ZM189.68 101.3H190.28V101.288L190.28 101.276L189.68 101.3ZM189.43 99.3L188.841 99.4106L188.845 99.4328L188.851 99.4546L189.43 99.3ZM188.58 98L188.21 98.4718L188.22 98.4803L188.232 98.4882L188.58 98ZM185.43 97.3L185.006 97.7243L185.036 97.7544L185.07 97.78L185.43 97.3ZM185.18 96.4H184.58V96.4214L184.582 96.4427L185.18 96.4ZM185.38 95.65L184.892 95.3013L184.886 95.3091L184.881 95.3172L185.38 95.65ZM186.03 95.3L186.058 94.7006L186.044 94.7H186.03V95.3ZM208.98 96.65H208.38L208.38 96.6629L208.98 96.65ZM209.13 103.65H209.73L209.73 103.637L209.13 103.65ZM208.68 104.4L208.972 104.924L208.993 104.913L209.013 104.899L208.68 104.4ZM206.73 104.45L206.439 104.974L206.462 104.987L206.487 104.998L206.73 104.45ZM206.23 103.75L206.827 103.684L206.825 103.668L206.822 103.653L206.23 103.75ZM205.33 100.05L204.763 100.246L204.768 100.26L204.773 100.273L205.33 100.05ZM203.93 98.15L203.579 98.6364L203.594 98.6473L203.61 98.6573L203.93 98.15ZM201.33 97.45L201.348 96.8503L201.339 96.85H201.33V97.45ZM194.63 97.45V96.85H194.03V97.45H194.63ZM194.63 110.15H194.03V110.75H194.63V110.15ZM203.68 110.15L203.765 109.556L203.723 109.55H203.68V110.15ZM204.23 110.55L203.709 110.848L203.72 110.866L203.731 110.883L204.23 110.55ZM194.63 112.3V111.7H194.03V112.3H194.63ZM194.63 121.75H194.03V121.779L194.033 121.807L194.63 121.75ZM194.88 123.45L194.296 123.585L194.298 123.596L194.88 123.45ZM195.78 124.55L196.113 124.051L195.78 124.55ZM198.13 125V124.4H198.121L198.112 124.4L198.13 125ZM202.73 125V125.6H202.739L202.747 125.6L202.73 125ZM205.38 124.45L205.672 124.974L205.683 124.968L205.693 124.962L205.38 124.45ZM206.78 122.8L206.244 122.532L206.239 122.542L206.234 122.552L206.78 122.8ZM208.08 119.2L207.521 118.983L207.512 119.005L207.506 119.028L208.08 119.2ZM209.78 118.5L209.898 117.912L209.883 117.909L209.868 117.906L209.78 118.5ZM210.63 118.9L210.24 119.356L210.255 119.368L210.27 119.38L210.63 118.9ZM210.98 119.65L211.573 119.744L211.575 119.73L211.577 119.716L210.98 119.65ZM209.98 125.95L210.565 126.085L210.57 126.065L210.573 126.044L209.98 125.95ZM186.03 126.55C185.937 126.55 185.891 126.525 185.841 126.466L184.919 127.234C185.203 127.575 185.591 127.75 186.03 127.75V126.55ZM185.901 126.552C185.826 126.42 185.78 126.258 185.78 126.05H184.58C184.58 126.442 184.668 126.813 184.859 127.148L185.901 126.552ZM185.779 126.09C185.794 125.865 185.822 125.722 185.849 125.64C185.881 125.546 185.885 125.607 185.789 125.664L185.172 124.636C184.909 124.793 184.78 125.054 184.711 125.26C184.638 125.478 184.6 125.735 184.582 126.01L185.779 126.09ZM185.789 125.664C185.777 125.672 185.811 125.65 185.936 125.63C186.053 125.612 186.216 125.6 186.43 125.6V124.4C186.178 124.4 185.949 124.413 185.749 124.445C185.558 124.475 185.35 124.528 185.172 124.636L185.789 125.664ZM186.43 125.6C187.445 125.6 188.312 125.429 188.929 124.988L188.232 124.012C187.915 124.238 187.349 124.4 186.43 124.4V125.6ZM188.951 124.972C189.511 124.532 189.886 123.98 190.019 123.318L188.842 123.082C188.774 123.42 188.583 123.735 188.21 124.028L188.951 124.972ZM190.012 123.346C190.159 122.758 190.246 122.03 190.28 121.174L189.081 121.126C189.048 121.937 188.968 122.576 188.848 123.054L190.012 123.346ZM190.28 121.15V101.3H189.08V121.15H190.28ZM190.28 101.276C190.246 100.422 190.159 99.7059 190.01 99.1454L188.851 99.4546C188.968 99.8941 189.048 100.511 189.081 101.324L190.28 101.276ZM190.02 99.1894C189.89 98.4945 189.514 97.9295 188.929 97.5118L188.232 98.4882C188.58 98.7372 188.771 99.0388 188.841 99.4106L190.02 99.1894ZM188.951 97.5282C188.33 97.0405 187.453 96.85 186.43 96.85V98.05C187.341 98.05 187.897 98.2262 188.21 98.4718L188.951 97.5282ZM186.43 96.85H186.13V98.05H186.43V96.85ZM186.13 96.85C185.991 96.85 185.894 96.8393 185.831 96.8258C185.765 96.8117 185.764 96.8005 185.79 96.82L185.07 97.78C185.37 98.0045 185.776 98.05 186.13 98.05V96.85ZM185.855 96.8757C185.894 96.9153 185.876 96.9224 185.846 96.8144C185.819 96.7169 185.794 96.5685 185.779 96.3572L184.582 96.4427C184.6 96.6982 184.633 96.9331 184.69 97.1356C184.743 97.3276 184.833 97.5513 185.006 97.7243L185.855 96.8757ZM185.78 96.4C185.78 96.189 185.827 96.0623 185.88 95.9828L184.881 95.3172C184.667 95.6377 184.58 96.011 184.58 96.4H185.78ZM185.869 95.9987C185.932 95.9092 185.974 95.9 186.03 95.9V94.7C185.553 94.7 185.161 94.9242 184.892 95.3013L185.869 95.9987ZM186.003 95.8994C188.21 95.9997 190.203 96.05 191.98 96.05V94.85C190.225 94.85 188.251 94.8003 186.058 94.7006L186.003 95.8994ZM191.98 96.05H207.68V94.85H191.98V96.05ZM207.68 96.05C208.033 96.05 208.185 96.1323 208.248 96.1909C208.303 96.2411 208.38 96.3554 208.38 96.65H209.58C209.58 96.1446 209.441 95.6589 209.062 95.3091C208.692 94.9677 208.195 94.85 207.68 94.85V96.05ZM208.38 96.6629L208.53 103.663L209.73 103.637L209.58 96.6371L208.38 96.6629ZM208.53 103.65C208.53 103.707 208.519 103.786 208.347 103.901L209.013 104.899C209.441 104.614 209.73 104.193 209.73 103.65H208.53ZM208.389 103.876C208.165 104 207.964 104.05 207.78 104.05V105.25C208.196 105.25 208.596 105.133 208.972 104.924L208.389 103.876ZM207.78 104.05C207.446 104.05 207.182 103.994 206.974 103.902L206.487 104.998C206.878 105.172 207.314 105.25 207.78 105.25V104.05ZM207.022 103.926C206.865 103.838 206.835 103.762 206.827 103.684L205.634 103.816C205.692 104.338 205.996 104.728 206.439 104.974L207.022 103.926ZM206.822 103.653C206.554 102.006 206.245 100.722 205.887 99.8272L204.773 100.273C205.082 101.045 205.374 102.227 205.638 103.847L206.822 103.653ZM205.897 99.8537C205.563 98.8881 205.023 98.1306 204.251 97.6427L203.61 98.6573C204.104 98.9694 204.498 99.4785 204.763 100.246L205.897 99.8537ZM204.282 97.6636C203.545 97.1317 202.542 96.8854 201.348 96.8503L201.313 98.0497C202.385 98.0813 203.115 98.3016 203.579 98.6364L204.282 97.6636ZM201.33 96.85H194.63V98.05H201.33V96.85ZM194.03 97.45V110.15H195.23V97.45H194.03ZM194.63 110.75H203.68V109.55H194.63V110.75ZM203.595 110.744C203.618 110.747 203.653 110.75 203.709 110.848L204.751 110.252C204.541 109.884 204.209 109.619 203.765 109.556L203.595 110.744ZM203.731 110.883C203.784 110.962 203.83 111.089 203.83 111.3H205.03C205.03 110.911 204.943 110.538 204.73 110.217L203.731 110.883ZM203.83 111.3C203.83 111.462 203.792 111.576 203.731 111.667L204.73 112.333C204.936 112.024 205.03 111.672 205.03 111.3H203.83ZM203.731 111.667C203.72 111.684 203.712 111.692 203.708 111.696C203.705 111.699 203.704 111.699 203.705 111.698C203.707 111.697 203.708 111.697 203.706 111.698C203.704 111.698 203.696 111.7 203.68 111.7V112.9C204.121 112.9 204.489 112.694 204.73 112.333L203.731 111.667ZM203.68 111.7H194.63V112.9H203.68V111.7ZM194.03 112.3V121.75H195.23V112.3H194.03ZM194.033 121.807C194.101 122.52 194.187 123.116 194.296 123.585L195.465 123.315C195.373 122.918 195.293 122.38 195.228 121.693L194.033 121.807ZM194.298 123.596C194.448 124.194 194.879 124.67 195.447 125.049L196.113 124.051C195.681 123.763 195.513 123.505 195.462 123.304L194.298 123.596ZM195.447 125.049C196.105 125.488 197.043 125.634 198.149 125.6L198.112 124.4C197.084 124.432 196.456 124.279 196.113 124.051L195.447 125.049ZM198.13 125.6H202.73V124.4H198.13V125.6ZM202.747 125.6C203.951 125.565 204.948 125.377 205.672 124.974L205.089 123.926C204.613 124.19 203.842 124.368 202.713 124.4L202.747 125.6ZM205.693 124.962C206.41 124.524 206.951 123.874 207.326 123.048L206.234 122.552C205.943 123.192 205.551 123.643 205.067 123.938L205.693 124.962ZM207.317 123.068C207.708 122.286 208.154 121.044 208.655 119.372L207.506 119.028C207.007 120.689 206.586 121.847 206.244 122.532L207.317 123.068ZM208.639 119.417C208.7 119.262 208.786 119.181 208.909 119.13C209.055 119.07 209.301 119.036 209.692 119.094L209.868 117.906C209.36 117.831 208.872 117.847 208.452 118.02C208.008 118.203 207.694 118.538 207.521 118.983L208.639 119.417ZM209.663 119.088C209.906 119.137 210.093 119.229 210.24 119.356L211.021 118.444C210.701 118.171 210.321 117.996 209.898 117.912L209.663 119.088ZM210.27 119.38C210.388 119.469 210.391 119.52 210.384 119.584L211.577 119.716C211.636 119.18 211.405 118.731 210.99 118.42L210.27 119.38ZM210.388 119.556L209.388 125.856L210.573 126.044L211.573 119.744L210.388 119.556ZM209.396 125.815C209.353 125.999 209.306 126.125 209.262 126.207C209.219 126.289 209.191 126.305 209.197 126.301L209.863 127.299C210.262 127.033 210.457 126.554 210.565 126.085L209.396 125.815ZM209.197 126.301C209.152 126.331 208.972 126.4 208.53 126.4V127.6C209.022 127.6 209.508 127.536 209.863 127.299L209.197 126.301ZM208.53 126.4H192.03V127.6H208.53V126.4ZM192.03 126.4C190.219 126.4 188.21 126.45 186.003 126.551L186.058 127.749C188.25 127.65 190.241 127.6 192.03 127.6V126.4Z" fill="white"/>
<circle cx="122.5" cy="110.5" r="17.15" stroke="white" stroke-width="2.7"/>
<path d="M131.65 110.5C131.65 115.419 130.516 119.805 128.751 122.915C126.963 126.065 124.701 127.65 122.5 127.65C120.299 127.65 118.037 126.065 116.249 122.915C114.484 119.805 113.35 115.419 113.35 110.5C113.35 105.581 114.484 101.195 116.249 98.0849C118.037 94.9352 120.299 93.35 122.5 93.35C124.701 93.35 126.963 94.9352 128.751 98.0849C130.516 101.195 131.65 105.581 131.65 110.5Z" stroke="white" stroke-width="2.7"/>
<rect x="108" y="99.7" width="29" height="2" fill="white"/>
<rect x="108" y="119.2" width="29" height="2" fill="white"/>
<rect x="106" y="109.5" width="33" height="2" fill="white"/>
<rect x="121.5" y="128" width="35" height="2" transform="rotate(-90 121.5 128)" fill="white"/>
<path d="M21 73.5H10L115 6L220 73.5H209L114.5 12.5L21 73.5Z" fill="white"/>
</svg>
