<svg width="230" height="190" viewBox="0 0 230 190" fill="none" xmlns="http://www.w3.org/2000/svg">
<rect width="230" height="190" rx="5" fill="#0D1117"/>
<path d="M59.9929 170L57.1129 165.95C56.7889 165.986 56.4529 166.004 56.1049 166.004H52.7209V170H51.3889V157.4H56.1049C57.7129 157.4 58.9729 157.784 59.8849 158.552C60.7969 159.32 61.2529 160.376 61.2529 161.72C61.2529 162.704 61.0009 163.538 60.4969 164.222C60.0049 164.894 59.2969 165.38 58.3729 165.68L61.4509 170H59.9929ZM56.0689 164.87C57.3169 164.87 58.2709 164.594 58.9309 164.042C59.5909 163.49 59.9209 162.716 59.9209 161.72C59.9209 160.7 59.5909 159.92 58.9309 159.38C58.2709 158.828 57.3169 158.552 56.0689 158.552H52.7209V164.87H56.0689ZM73.3067 168.848V170H64.3967V157.4H73.0367V158.552H65.7287V163.034H72.2447V164.168H65.7287V168.848H73.3067ZM86.9677 157.4V170H85.8697L77.7697 159.776V170H76.4377V157.4H77.5357L85.6537 167.624V157.4H86.9677ZM93.5283 158.552H89.1003V157.4H99.2883V158.552H94.8603V170H93.5283V158.552ZM114.029 166.634H107.009L105.497 170H104.111L109.871 157.4H111.185L116.945 170H115.541L114.029 166.634ZM113.543 165.554L110.519 158.786L107.495 165.554H113.543ZM134.27 157.4V170H132.956V164.186H125.072V170H123.74V157.4H125.072V163.016H132.956V157.4H134.27ZM143.891 170.108C142.643 170.108 141.509 169.832 140.489 169.28C139.481 168.716 138.689 167.948 138.113 166.976C137.549 166.004 137.267 164.912 137.267 163.7C137.267 162.488 137.549 161.396 138.113 160.424C138.689 159.452 139.481 158.69 140.489 158.138C141.509 157.574 142.643 157.292 143.891 157.292C145.139 157.292 146.261 157.568 147.257 158.12C148.265 158.672 149.057 159.44 149.633 160.424C150.209 161.396 150.497 162.488 150.497 163.7C150.497 164.912 150.209 166.01 149.633 166.994C149.057 167.966 148.265 168.728 147.257 169.28C146.261 169.832 145.139 170.108 143.891 170.108ZM143.891 168.92C144.887 168.92 145.787 168.698 146.591 168.254C147.395 167.798 148.025 167.174 148.481 166.382C148.937 165.578 149.165 164.684 149.165 163.7C149.165 162.716 148.937 161.828 148.481 161.036C148.025 160.232 147.395 159.608 146.591 159.164C145.787 158.708 144.887 158.48 143.891 158.48C142.895 158.48 141.989 158.708 141.173 159.164C140.369 159.608 139.733 160.232 139.265 161.036C138.809 161.828 138.581 162.716 138.581 163.7C138.581 164.684 138.809 165.578 139.265 166.382C139.733 167.174 140.369 167.798 141.173 168.254C141.989 168.698 142.895 168.92 143.891 168.92ZM166.569 157.4V170H165.291V159.92L160.341 168.398H159.711L154.761 159.974V170H153.483V157.4H154.581L160.053 166.742L165.471 157.4H166.569ZM179.584 168.848V170H170.674V157.4H179.314V158.552H172.006V163.034H178.522V164.168H172.006V168.848H179.584Z" fill="white"/>
<path d="M19.3322 129.15C19.0322 129.15 18.7989 129.05 18.6322 128.85C18.4989 128.617 18.4322 128.35 18.4322 128.05C18.4656 127.55 18.5656 127.25 18.7322 127.15C18.8989 127.05 19.2156 127 19.6822 127C20.6489 127 21.3656 126.833 21.8322 126.5C22.2989 126.133 22.5822 125.7 22.6822 125.2C22.8156 124.667 22.8989 123.983 22.9322 123.15V103.35C22.8989 102.483 22.8156 101.8 22.6822 101.3C22.5822 100.8 22.2989 100.367 21.8322 100C21.3656 99.6333 20.6489 99.45 19.6822 99.45H19.3822C19.0489 99.45 18.8156 99.4 18.6822 99.3C18.5489 99.1667 18.4656 98.8667 18.4322 98.4C18.4322 98.1 18.4989 97.85 18.6322 97.65C18.7989 97.4167 19.0322 97.3 19.3322 97.3C21.4989 97.4 23.4822 97.45 25.2822 97.45H33.8822C36.4489 97.4833 38.5822 97.9 40.2822 98.7C42.0156 99.4667 43.2822 100.467 44.0822 101.7C44.8822 102.9 45.2822 104.2 45.2822 105.6C45.2822 107.433 44.5489 109.117 43.0822 110.65C41.6489 112.183 39.6822 113.283 37.1822 113.95L38.0322 115.3C39.4322 117.567 40.6989 119.517 41.8322 121.15C42.9656 122.75 44.1989 124.25 45.5322 125.65C46.4656 126.417 47.4656 126.867 48.5322 127C48.5989 127 48.7489 127.017 48.9822 127.05C49.2156 127.05 49.3989 127.133 49.5322 127.3C49.6989 127.467 49.7822 127.717 49.7822 128.05C49.7822 128.35 49.6989 128.617 49.5322 128.85C49.3989 129.05 49.1822 129.15 48.8822 129.15L47.5822 129.1C46.1156 129.033 45.0489 129 44.3822 129C43.0489 128.733 41.8989 128.267 40.9322 127.6C39.9989 126.9 39.0656 125.917 38.1322 124.65C37.1656 123.383 35.8156 121.317 34.0822 118.45L33.1822 117C32.6822 116.233 32.1989 115.717 31.7322 115.45C31.2656 115.15 30.4656 115 29.3322 115H27.8822V123.15C27.9156 123.983 27.9822 124.667 28.0822 125.2C28.2156 125.7 28.5156 126.133 28.9822 126.5C29.4489 126.833 30.1656 127 31.1322 127H31.4322C31.7322 127 31.9489 127.067 32.0822 127.2C32.2489 127.3 32.3489 127.583 32.3822 128.05C32.3822 128.35 32.2989 128.617 32.1322 128.85C31.9989 129.05 31.7822 129.15 31.4822 129.15C29.3489 129.05 27.2656 129 25.2322 129C23.4656 129 21.4989 129.05 19.3322 129.15ZM32.2822 113.05C37.2489 113.05 39.7322 110.717 39.7322 106.05C39.7322 104.15 39.0822 102.55 37.7822 101.25C36.4822 99.95 34.3489 99.3 31.3822 99.3C30.4156 99.3 29.6822 99.4167 29.1822 99.65C28.6822 99.8833 28.3322 100.283 28.1322 100.85C27.9656 101.417 27.8822 102.283 27.8822 103.45V113.05H32.2822ZM52.61 119.05C52.2766 119.05 51.9933 118.883 51.76 118.55C51.56 118.183 51.46 117.817 51.46 117.45C51.46 117.083 51.56 116.733 51.76 116.4C51.9933 116.033 52.2766 115.85 52.61 115.85H63.56C63.8933 115.85 64.16 116.033 64.36 116.4C64.5933 116.733 64.71 117.083 64.71 117.45C64.71 117.817 64.5933 118.183 64.36 118.55C64.16 118.883 63.8933 119.05 63.56 119.05H52.61ZM69.3811 129.15C69.0811 129.15 68.8477 129.05 68.6811 128.85C68.5477 128.617 68.4811 128.35 68.4811 128.05C68.5144 127.55 68.6144 127.25 68.7811 127.15C68.9477 127.05 69.2644 127 69.7311 127C70.6977 127 71.4144 126.833 71.8811 126.5C72.3477 126.133 72.6311 125.7 72.7311 125.2C72.8644 124.667 72.9477 123.983 72.9811 123.15V103.3C72.9477 102.467 72.8644 101.8 72.7311 101.3C72.6311 100.767 72.3477 100.333 71.8811 100C71.4144 99.6333 70.6977 99.45 69.7311 99.45H69.4311C69.0977 99.45 68.8644 99.4 68.7311 99.3C68.5977 99.1667 68.5144 98.8667 68.4811 98.4C68.4811 98.1 68.5477 97.85 68.6811 97.65C68.8477 97.4167 69.0811 97.3 69.3811 97.3C71.5477 97.4 73.5144 97.45 75.2811 97.45C77.2811 97.45 79.3644 97.4 81.5311 97.3C81.8311 97.3 82.0477 97.4167 82.1811 97.65C82.3477 97.85 82.4311 98.1 82.4311 98.4C82.3977 98.9 82.2977 99.2 82.1311 99.3C81.9644 99.4 81.6477 99.45 81.1811 99.45C80.2144 99.45 79.4977 99.6333 79.0311 100C78.5644 100.333 78.2644 100.767 78.1311 101.3C78.0311 101.8 77.9644 102.467 77.9311 103.3V112.15H93.6311V103.3C93.5977 102.467 93.5144 101.8 93.3811 101.3C93.2811 100.767 92.9977 100.333 92.5311 100C92.0644 99.6333 91.3477 99.45 90.3811 99.45H90.0811C89.7477 99.45 89.4977 99.4 89.3311 99.3C89.1977 99.1667 89.1144 98.8667 89.0811 98.4C89.0811 98.1 89.1644 97.85 89.3311 97.65C89.4977 97.4167 89.7144 97.3 89.9811 97.3C92.1477 97.4 94.2311 97.45 96.2311 97.45C98.0644 97.45 100.048 97.4 102.181 97.3C102.481 97.3 102.698 97.4167 102.831 97.65C102.998 97.85 103.081 98.1 103.081 98.4C103.048 98.9 102.931 99.2 102.731 99.3C102.564 99.4 102.264 99.45 101.831 99.45C100.864 99.45 100.131 99.6333 99.6311 100C99.1644 100.333 98.8644 100.767 98.7311 101.3C98.6311 101.8 98.5644 102.467 98.5311 103.3V123.15C98.5644 123.983 98.6311 124.667 98.7311 125.2C98.8644 125.7 99.1644 126.133 99.6311 126.5C100.131 126.833 100.864 127 101.831 127H102.131C102.431 127 102.648 127.067 102.781 127.2C102.948 127.3 103.048 127.583 103.081 128.05C103.081 128.35 102.998 128.617 102.831 128.85C102.698 129.05 102.481 129.15 102.181 129.15C100.048 129.05 98.0477 129 96.1811 129C94.2144 129 92.1477 129.05 89.9811 129.15C89.7144 129.15 89.4977 129.05 89.3311 128.85C89.1644 128.617 89.0811 128.35 89.0811 128.05C89.1144 127.55 89.2144 127.25 89.3811 127.15C89.5811 127.05 89.9144 127 90.3811 127C91.3477 127 92.0644 126.833 92.5311 126.5C92.9977 126.133 93.2811 125.7 93.3811 125.2C93.5144 124.667 93.5977 123.983 93.6311 123.15V114.3H77.9311V123.15C77.9644 123.983 78.0311 124.667 78.1311 125.2C78.2644 125.7 78.5644 126.133 79.0311 126.5C79.4977 126.833 80.2144 127 81.1811 127H81.4811C81.8144 127 82.0477 127.067 82.1811 127.2C82.3144 127.3 82.3977 127.583 82.4311 128.05C82.4311 128.35 82.3477 128.617 82.1811 128.85C82.0477 129.05 81.8311 129.15 81.5311 129.15C79.3977 129.05 77.3311 129 75.3311 129C73.5311 129 71.5477 129.05 69.3811 129.15ZM159.997 129.25C159.497 129.25 159.147 129.083 158.947 128.75L147.697 103.3H147.547L147.647 123.15C147.68 124.05 147.747 124.75 147.847 125.25C147.947 125.717 148.213 126.133 148.647 126.5C149.113 126.833 149.83 127 150.797 127H151.097C151.43 127 151.663 127.067 151.797 127.2C151.963 127.3 152.063 127.583 152.097 128.05C152.097 128.35 152.013 128.617 151.847 128.85C151.713 129.05 151.497 129.15 151.197 129.15L149.947 129.1C148.413 129.033 147.313 129 146.647 129C145.513 129 143.863 129.05 141.697 129.15C141.397 129.15 141.163 129.05 140.997 128.85C140.863 128.617 140.797 128.35 140.797 128.05C140.83 127.55 140.93 127.25 141.097 127.15C141.263 127.05 141.58 127 142.047 127C143.013 127 143.713 126.833 144.147 126.5C144.613 126.133 144.897 125.717 144.997 125.25C145.097 124.75 145.163 124.05 145.197 123.15L145.297 103.3C145.297 102.267 145.18 101.5 144.947 101C144.713 100.467 144.363 100.1 143.897 99.9C143.463 99.6667 142.813 99.4667 141.947 99.3C141.813 99.2667 141.613 99.2333 141.347 99.2C141.08 99.1333 140.897 99.0333 140.797 98.9C140.73 98.7333 140.697 98.4833 140.697 98.15C140.697 97.75 140.797 97.4833 140.997 97.35C141.23 97.2167 141.58 97.15 142.047 97.15C144.013 97.15 145.63 97.2833 146.897 97.55C148.163 97.7833 149.263 98.2833 150.197 99.05C151.163 99.8167 151.963 100.95 152.597 102.45L161.197 121.75H161.347L171.197 97.45H174.047C175.88 97.45 177.863 97.4 179.997 97.3C180.297 97.3 180.513 97.4167 180.647 97.65C180.813 97.85 180.897 98.1 180.897 98.4C180.863 98.9 180.747 99.2 180.547 99.3C180.38 99.4 180.08 99.45 179.647 99.45C178.68 99.45 177.963 99.6333 177.497 100C177.03 100.333 176.73 100.767 176.597 101.3C176.497 101.8 176.43 102.467 176.397 103.3V123.15C176.43 123.983 176.497 124.667 176.597 125.2C176.73 125.7 177.03 126.133 177.497 126.5C177.963 126.833 178.68 127 179.647 127H179.947C180.247 127 180.463 127.067 180.597 127.2C180.763 127.3 180.863 127.583 180.897 128.05C180.897 128.35 180.813 128.617 180.647 128.85C180.513 129.05 180.297 129.15 179.997 129.15C177.863 129.05 175.863 129 173.997 129C172.063 129 170.013 129.05 167.847 129.15C167.547 129.15 167.313 129.05 167.147 128.85C167.013 128.617 166.947 128.35 166.947 128.05C166.98 127.55 167.08 127.25 167.247 127.15C167.413 127.05 167.73 127 168.197 127C169.163 127 169.88 126.833 170.347 126.5C170.813 126.133 171.097 125.7 171.197 125.2C171.33 124.667 171.413 123.983 171.447 123.15V103.3H171.297L160.997 128.75C160.863 129.083 160.53 129.25 159.997 129.25ZM186.03 129.15C185.764 129.15 185.547 129.05 185.38 128.85C185.247 128.617 185.18 128.35 185.18 128.05C185.214 127.55 185.314 127.25 185.48 127.15C185.647 127.05 185.964 127 186.43 127C187.397 127 188.114 126.833 188.58 126.5C189.047 126.133 189.33 125.7 189.43 125.2C189.564 124.667 189.647 123.983 189.68 123.15V103.3C189.647 102.467 189.564 101.8 189.43 101.3C189.33 100.767 189.047 100.333 188.58 100C188.114 99.6333 187.397 99.45 186.43 99.45H186.13C185.797 99.45 185.564 99.4 185.43 99.3C185.297 99.1667 185.214 98.8667 185.18 98.4C185.18 98.1 185.247 97.85 185.38 97.65C185.547 97.4167 185.764 97.3 186.03 97.3C188.23 97.4 190.214 97.45 191.98 97.45H207.68C208.547 97.45 208.98 97.85 208.98 98.65L209.13 105.65C209.13 105.95 208.98 106.2 208.68 106.4C208.38 106.567 208.08 106.65 207.78 106.65C207.38 106.65 207.03 106.583 206.73 106.45C206.43 106.283 206.264 106.05 206.23 105.75C205.964 104.117 205.664 102.883 205.33 102.05C205.03 101.183 204.564 100.55 203.93 100.15C203.33 99.7167 202.464 99.4833 201.33 99.45H194.63V112.15H203.68C203.914 112.183 204.097 112.317 204.23 112.55C204.364 112.75 204.43 113 204.43 113.3C204.43 113.567 204.364 113.8 204.23 114C204.097 114.2 203.914 114.3 203.68 114.3H194.63V123.75C194.697 124.45 194.78 125.017 194.88 125.45C194.98 125.85 195.28 126.217 195.78 126.55C196.28 126.883 197.064 127.033 198.13 127H202.73C203.897 126.967 204.78 126.783 205.38 126.45C205.98 126.083 206.447 125.533 206.78 124.8C207.147 124.067 207.58 122.867 208.08 121.2C208.314 120.6 208.88 120.367 209.78 120.5C210.114 120.567 210.397 120.7 210.63 120.9C210.897 121.1 211.014 121.35 210.98 121.65L209.98 127.95C209.88 128.383 209.73 128.667 209.53 128.8C209.33 128.933 208.997 129 208.53 129H192.03C190.23 129 188.23 129.05 186.03 129.15Z" fill="white"/>
<path d="M19.3322 129.15V129.75H19.3461L19.3599 129.749L19.3322 129.15ZM18.6322 128.85L18.1113 129.148L18.1375 129.194L18.1713 129.234L18.6322 128.85ZM18.4322 128.05L17.8336 128.01L17.8322 128.03V128.05H18.4322ZM18.7322 127.15L19.0409 127.664H19.0409L18.7322 127.15ZM21.8322 126.5L22.181 126.988L22.1921 126.98L22.2029 126.972L21.8322 126.5ZM22.6822 125.2L22.1001 125.054L22.0967 125.068L22.0939 125.082L22.6822 125.2ZM22.9322 123.15L23.5317 123.174L23.5322 123.162V123.15H22.9322ZM22.9322 103.35H23.5322V103.338L23.5318 103.327L22.9322 103.35ZM22.6822 101.3L22.0939 101.418L22.0976 101.436L22.1025 101.455L22.6822 101.3ZM21.8322 100L22.2029 99.5282L22.2029 99.5282L21.8322 100ZM18.6822 99.3L18.258 99.7243L18.2881 99.7544L18.3222 99.78L18.6822 99.3ZM18.4322 98.4H17.8322V98.4214L17.8338 98.4427L18.4322 98.4ZM18.6322 97.65L18.144 97.3013L18.1384 97.3091L18.133 97.3172L18.6322 97.65ZM19.3322 97.3L19.3599 96.7006L19.3461 96.7H19.3322V97.3ZM33.8822 97.45L33.89 96.85H33.8822V97.45ZM40.2822 98.7L40.0267 99.243L40.0395 99.2487L40.2822 98.7ZM44.0822 101.7L43.5788 102.027L43.583 102.033L44.0822 101.7ZM43.0822 110.65L42.6486 110.235L42.6439 110.24L43.0822 110.65ZM37.1822 113.95L37.0276 113.37L36.2404 113.58L36.6745 114.27L37.1822 113.95ZM38.0322 115.3L38.5427 114.985L38.54 114.98L38.0322 115.3ZM41.8322 121.15L41.3393 121.492L41.3426 121.497L41.8322 121.15ZM45.5322 125.65L45.0977 126.064L45.123 126.09L45.1514 126.114L45.5322 125.65ZM48.5322 127L48.4578 127.595L48.4949 127.6H48.5322V127ZM48.9822 127.05L48.8974 127.644L48.9396 127.65H48.9822V127.05ZM49.5322 127.3L49.0637 127.675L49.0845 127.701L49.108 127.724L49.5322 127.3ZM49.5322 128.85L49.044 128.501L49.0384 128.509L49.033 128.517L49.5322 128.85ZM48.8822 129.15L48.8592 129.75L48.8707 129.75H48.8822V129.15ZM47.5822 129.1L47.555 129.699L47.5592 129.7L47.5822 129.1ZM44.3822 129L44.2646 129.588L44.3228 129.6H44.3822V129ZM40.9322 127.6L40.5722 128.08L40.5818 128.087L40.5916 128.094L40.9322 127.6ZM38.1322 124.65L38.6153 124.294L38.6092 124.286L38.1322 124.65ZM34.0822 118.45L34.5957 118.14L34.592 118.134L34.0822 118.45ZM33.1822 117L33.6921 116.684L33.6848 116.672L33.1822 117ZM31.7322 115.45L31.4078 115.955L31.4209 115.963L31.4345 115.971L31.7322 115.45ZM27.8822 115V114.4H27.2822V115H27.8822ZM27.8822 123.15H27.2822V123.162L27.2827 123.174L27.8822 123.15ZM28.0822 125.2L27.4925 125.311L27.4967 125.333L27.5025 125.355L28.0822 125.2ZM28.9822 126.5L28.6115 126.972L28.6223 126.98L28.6335 126.988L28.9822 126.5ZM32.0822 127.2L31.658 127.624L31.7102 127.676L31.7735 127.714L32.0822 127.2ZM32.3822 128.05H32.9822V128.029L32.9807 128.007L32.3822 128.05ZM32.1322 128.85L31.644 128.501L31.6384 128.509L31.633 128.517L32.1322 128.85ZM31.4822 129.15L31.4541 129.749L31.4682 129.75H31.4822V129.15ZM37.7822 101.25L37.358 101.674H37.358L37.7822 101.25ZM29.1822 99.65L29.436 100.194L29.436 100.194L29.1822 99.65ZM28.1322 100.85L27.5664 100.65L27.5611 100.665L27.5566 100.681L28.1322 100.85ZM27.8822 113.05H27.2822V113.65H27.8822V113.05ZM19.3322 128.55C19.18 128.55 19.1278 128.507 19.0932 128.466L18.1713 129.234C18.47 129.593 18.8845 129.75 19.3322 129.75V128.55ZM19.1532 128.552C19.0775 128.42 19.0322 128.258 19.0322 128.05H17.8322C17.8322 128.442 17.9203 128.813 18.1113 129.148L19.1532 128.552ZM19.0309 128.09C19.0459 127.865 19.0742 127.722 19.1014 127.64C19.1327 127.546 19.1371 127.607 19.0409 127.664L18.4235 126.636C18.1607 126.793 18.0318 127.054 17.963 127.26C17.8903 127.478 17.8519 127.735 17.8336 128.01L19.0309 128.09ZM19.0409 127.664C19.0291 127.672 19.063 127.65 19.1883 127.63C19.3052 127.612 19.4675 127.6 19.6822 127.6V126.4C19.4303 126.4 19.2009 126.413 19.0011 126.445C18.8097 126.475 18.6021 126.528 18.4235 126.636L19.0409 127.664ZM19.6822 127.6C20.6967 127.6 21.5639 127.429 22.181 126.988L21.4835 126.012C21.1672 126.238 20.6011 126.4 19.6822 126.4V127.6ZM22.2029 126.972C22.7626 126.532 23.138 125.98 23.2706 125.318L22.0939 125.082C22.0264 125.42 21.8352 125.735 21.4615 126.028L22.2029 126.972ZM23.2643 125.346C23.4113 124.758 23.4975 124.03 23.5317 123.174L22.3327 123.126C22.3003 123.937 22.2198 124.576 22.1001 125.054L23.2643 125.346ZM23.5322 123.15V103.35H22.3322V123.15H23.5322ZM23.5318 103.327C23.4977 102.441 23.4119 101.708 23.262 101.145L22.1025 101.455C22.2193 101.892 22.3001 102.525 22.3327 103.373L23.5318 103.327ZM23.2706 101.182C23.138 100.52 22.7626 99.9679 22.2029 99.5282L21.4615 100.472C21.8352 100.765 22.0264 101.08 22.0939 101.418L23.2706 101.182ZM22.2029 99.5282C21.5822 99.0405 20.7052 98.85 19.6822 98.85V100.05C20.5926 100.05 21.1489 100.226 21.4615 100.472L22.2029 99.5282ZM19.6822 98.85H19.3822V100.05H19.6822V98.85ZM19.3822 98.85C19.2425 98.85 19.1456 98.8393 19.0829 98.8258C19.0172 98.8117 19.0162 98.8005 19.0422 98.82L18.3222 99.78C18.6215 100.004 19.0277 100.05 19.3822 100.05V98.85ZM19.1065 98.8757C19.1461 98.9153 19.1278 98.9224 19.0978 98.8144C19.0708 98.7169 19.0458 98.5685 19.0307 98.3572L17.8338 98.4427C17.852 98.6982 17.8854 98.9331 17.9416 99.1356C17.9949 99.3276 18.085 99.5513 18.258 99.7243L19.1065 98.8757ZM19.0322 98.4C19.0322 98.189 19.0785 98.0623 19.1315 97.9828L18.133 97.3172C17.9193 97.6377 17.8322 98.011 17.8322 98.4H19.0322ZM19.1205 97.9987C19.1685 97.9315 19.2154 97.9 19.3322 97.9V96.7C18.849 96.7 18.4293 96.9018 18.144 97.3013L19.1205 97.9987ZM19.3046 97.8994C21.4787 97.9997 23.4714 98.05 25.2822 98.05V96.85C23.4931 96.85 21.5191 96.8003 19.3599 96.7006L19.3046 97.8994ZM25.2822 98.05H33.8822V96.85H25.2822V98.05ZM33.8744 98.0499C36.385 98.0826 38.4272 98.4902 40.0267 99.2429L40.5377 98.1571C38.7373 97.3098 36.5128 96.8841 33.89 96.85L33.8744 98.0499ZM40.0395 99.2487C41.6967 99.9817 42.8583 100.916 43.5789 102.027L44.5856 101.373C43.7061 100.018 42.3344 98.9516 40.5249 98.1513L40.0395 99.2487ZM43.583 102.033C44.3194 103.137 44.6822 104.322 44.6822 105.6H45.8822C45.8822 104.078 45.4451 102.663 44.5815 101.367L43.583 102.033ZM44.6822 105.6C44.6822 107.255 44.0266 108.795 42.6486 110.235L43.5158 111.065C45.0712 109.439 45.8822 107.612 45.8822 105.6H44.6822ZM42.6439 110.24C41.3034 111.674 39.4443 112.726 37.0276 113.37L37.3368 114.53C39.9202 113.841 41.9943 112.692 43.5205 111.06L42.6439 110.24ZM36.6745 114.27L37.5245 115.62L38.54 114.98L37.69 113.63L36.6745 114.27ZM37.5217 115.615C38.9256 117.888 40.1982 119.848 41.3393 121.492L42.3252 120.808C41.1996 119.186 39.9389 117.245 38.5427 114.985L37.5217 115.615ZM41.3426 121.497C42.4924 123.12 43.7442 124.643 45.0977 126.064L45.9667 125.236C44.6536 123.857 43.4387 122.38 42.3218 120.803L41.3426 121.497ZM45.1514 126.114C46.1612 126.943 47.2651 127.446 48.4578 127.595L48.6067 126.405C47.666 126.287 46.7699 125.89 45.9131 125.186L45.1514 126.114ZM48.5322 127.6C48.5296 127.6 48.5551 127.601 48.6285 127.609C48.6948 127.616 48.7839 127.628 48.8974 127.644L49.0671 126.456C48.846 126.424 48.6502 126.4 48.5322 126.4V127.6ZM48.9822 127.65C49.0268 127.65 49.0442 127.658 49.0464 127.659C49.0481 127.659 49.0494 127.66 49.0511 127.662C49.0528 127.663 49.0572 127.667 49.0637 127.675L50.0007 126.925C49.742 126.602 49.3784 126.45 48.9822 126.45V127.65ZM49.108 127.724C49.1224 127.739 49.1822 127.809 49.1822 128.05H50.3822C50.3822 127.624 50.2754 127.195 49.9565 126.876L49.108 127.724ZM49.1822 128.05C49.1822 128.231 49.1345 128.375 49.044 128.501L50.0205 129.199C50.2633 128.859 50.3822 128.469 50.3822 128.05H49.1822ZM49.033 128.517C49.0288 128.523 49.0264 128.525 49.0261 128.526C49.0259 128.526 49.024 128.528 49.0183 128.53C49.0063 128.536 48.9671 128.55 48.8822 128.55V129.75C49.3264 129.75 49.7588 129.592 50.0315 129.183L49.033 128.517ZM48.9053 128.55L47.6053 128.5L47.5592 129.7L48.8592 129.75L48.9053 128.55ZM47.6095 128.501C46.1418 128.434 45.0635 128.4 44.3822 128.4V129.6C45.0343 129.6 46.0893 129.633 47.555 129.699L47.6095 128.501ZM44.4999 128.412C43.234 128.158 42.1626 127.72 41.2729 127.106L40.5916 128.094C41.6352 128.814 42.8638 129.308 44.2646 129.588L44.4999 128.412ZM41.2922 127.12C40.4188 126.465 39.5251 125.529 38.6153 124.294L37.6492 125.006C38.606 126.304 39.579 127.335 40.5722 128.08L41.2922 127.12ZM38.6092 124.286C37.6633 123.047 36.3272 121.003 34.5957 118.14L33.5688 118.76C35.3039 121.63 36.6678 123.72 37.6553 125.014L38.6092 124.286ZM34.592 118.134L33.692 116.684L32.6724 117.316L33.5724 118.766L34.592 118.134ZM33.6848 116.672C33.1646 115.875 32.6182 115.265 32.0299 114.929L31.4345 115.971C31.7796 116.168 32.1998 116.592 32.6797 117.328L33.6848 116.672ZM32.0567 114.945C31.435 114.546 30.4828 114.4 29.3322 114.4V115.6C30.4483 115.6 31.0961 115.754 31.4078 115.955L32.0567 114.945ZM29.3322 114.4H27.8822V115.6H29.3322V114.4ZM27.2822 115V123.15H28.4822V115H27.2822ZM27.2827 123.174C27.3167 124.023 27.3851 124.738 27.4925 125.311L28.672 125.089C28.5793 124.596 28.5145 123.944 28.4817 123.126L27.2827 123.174ZM27.5025 125.355C27.6741 125.998 28.0583 126.537 28.6115 126.972L29.3529 126.028C28.9728 125.73 28.757 125.402 28.662 125.045L27.5025 125.355ZM28.6335 126.988C29.2505 127.429 30.1177 127.6 31.1322 127.6V126.4C30.2134 126.4 29.6472 126.238 29.331 126.012L28.6335 126.988ZM31.1322 127.6H31.4322V126.4H31.1322V127.6ZM31.4322 127.6C31.5405 127.6 31.6072 127.612 31.6433 127.623C31.6769 127.634 31.6732 127.639 31.658 127.624L32.5065 126.776C32.2096 126.479 31.8006 126.4 31.4322 126.4V127.6ZM31.7735 127.714C31.687 127.663 31.6888 127.609 31.7164 127.687C31.7415 127.758 31.769 127.887 31.7838 128.093L32.9807 128.007C32.9621 127.747 32.9229 127.5 32.848 127.288C32.7757 127.083 32.6441 126.837 32.3909 126.686L31.7735 127.714ZM31.7822 128.05C31.7822 128.231 31.7345 128.375 31.644 128.501L32.6205 129.199C32.8633 128.859 32.9822 128.469 32.9822 128.05H31.7822ZM31.633 128.517C31.6288 128.523 31.6264 128.525 31.6261 128.526C31.6259 128.526 31.624 128.528 31.6183 128.53C31.6063 128.536 31.5671 128.55 31.4822 128.55V129.75C31.9264 129.75 32.3588 129.592 32.6315 129.183L31.633 128.517ZM31.5103 128.551C29.3681 128.45 27.2754 128.4 25.2322 128.4V129.6C27.2557 129.6 29.3297 129.65 31.4541 129.749L31.5103 128.551ZM25.2322 128.4C23.4545 128.4 21.4785 128.45 19.3046 128.551L19.3599 129.749C21.5193 129.65 23.4766 129.6 25.2322 129.6V128.4ZM32.2822 113.65C34.8491 113.65 36.8858 113.048 38.2806 111.737C39.6824 110.42 40.3322 108.486 40.3322 106.05H39.1322C39.1322 108.281 38.5404 109.847 37.4589 110.863C36.3703 111.886 34.6821 112.45 32.2822 112.45V113.65ZM40.3322 106.05C40.3322 103.997 39.6232 102.242 38.2065 100.826L37.358 101.674C38.5413 102.858 39.1322 104.303 39.1322 106.05H40.3322ZM38.2065 100.826C36.7416 99.3609 34.4144 98.7 31.3822 98.7V99.9C34.2834 99.9 36.2228 100.539 37.358 101.674L38.2065 100.826ZM31.3822 98.7C30.3842 98.7 29.5467 98.8178 28.9285 99.1063L29.436 100.194C29.8177 100.016 30.4469 99.9 31.3822 99.9V98.7ZM28.9285 99.1063C28.2687 99.4142 27.8148 99.9467 27.5664 100.65L28.698 101.05C28.8497 100.62 29.0957 100.352 29.436 100.194L28.9285 99.1063ZM27.5566 100.681C27.3648 101.333 27.2822 102.27 27.2822 103.45H28.4822C28.4822 102.296 28.5663 101.5 28.7078 101.019L27.5566 100.681ZM27.2822 103.45V113.05H28.4822V103.45H27.2822ZM27.8822 113.65H32.2822V112.45H27.8822V113.65ZM51.76 118.55L51.2332 118.837L51.2492 118.867L51.2684 118.894L51.76 118.55ZM51.76 116.4L51.2538 116.078L51.2495 116.085L51.2455 116.091L51.76 116.4ZM64.36 116.4L63.8332 116.687L63.8492 116.717L63.8684 116.744L64.36 116.4ZM64.36 118.55L63.8538 118.228L63.8495 118.235L63.8455 118.241L64.36 118.55ZM52.61 118.45C52.5167 118.45 52.4006 118.419 52.2515 118.206L51.2684 118.894C51.586 119.348 52.0366 119.65 52.61 119.65V118.45ZM52.2867 118.263C52.128 117.972 52.06 117.703 52.06 117.45H50.86C50.86 117.93 50.9919 118.395 51.2332 118.837L52.2867 118.263ZM52.06 117.45C52.06 117.199 52.1269 116.955 52.2745 116.709L51.2455 116.091C50.993 116.512 50.86 116.968 50.86 117.45H52.06ZM52.2662 116.722C52.4271 116.469 52.5433 116.45 52.61 116.45V115.25C52.0099 115.25 51.5595 115.597 51.2538 116.078L52.2662 116.722ZM52.61 116.45H63.56V115.25H52.61V116.45ZM63.56 116.45C63.6153 116.45 63.7071 116.456 63.8332 116.687L64.8867 116.113C64.6129 115.611 64.1713 115.25 63.56 115.25V116.45ZM63.8684 116.744C64.0392 116.988 64.11 117.22 64.11 117.45H65.31C65.31 116.947 65.1473 116.479 64.8515 116.056L63.8684 116.744ZM64.11 117.45C64.11 117.683 64.0373 117.939 63.8538 118.228L64.8662 118.872C65.1492 118.427 65.31 117.95 65.31 117.45H64.11ZM63.8455 118.241C63.7326 118.429 63.6442 118.45 63.56 118.45V119.65C64.1424 119.65 64.5873 119.337 64.8745 118.859L63.8455 118.241ZM63.56 118.45H52.61V119.65H63.56V118.45ZM69.3811 129.15V129.75H69.3949L69.4087 129.749L69.3811 129.15ZM68.6811 128.85L68.1601 129.148L68.1863 129.194L68.2201 129.234L68.6811 128.85ZM68.4811 128.05L67.8824 128.01L67.8811 128.03V128.05H68.4811ZM68.7811 127.15L69.0898 127.664L68.7811 127.15ZM71.8811 126.5L72.2298 126.988L72.241 126.98L72.2517 126.972L71.8811 126.5ZM72.7311 125.2L72.149 125.054L72.1455 125.068L72.1427 125.082L72.7311 125.2ZM72.9811 123.15L73.5806 123.174L73.5811 123.162V123.15H72.9811ZM72.9811 103.3H73.5811V103.288L73.5806 103.276L72.9811 103.3ZM72.7311 101.3L72.1413 101.411L72.1455 101.433L72.1513 101.455L72.7311 101.3ZM71.8811 100L71.5104 100.472L71.5211 100.48L71.5323 100.488L71.8811 100ZM68.7311 99.3L68.3068 99.7243L68.3369 99.7544L68.3711 99.78L68.7311 99.3ZM68.4811 98.4H67.8811V98.4214L67.8826 98.4427L68.4811 98.4ZM68.6811 97.65L68.1928 97.3013L68.1872 97.3091L68.1818 97.3172L68.6811 97.65ZM69.3811 97.3L69.4087 96.7006L69.3949 96.7H69.3811V97.3ZM81.5311 97.3V96.7H81.5172L81.5034 96.7006L81.5311 97.3ZM82.1811 97.65L81.6601 97.9477L81.6863 97.9935L81.7201 98.0341L82.1811 97.65ZM82.4311 98.4L83.0297 98.4399L83.0311 98.42V98.4H82.4311ZM82.1311 99.3L81.8224 98.7855V98.7855L82.1311 99.3ZM79.0311 100L79.3798 100.488L79.391 100.48L79.4017 100.472L79.0311 100ZM78.1311 101.3L77.549 101.154L77.5455 101.168L77.5427 101.182L78.1311 101.3ZM77.9311 103.3L77.3315 103.276L77.3311 103.288V103.3H77.9311ZM77.9311 112.15H77.3311V112.75H77.9311V112.15ZM93.6311 112.15V112.75H94.2311V112.15H93.6311ZM93.6311 103.3H94.2311V103.288L94.2306 103.276L93.6311 103.3ZM93.3811 101.3L92.7913 101.411L92.7955 101.433L92.8013 101.455L93.3811 101.3ZM92.5311 100L92.1604 100.472L92.1712 100.48L92.1823 100.488L92.5311 100ZM89.3311 99.3L88.9068 99.7243L88.959 99.7765L89.0224 99.8145L89.3311 99.3ZM89.0811 98.4H88.4811V98.4214L88.4826 98.4427L89.0811 98.4ZM89.3311 97.65L89.792 98.0341L89.8063 98.0169L89.8193 97.9987L89.3311 97.65ZM89.9811 97.3L90.0087 96.7006L89.9949 96.7H89.9811V97.3ZM102.181 97.3V96.7H102.167L102.153 96.7007L102.181 97.3ZM102.831 97.65L102.31 97.9477L102.336 97.9935L102.37 98.0341L102.831 97.65ZM103.081 98.4L103.68 98.4399L103.681 98.42V98.4H103.081ZM102.731 99.3L102.463 98.7633L102.442 98.7736L102.422 98.7855L102.731 99.3ZM99.6311 100L99.9798 100.488L99.9859 100.484L99.6311 100ZM98.7311 101.3L98.149 101.154L98.1455 101.168L98.1427 101.182L98.7311 101.3ZM98.5311 103.3L97.9315 103.276L97.9311 103.288V103.3H98.5311ZM98.5311 123.15H97.9311V123.162L97.9315 123.174L98.5311 123.15ZM98.7311 125.2L98.1413 125.311L98.1455 125.333L98.1513 125.355L98.7311 125.2ZM99.6311 126.5L99.2604 126.972L99.2788 126.986L99.2982 126.999L99.6311 126.5ZM102.781 127.2L102.357 127.624L102.409 127.676L102.472 127.714L102.781 127.2ZM103.081 128.05H103.681V128.029L103.68 128.007L103.081 128.05ZM102.831 128.85L102.343 128.501L102.337 128.509L102.332 128.517L102.831 128.85ZM102.181 129.15L102.153 129.749L102.167 129.75H102.181V129.15ZM89.9811 129.15V129.75H89.9949L90.0087 129.749L89.9811 129.15ZM89.3311 128.85L88.8428 129.199L88.8558 129.217L88.8701 129.234L89.3311 128.85ZM89.0811 128.05L88.4824 128.01L88.4811 128.03V128.05H89.0811ZM89.3811 127.15L89.1127 126.613L89.0921 126.624L89.0724 126.636L89.3811 127.15ZM92.5311 126.5L92.8798 126.988L92.891 126.98L92.9017 126.972L92.5311 126.5ZM93.3811 125.2L92.799 125.054L92.7955 125.068L92.7927 125.082L93.3811 125.2ZM93.6311 123.15L94.2306 123.174L94.2311 123.162V123.15H93.6311ZM93.6311 114.3H94.2311V113.7H93.6311V114.3ZM77.9311 114.3V113.7H77.3311V114.3H77.9311ZM77.9311 123.15H77.3311V123.162L77.3315 123.174L77.9311 123.15ZM78.1311 125.2L77.5413 125.311L77.5455 125.333L77.5513 125.355L78.1311 125.2ZM79.0311 126.5L78.6604 126.972L78.6712 126.98L78.6823 126.988L79.0311 126.5ZM82.1811 127.2L81.7568 127.624L81.7869 127.654L81.8211 127.68L82.1811 127.2ZM82.4311 128.05H83.0311V128.029L83.0295 128.007L82.4311 128.05ZM82.1811 128.85L81.6928 128.501L81.6872 128.509L81.6818 128.517L82.1811 128.85ZM81.5311 129.15L81.503 129.749L81.517 129.75H81.5311V129.15ZM69.3811 128.55C69.2288 128.55 69.1766 128.507 69.142 128.466L68.2201 129.234C68.5189 129.593 68.9333 129.75 69.3811 129.75V128.55ZM69.202 128.552C69.1263 128.42 69.0811 128.258 69.0811 128.05H67.8811C67.8811 128.442 67.9691 128.813 68.1601 129.148L69.202 128.552ZM69.0797 128.09C69.0947 127.865 69.123 127.722 69.1503 127.64C69.1815 127.546 69.1859 127.607 69.0898 127.664L68.4724 126.636C68.2095 126.793 68.0806 127.054 68.0118 127.26C67.9391 127.478 67.9007 127.735 67.8824 128.01L69.0797 128.09ZM69.0898 127.664C69.0779 127.672 69.1119 127.65 69.2371 127.63C69.354 127.612 69.5163 127.6 69.7311 127.6V126.4C69.4791 126.4 69.2497 126.413 69.05 126.445C68.8586 126.475 68.6509 126.528 68.4724 126.636L69.0898 127.664ZM69.7311 127.6C70.7455 127.6 71.6127 127.429 72.2298 126.988L71.5323 126.012C71.216 126.238 70.6499 126.4 69.7311 126.4V127.6ZM72.2517 126.972C72.8114 126.532 73.1869 125.98 73.3194 125.318L72.1427 125.082C72.0752 125.42 71.8841 125.735 71.5104 126.028L72.2517 126.972ZM73.3131 125.346C73.4601 124.758 73.5464 124.03 73.5806 123.174L72.3815 123.126C72.3491 123.937 72.2687 124.576 72.149 125.054L73.3131 125.346ZM73.5811 123.15V103.3H72.3811V123.15H73.5811ZM73.5806 103.276C73.5464 102.422 73.4603 101.706 73.3108 101.145L72.1513 101.455C72.2685 101.894 72.349 102.511 72.3815 103.324L73.5806 103.276ZM73.3208 101.189C73.1905 100.495 72.8146 99.9295 72.2298 99.5118L71.5323 100.488C71.8808 100.737 72.0716 101.039 72.1413 101.411L73.3208 101.189ZM72.2517 99.5282C71.631 99.0405 70.754 98.85 69.7311 98.85V100.05C70.6414 100.05 71.1977 100.226 71.5104 100.472L72.2517 99.5282ZM69.7311 98.85H69.4311V100.05H69.7311V98.85ZM69.4311 98.85C69.2914 98.85 69.1945 98.8393 69.1318 98.8258C69.066 98.8117 69.065 98.8005 69.0911 98.82L68.3711 99.78C68.6704 100.004 69.0765 100.05 69.4311 100.05V98.85ZM69.1553 98.8757C69.1949 98.9153 69.1767 98.9224 69.1467 98.8144C69.1196 98.7169 69.0946 98.5685 69.0795 98.3572L67.8826 98.4427C67.9008 98.6982 67.9342 98.9331 67.9904 99.1356C68.0438 99.3276 68.1339 99.5513 68.3068 99.7243L69.1553 98.8757ZM69.0811 98.4C69.0811 98.189 69.1273 98.0623 69.1803 97.9828L68.1818 97.3172C67.9682 97.6377 67.8811 98.011 67.8811 98.4H69.0811ZM69.1693 97.9987C69.2173 97.9315 69.2642 97.9 69.3811 97.9V96.7C68.8979 96.7 68.4781 96.9018 68.1928 97.3013L69.1693 97.9987ZM69.3534 97.8994C71.5273 97.9997 73.5034 98.05 75.2811 98.05V96.85C73.5254 96.85 71.5681 96.8003 69.4087 96.7006L69.3534 97.8994ZM75.2811 98.05C77.291 98.05 79.3836 97.9998 81.5587 97.8994L81.5034 96.7006C79.3452 96.8002 77.2711 96.85 75.2811 96.85V98.05ZM81.5311 97.9C81.6033 97.9 81.6304 97.9138 81.6341 97.9158C81.6366 97.9171 81.6385 97.9184 81.6412 97.9211C81.6441 97.9241 81.651 97.9317 81.6601 97.9477L82.702 97.3523C82.4476 96.9071 82.0161 96.7 81.5311 96.7V97.9ZM81.7201 98.0341C81.7835 98.1101 81.8311 98.2178 81.8311 98.4H83.0311C83.0311 97.9822 82.912 97.5899 82.642 97.2659L81.7201 98.0341ZM81.8324 98.3601C81.8174 98.5851 81.7891 98.7284 81.7618 98.8103C81.7306 98.904 81.7262 98.8432 81.8224 98.7855L82.4398 99.8145C82.7026 99.6568 82.8315 99.396 82.9003 99.1897C82.973 98.9716 83.0114 98.7149 83.0297 98.4399L81.8324 98.3601ZM81.8224 98.7855C81.8342 98.7784 81.8002 98.8001 81.675 98.8198C81.5581 98.8383 81.3958 98.85 81.1811 98.85V100.05C81.433 100.05 81.6624 100.037 81.8621 100.005C82.0535 99.9749 82.2612 99.9216 82.4398 99.8145L81.8224 98.7855ZM81.1811 98.85C80.1581 98.85 79.2811 99.0405 78.6604 99.5282L79.4017 100.472C79.7144 100.226 80.2707 100.05 81.1811 100.05V98.85ZM78.6823 99.5118C78.1051 99.9241 77.7185 100.476 77.549 101.154L78.7131 101.446C78.8103 101.057 79.0237 100.743 79.3798 100.488L78.6823 99.5118ZM77.5427 101.182C77.4339 101.726 77.3654 102.428 77.3315 103.276L78.5306 103.324C78.5633 102.505 78.6282 101.874 78.7194 101.418L77.5427 101.182ZM77.3311 103.3V112.15H78.5311V103.3H77.3311ZM77.9311 112.75H93.6311V111.55H77.9311V112.75ZM94.2311 112.15V103.3H93.0311V112.15H94.2311ZM94.2306 103.276C94.1964 102.422 94.1103 101.706 93.9608 101.145L92.8013 101.455C92.9185 101.894 92.999 102.511 93.0315 103.324L94.2306 103.276ZM93.9708 101.189C93.8405 100.495 93.4646 99.9295 92.8798 99.5118L92.1823 100.488C92.5308 100.737 92.7216 101.039 92.7913 101.411L93.9708 101.189ZM92.9017 99.5282C92.281 99.0405 91.404 98.85 90.3811 98.85V100.05C91.2914 100.05 91.8477 100.226 92.1604 100.472L92.9017 99.5282ZM90.3811 98.85H90.0811V100.05H90.3811V98.85ZM90.0811 98.85C89.7881 98.85 89.6682 98.8026 89.6398 98.7855L89.0224 99.8145C89.3272 99.9974 89.7073 100.05 90.0811 100.05V98.85ZM89.7553 98.8757C89.7949 98.9153 89.7767 98.9224 89.7467 98.8144C89.7196 98.7169 89.6946 98.5685 89.6795 98.3572L88.4826 98.4427C88.5008 98.6982 88.5342 98.9331 88.5904 99.1356C88.6438 99.3276 88.7339 99.5513 88.9068 99.7243L89.7553 98.8757ZM89.6811 98.4C89.6811 98.2178 89.7286 98.1101 89.792 98.0341L88.8701 97.2659C88.6001 97.5899 88.4811 97.9822 88.4811 98.4H89.6811ZM89.8193 97.9987C89.8833 97.9092 89.9247 97.9 89.9811 97.9V96.7C89.5041 96.7 89.1122 96.9242 88.8428 97.3013L89.8193 97.9987ZM89.9534 97.8994C92.1285 97.9998 94.2211 98.05 96.2311 98.05V96.85C94.241 96.85 92.1669 96.8002 90.0087 96.7006L89.9534 97.8994ZM96.2311 98.05C98.0751 98.05 100.068 97.9997 102.209 97.8993L102.153 96.7007C100.028 96.8003 98.0536 96.85 96.2311 96.85V98.05ZM102.181 97.9C102.253 97.9 102.28 97.9138 102.284 97.9158C102.287 97.9171 102.288 97.9184 102.291 97.9211C102.294 97.9241 102.301 97.9317 102.31 97.9477L103.352 97.3523C103.098 96.9071 102.666 96.7 102.181 96.7V97.9ZM102.37 98.0341C102.433 98.1101 102.481 98.2178 102.481 98.4H103.681C103.681 97.9822 103.562 97.5899 103.292 97.2659L102.37 98.0341ZM102.482 98.3601C102.468 98.5791 102.437 98.7118 102.409 98.7825C102.382 98.8541 102.381 98.8041 102.463 98.7633L102.999 99.8367C103.281 99.6959 103.439 99.4459 103.528 99.2175C103.617 98.9882 103.661 98.7209 103.68 98.4399L102.482 98.3601ZM102.422 98.7855C102.43 98.7812 102.395 98.8018 102.282 98.8207C102.175 98.8385 102.027 98.85 101.831 98.85V100.05C102.27 100.05 102.719 100.007 103.04 99.8145L102.422 98.7855ZM101.831 98.85C100.803 98.85 99.9223 99.0424 99.2762 99.5162L99.9859 100.484C100.34 100.224 100.925 100.05 101.831 100.05V98.85ZM99.2823 99.5118C98.7051 99.9241 98.3185 100.476 98.149 101.154L99.3131 101.446C99.4103 101.057 99.6237 100.743 99.9798 100.488L99.2823 99.5118ZM98.1427 101.182C98.0339 101.726 97.9654 102.428 97.9315 103.276L99.1306 103.324C99.1633 102.505 99.2282 101.874 99.3194 101.418L98.1427 101.182ZM97.9311 103.3V123.15H99.1311V103.3H97.9311ZM97.9315 123.174C97.9655 124.023 98.0339 124.738 98.1413 125.311L99.3208 125.089C99.2282 124.596 99.1633 123.944 99.1306 123.126L97.9315 123.174ZM98.1513 125.355C98.3229 125.998 98.7072 126.537 99.2604 126.972L100.002 126.028C99.6216 125.73 99.4059 125.402 99.3108 125.045L98.1513 125.355ZM99.2982 126.999C99.9401 127.427 100.812 127.6 101.831 127.6V126.4C100.917 126.4 100.322 126.24 99.9639 126.001L99.2982 126.999ZM101.831 127.6H102.131V126.4H101.831V127.6ZM102.131 127.6C102.239 127.6 102.306 127.612 102.342 127.623C102.376 127.634 102.372 127.639 102.357 127.624L103.205 126.776C102.908 126.479 102.499 126.4 102.131 126.4V127.6ZM102.472 127.714C102.386 127.663 102.388 127.609 102.415 127.687C102.44 127.758 102.468 127.887 102.483 128.093L103.68 128.007C103.661 127.747 103.622 127.5 103.547 127.288C103.474 127.083 103.343 126.837 103.09 126.686L102.472 127.714ZM102.481 128.05C102.481 128.231 102.433 128.375 102.343 128.501L103.319 129.199C103.562 128.859 103.681 128.469 103.681 128.05H102.481ZM102.332 128.517C102.328 128.523 102.325 128.525 102.325 128.526C102.325 128.526 102.323 128.528 102.317 128.53C102.305 128.536 102.266 128.55 102.181 128.55V129.75C102.625 129.75 103.058 129.592 103.33 129.183L102.332 128.517ZM102.209 128.551C100.068 128.45 98.0583 128.4 96.1811 128.4V129.6C98.0371 129.6 100.028 129.65 102.153 129.749L102.209 128.551ZM96.1811 128.4C94.2043 128.4 92.1283 128.45 89.9534 128.551L90.0087 129.749C92.1671 129.65 94.2245 129.6 96.1811 129.6V128.4ZM89.9811 128.55C89.8875 128.55 89.8415 128.525 89.792 128.466L88.8701 129.234C89.1539 129.575 89.5413 129.75 89.9811 129.75V128.55ZM89.8193 128.501C89.7288 128.375 89.6811 128.231 89.6811 128.05H88.4811C88.4811 128.469 88.6 128.859 88.8428 129.199L89.8193 128.501ZM89.6797 128.09C89.6947 127.865 89.723 127.722 89.7503 127.64C89.7815 127.546 89.7859 127.607 89.6898 127.664L89.0724 126.636C88.8095 126.793 88.6806 127.054 88.6118 127.26C88.5391 127.478 88.5007 127.735 88.4824 128.01L89.6797 128.09ZM89.6494 127.687C89.7159 127.653 89.9275 127.6 90.3811 127.6V126.4C89.9013 126.4 89.4462 126.447 89.1127 126.613L89.6494 127.687ZM90.3811 127.6C91.3956 127.6 92.2627 127.429 92.8798 126.988L92.1823 126.012C91.866 126.238 91.2999 126.4 90.3811 126.4V127.6ZM92.9017 126.972C93.4614 126.532 93.8369 125.98 93.9694 125.318L92.7927 125.082C92.7253 125.42 92.5341 125.735 92.1604 126.028L92.9017 126.972ZM93.9631 125.346C94.1101 124.758 94.1964 124.03 94.2306 123.174L93.0315 123.126C92.9991 123.937 92.9187 124.576 92.799 125.054L93.9631 125.346ZM94.2311 123.15V114.3H93.0311V123.15H94.2311ZM93.6311 113.7H77.9311V114.9H93.6311V113.7ZM77.3311 114.3V123.15H78.5311V114.3H77.3311ZM77.3315 123.174C77.3655 124.023 77.4339 124.738 77.5413 125.311L78.7208 125.089C78.6282 124.596 78.5633 123.944 78.5306 123.126L77.3315 123.174ZM77.5513 125.355C77.7229 125.998 78.1072 126.537 78.6604 126.972L79.4017 126.028C79.0216 125.73 78.8059 125.402 78.7108 125.045L77.5513 125.355ZM78.6823 126.988C79.2994 127.429 80.1666 127.6 81.1811 127.6V126.4C80.2622 126.4 79.6961 126.238 79.3798 126.012L78.6823 126.988ZM81.1811 127.6H81.4811V126.4H81.1811V127.6ZM81.4811 127.6C81.6112 127.6 81.6939 127.613 81.7412 127.627C81.7873 127.64 81.78 127.647 81.7568 127.624L82.6053 126.776C82.2992 126.47 81.861 126.4 81.4811 126.4V127.6ZM81.8211 127.68C81.7705 127.642 81.7506 127.607 81.7493 127.605C81.7478 127.602 81.7559 127.616 81.7679 127.657C81.7926 127.741 81.8174 127.881 81.8326 128.093L83.0295 128.007C83.0114 127.753 82.9779 127.518 82.9192 127.318C82.866 127.137 82.7647 126.888 82.5411 126.72L81.8211 127.68ZM81.8311 128.05C81.8311 128.231 81.7833 128.375 81.6928 128.501L82.6693 129.199C82.9121 128.859 83.0311 128.469 83.0311 128.05H81.8311ZM81.6818 128.517C81.6776 128.523 81.6752 128.525 81.675 128.526C81.6747 128.526 81.6728 128.528 81.6671 128.53C81.6552 128.536 81.6159 128.55 81.5311 128.55V129.75C81.9752 129.75 82.4076 129.592 82.6803 129.183L81.6818 128.517ZM81.5592 128.551C79.4171 128.45 77.341 128.4 75.3311 128.4V129.6C77.3211 129.6 79.3784 129.65 81.503 129.749L81.5592 128.551ZM75.3311 128.4C73.5202 128.4 71.5275 128.45 69.3534 128.551L69.4087 129.749C71.568 129.65 73.5419 129.6 75.3311 129.6V128.4ZM158.947 128.75L158.398 128.993L158.413 129.027L158.432 129.059L158.947 128.75ZM147.697 103.3L148.245 103.057L148.087 102.7H147.697V103.3ZM147.547 103.3V102.7H146.944L146.947 103.303L147.547 103.3ZM147.647 123.15L147.047 123.153L147.047 123.163L147.047 123.172L147.647 123.15ZM147.847 125.25L147.258 125.368L147.26 125.376L147.847 125.25ZM148.647 126.5L148.259 126.958L148.278 126.974L148.298 126.988L148.647 126.5ZM151.797 127.2L151.372 127.624L151.425 127.676L151.488 127.714L151.797 127.2ZM152.097 128.05H152.697V128.029L152.695 128.007L152.097 128.05ZM151.847 128.85L151.358 128.501L151.353 128.509L151.347 128.517L151.847 128.85ZM151.197 129.15L151.173 129.75L151.185 129.75H151.197V129.15ZM149.947 129.1L149.921 129.699L149.923 129.7L149.947 129.1ZM141.697 129.15V129.75H141.711L141.724 129.749L141.697 129.15ZM140.997 128.85L140.476 129.148L140.502 129.194L140.536 129.234L140.997 128.85ZM140.797 128.05L140.198 128.01L140.197 128.03V128.05H140.797ZM141.097 127.15L141.405 127.664L141.097 127.15ZM144.147 126.5L144.513 126.976L144.517 126.972L144.147 126.5ZM144.997 125.25L145.583 125.376L145.585 125.368L144.997 125.25ZM145.197 123.15L145.796 123.172L145.797 123.163L145.797 123.153L145.197 123.15ZM145.297 103.3L145.897 103.303V103.3H145.297ZM144.947 101L144.397 101.24L144.4 101.247L144.403 101.254L144.947 101ZM143.897 99.9L143.612 100.428L143.636 100.441L143.66 100.451L143.897 99.9ZM141.947 99.3L141.801 99.8821L141.817 99.8861L141.833 99.8892L141.947 99.3ZM141.347 99.2L141.201 99.7821L141.236 99.7909L141.272 99.7954L141.347 99.2ZM140.797 98.9L140.24 99.1228L140.269 99.1965L140.317 99.26L140.797 98.9ZM140.997 97.35L140.699 96.8291L140.681 96.8393L140.664 96.8508L140.997 97.35ZM146.897 97.55L146.773 98.1371L146.781 98.1387L146.788 98.1401L146.897 97.55ZM150.197 99.05L149.816 99.5137L149.824 99.5201L150.197 99.05ZM152.597 102.45L152.044 102.683L152.049 102.694L152.597 102.45ZM161.197 121.75L160.649 121.994L160.807 122.35H161.197V121.75ZM161.347 121.75V122.35H161.751L161.903 121.975L161.347 121.75ZM171.197 97.45V96.85H170.792L170.641 97.2246L171.197 97.45ZM179.997 97.3V96.7H179.983L179.969 96.7007L179.997 97.3ZM180.647 97.65L180.126 97.9477L180.152 97.9935L180.186 98.0341L180.647 97.65ZM180.897 98.4L181.495 98.4399L181.497 98.42V98.4H180.897ZM180.547 99.3L180.278 98.7633L180.258 98.7736L180.238 98.7855L180.547 99.3ZM177.497 100L177.845 100.488L177.857 100.48L177.867 100.472L177.497 100ZM176.597 101.3L176.015 101.154L176.011 101.168L176.008 101.182L176.597 101.3ZM176.397 103.3L175.797 103.276L175.797 103.288V103.3H176.397ZM176.397 123.15H175.797V123.162L175.797 123.174L176.397 123.15ZM176.597 125.2L176.007 125.311L176.011 125.333L176.017 125.355L176.597 125.2ZM177.497 126.5L177.126 126.972L177.137 126.98L177.148 126.988L177.497 126.5ZM180.597 127.2L180.172 127.624L180.225 127.676L180.288 127.714L180.597 127.2ZM180.897 128.05H181.497V128.029L181.495 128.007L180.897 128.05ZM180.647 128.85L180.158 128.501L180.153 128.509L180.147 128.517L180.647 128.85ZM179.997 129.15L179.969 129.749L179.983 129.75H179.997V129.15ZM167.847 129.15V129.75H167.861L167.874 129.749L167.847 129.15ZM167.147 128.85L166.626 129.148L166.652 129.194L166.686 129.234L167.147 128.85ZM166.947 128.05L166.348 128.01L166.347 128.03V128.05H166.947ZM167.247 127.15L167.555 127.664L167.247 127.15ZM170.347 126.5L170.695 126.988L170.707 126.98L170.717 126.972L170.347 126.5ZM171.197 125.2L170.615 125.054L170.611 125.068L170.608 125.082L171.197 125.2ZM171.447 123.15L172.046 123.174L172.047 123.162V123.15H171.447ZM171.447 103.3H172.047V102.7H171.447V103.3ZM171.297 103.3V102.7H170.892L170.741 103.075L171.297 103.3ZM160.997 128.75L160.441 128.525L160.44 128.527L160.997 128.75ZM159.997 128.65C159.638 128.65 159.521 128.542 159.461 128.441L158.432 129.059C158.772 129.625 159.355 129.85 159.997 129.85V128.65ZM159.495 128.507L148.245 103.057L147.148 103.543L158.398 128.993L159.495 128.507ZM147.697 102.7H147.547V103.9H147.697V102.7ZM146.947 103.303L147.047 123.153L148.247 123.147L148.147 103.297L146.947 103.303ZM147.047 123.172C147.081 124.084 147.149 124.821 147.258 125.368L148.435 125.132C148.344 124.679 148.279 124.016 148.246 123.128L147.047 123.172ZM147.26 125.376C147.393 125.995 147.744 126.522 148.259 126.958L149.034 126.042C148.682 125.744 148.501 125.438 148.433 125.124L147.26 125.376ZM148.298 126.988C148.915 127.429 149.782 127.6 150.797 127.6V126.4C149.878 126.4 149.312 126.238 148.995 126.012L148.298 126.988ZM150.797 127.6H151.097V126.4H150.797V127.6ZM151.097 127.6C151.227 127.6 151.31 127.613 151.357 127.627C151.403 127.64 151.396 127.647 151.372 127.624L152.221 126.776C151.915 126.47 151.477 126.4 151.097 126.4V127.6ZM151.488 127.714C151.402 127.663 151.403 127.609 151.431 127.687C151.456 127.758 151.483 127.887 151.498 128.093L152.695 128.007C152.677 127.747 152.637 127.5 152.562 127.288C152.49 127.083 152.359 126.837 152.105 126.686L151.488 127.714ZM151.497 128.05C151.497 128.231 151.449 128.375 151.358 128.501L152.335 129.199C152.578 128.859 152.697 128.469 152.697 128.05H151.497ZM151.347 128.517C151.343 128.523 151.341 128.525 151.341 128.526C151.34 128.526 151.338 128.528 151.333 128.53C151.321 128.536 151.282 128.55 151.197 128.55V129.75C151.641 129.75 152.073 129.592 152.346 129.183L151.347 128.517ZM151.221 128.55L149.971 128.5L149.923 129.7L151.173 129.75L151.221 128.55ZM149.973 128.501C148.439 128.434 147.328 128.4 146.647 128.4V129.6C147.299 129.6 148.388 129.633 149.921 129.699L149.973 128.501ZM146.647 128.4C145.499 128.4 143.838 128.451 141.669 128.551L141.724 129.749C143.888 129.649 145.527 129.6 146.647 129.6V128.4ZM141.697 128.55C141.544 128.55 141.492 128.507 141.458 128.466L140.536 129.234C140.834 129.593 141.249 129.75 141.697 129.75V128.55ZM141.518 128.552C141.442 128.42 141.397 128.258 141.397 128.05H140.197C140.197 128.442 140.285 128.813 140.476 129.148L141.518 128.552ZM141.395 128.09C141.41 127.865 141.439 127.722 141.466 127.64C141.497 127.546 141.502 127.607 141.405 127.664L140.788 126.636C140.525 126.793 140.396 127.054 140.327 127.26C140.255 127.478 140.216 127.735 140.198 128.01L141.395 128.09ZM141.405 127.664C141.394 127.672 141.427 127.65 141.553 127.63C141.67 127.612 141.832 127.6 142.047 127.6V126.4C141.795 126.4 141.565 126.413 141.366 126.445C141.174 126.475 140.967 126.528 140.788 126.636L141.405 127.664ZM142.047 127.6C143.055 127.6 143.92 127.431 144.513 126.976L143.781 126.024C143.507 126.235 142.971 126.4 142.047 126.4V127.6ZM144.517 126.972C145.067 126.54 145.447 126.01 145.583 125.376L144.41 125.124C144.346 125.423 144.16 125.726 143.776 126.028L144.517 126.972ZM145.585 125.368C145.694 124.821 145.762 124.084 145.796 123.172L144.597 123.128C144.564 124.016 144.499 124.679 144.408 125.132L145.585 125.368ZM145.797 123.153L145.897 103.303L144.697 103.297L144.597 123.147L145.797 123.153ZM145.897 103.3C145.897 102.242 145.781 101.368 145.49 100.746L144.403 101.254C144.579 101.632 144.697 102.291 144.697 103.3H145.897ZM145.496 100.76C145.212 100.108 144.76 99.6174 144.133 99.3485L143.66 100.451C143.966 100.583 144.215 100.825 144.397 101.24L145.496 100.76ZM144.181 99.3717C143.668 99.0952 142.947 98.8814 142.06 98.7108L141.833 99.8892C142.68 100.052 143.259 100.238 143.612 100.428L144.181 99.3717ZM142.092 98.7179C141.923 98.6755 141.694 98.6387 141.421 98.6046L141.272 99.7954C141.533 99.828 141.704 99.8578 141.801 99.8821L142.092 98.7179ZM141.492 98.6179C141.394 98.5933 141.332 98.5676 141.296 98.5483C141.262 98.5293 141.264 98.5229 141.277 98.54L140.317 99.26C140.538 99.5552 140.881 99.702 141.201 99.7821L141.492 98.6179ZM141.354 98.6772C141.33 98.6185 141.297 98.461 141.297 98.15H140.097C140.097 98.5056 140.13 98.8482 140.24 99.1228L141.354 98.6772ZM141.297 98.15C141.297 97.9951 141.317 97.9054 141.333 97.8607C141.348 97.8228 141.352 97.8339 141.329 97.8492L140.664 96.8508C140.209 97.1537 140.097 97.6843 140.097 98.15H141.297ZM141.294 97.8709C141.393 97.8148 141.617 97.75 142.047 97.75V96.55C141.543 96.55 141.067 96.6186 140.699 96.8291L141.294 97.8709ZM142.047 97.75C143.991 97.75 145.562 97.8822 146.773 98.1371L147.02 96.9629C145.698 96.6845 144.036 96.55 142.047 96.55V97.75ZM146.788 98.1401C147.962 98.3563 148.966 98.8158 149.816 99.5136L150.578 98.5864C149.56 97.7509 148.365 97.2104 147.005 96.9599L146.788 98.1401ZM149.824 99.5201C150.69 100.207 151.438 101.247 152.044 102.683L153.149 102.217C152.489 100.653 151.636 99.426 150.57 98.5799L149.824 99.5201ZM152.049 102.694L160.649 121.994L161.745 121.506L153.145 102.206L152.049 102.694ZM161.197 122.35H161.347V121.15H161.197V122.35ZM161.903 121.975L171.753 97.6754L170.641 97.2246L160.791 121.525L161.903 121.975ZM171.197 98.05H174.047V96.85H171.197V98.05ZM174.047 98.05C175.891 98.05 177.884 97.9997 180.025 97.8993L179.969 96.7007C177.843 96.8003 175.869 96.85 174.047 96.85V98.05ZM179.997 97.9C180.069 97.9 180.096 97.9138 180.1 97.9158C180.102 97.9171 180.104 97.9184 180.107 97.9211C180.11 97.9241 180.117 97.9317 180.126 97.9477L181.168 97.3523C180.913 96.9071 180.482 96.7 179.997 96.7V97.9ZM180.186 98.0341C180.249 98.1101 180.297 98.2178 180.297 98.4H181.497C181.497 97.9822 181.378 97.5899 181.108 97.2659L180.186 98.0341ZM180.298 98.3601C180.283 98.5791 180.252 98.7118 180.225 98.7825C180.197 98.8541 180.197 98.8041 180.278 98.7633L180.815 99.8367C181.097 99.6959 181.255 99.4459 181.343 99.2175C181.433 98.9882 181.477 98.7209 181.495 98.4399L180.298 98.3601ZM180.238 98.7855C180.245 98.7812 180.211 98.8018 180.098 98.8207C179.991 98.8385 179.843 98.85 179.647 98.85V100.05C180.085 100.05 180.535 100.007 180.855 99.8145L180.238 98.7855ZM179.647 98.85C178.624 98.85 177.747 99.0405 177.126 99.5282L177.867 100.472C178.18 100.226 178.736 100.05 179.647 100.05V98.85ZM177.148 99.5118C176.571 99.9241 176.184 100.476 176.015 101.154L177.179 101.446C177.276 101.057 177.489 100.743 177.845 100.488L177.148 99.5118ZM176.008 101.182C175.9 101.726 175.831 102.428 175.797 103.276L176.996 103.324C177.029 102.505 177.094 101.874 177.185 101.418L176.008 101.182ZM175.797 103.3V123.15H176.997V103.3H175.797ZM175.797 123.174C175.831 124.023 175.9 124.738 176.007 125.311L177.186 125.089C177.094 124.596 177.029 123.944 176.996 123.126L175.797 123.174ZM176.017 125.355C176.189 125.998 176.573 126.537 177.126 126.972L177.867 126.028C177.487 125.73 177.271 125.402 177.176 125.045L176.017 125.355ZM177.148 126.988C177.765 127.429 178.632 127.6 179.647 127.6V126.4C178.728 126.4 178.162 126.238 177.845 126.012L177.148 126.988ZM179.647 127.6H179.947V126.4H179.647V127.6ZM179.947 127.6C180.055 127.6 180.122 127.612 180.158 127.623C180.191 127.634 180.188 127.639 180.172 127.624L181.021 126.776C180.724 126.479 180.315 126.4 179.947 126.4V127.6ZM180.288 127.714C180.202 127.663 180.203 127.609 180.231 127.687C180.256 127.758 180.283 127.887 180.298 128.093L181.495 128.007C181.477 127.747 181.437 127.5 181.362 127.288C181.29 127.083 181.159 126.837 180.905 126.686L180.288 127.714ZM180.297 128.05C180.297 128.231 180.249 128.375 180.158 128.501L181.135 129.199C181.378 128.859 181.497 128.469 181.497 128.05H180.297ZM180.147 128.517C180.143 128.523 180.141 128.525 180.141 128.526C180.14 128.526 180.138 128.528 180.133 128.53C180.121 128.536 180.082 128.55 179.997 128.55V129.75C180.441 129.75 180.873 129.592 181.146 129.183L180.147 128.517ZM180.025 128.551C177.883 128.45 175.874 128.4 173.997 128.4V129.6C175.853 129.6 177.843 129.65 179.969 129.749L180.025 128.551ZM173.997 128.4C172.053 128.4 169.994 128.45 167.819 128.551L167.874 129.749C170.033 129.65 172.074 129.6 173.997 129.6V128.4ZM167.847 128.55C167.694 128.55 167.642 128.507 167.608 128.466L166.686 129.234C166.984 129.593 167.399 129.75 167.847 129.75V128.55ZM167.668 128.552C167.592 128.42 167.547 128.258 167.547 128.05H166.347C166.347 128.442 166.435 128.813 166.626 129.148L167.668 128.552ZM167.545 128.09C167.56 127.865 167.589 127.722 167.616 127.64C167.647 127.546 167.652 127.607 167.555 127.664L166.938 126.636C166.675 126.793 166.546 127.054 166.477 127.26C166.405 127.478 166.366 127.735 166.348 128.01L167.545 128.09ZM167.555 127.664C167.544 127.672 167.577 127.65 167.703 127.63C167.82 127.612 167.982 127.6 168.197 127.6V126.4C167.945 126.4 167.715 126.413 167.516 126.445C167.324 126.475 167.117 126.528 166.938 126.636L167.555 127.664ZM168.197 127.6C169.211 127.6 170.078 127.429 170.695 126.988L169.998 126.012C169.682 126.238 169.116 126.4 168.197 126.4V127.6ZM170.717 126.972C171.277 126.532 171.652 125.98 171.785 125.318L170.608 125.082C170.541 125.42 170.35 125.735 169.976 126.028L170.717 126.972ZM171.779 125.346C171.926 124.758 172.012 124.03 172.046 123.174L170.847 123.126C170.815 123.937 170.734 124.576 170.615 125.054L171.779 125.346ZM172.047 123.15V103.3H170.847V123.15H172.047ZM171.447 102.7H171.297V103.9H171.447V102.7ZM170.741 103.075L160.441 128.525L161.553 128.975L171.853 103.525L170.741 103.075ZM160.44 128.527C160.43 128.552 160.419 128.568 160.378 128.588C160.323 128.616 160.208 128.65 159.997 128.65V129.85C160.636 129.85 161.287 129.64 161.554 128.973L160.44 128.527ZM186.03 129.15V129.75H186.044L186.058 129.749L186.03 129.15ZM185.38 128.85L184.859 129.148L184.886 129.194L184.919 129.234L185.38 128.85ZM185.18 128.05L184.582 128.01L184.58 128.03V128.05H185.18ZM185.48 127.15L185.789 127.664L185.48 127.15ZM188.58 126.5L188.929 126.988L188.94 126.98L188.951 126.972L188.58 126.5ZM189.43 125.2L188.848 125.054L188.845 125.068L188.842 125.082L189.43 125.2ZM189.68 123.15L190.28 123.174L190.28 123.162V123.15H189.68ZM189.68 103.3H190.28V103.288L190.28 103.276L189.68 103.3ZM189.43 101.3L188.841 101.411L188.845 101.433L188.851 101.455L189.43 101.3ZM188.58 100L188.21 100.472L188.22 100.48L188.232 100.488L188.58 100ZM185.43 99.3L185.006 99.7243L185.036 99.7544L185.07 99.78L185.43 99.3ZM185.18 98.4H184.58V98.4214L184.582 98.4427L185.18 98.4ZM185.38 97.65L184.892 97.3013L184.886 97.3091L184.881 97.3172L185.38 97.65ZM186.03 97.3L186.058 96.7006L186.044 96.7H186.03V97.3ZM208.98 98.65H208.38L208.38 98.6629L208.98 98.65ZM209.13 105.65H209.73L209.73 105.637L209.13 105.65ZM208.68 106.4L208.972 106.924L208.993 106.913L209.013 106.899L208.68 106.4ZM206.73 106.45L206.439 106.974L206.462 106.987L206.487 106.998L206.73 106.45ZM206.23 105.75L206.827 105.684L206.825 105.668L206.822 105.653L206.23 105.75ZM205.33 102.05L204.763 102.246L204.768 102.26L204.773 102.273L205.33 102.05ZM203.93 100.15L203.579 100.636L203.594 100.647L203.61 100.657L203.93 100.15ZM201.33 99.45L201.348 98.8503L201.339 98.85H201.33V99.45ZM194.63 99.45V98.85H194.03V99.45H194.63ZM194.63 112.15H194.03V112.75H194.63V112.15ZM203.68 112.15L203.765 111.556L203.723 111.55H203.68V112.15ZM204.23 112.55L203.709 112.848L203.72 112.866L203.731 112.883L204.23 112.55ZM194.63 114.3V113.7H194.03V114.3H194.63ZM194.63 123.75H194.03V123.779L194.033 123.807L194.63 123.75ZM194.88 125.45L194.296 125.585L194.298 125.596L194.88 125.45ZM195.78 126.55L196.113 126.051L195.78 126.55ZM198.13 127V126.4H198.121L198.112 126.4L198.13 127ZM202.73 127V127.6H202.739L202.747 127.6L202.73 127ZM205.38 126.45L205.672 126.974L205.683 126.968L205.693 126.962L205.38 126.45ZM206.78 124.8L206.244 124.532L206.239 124.542L206.234 124.552L206.78 124.8ZM208.08 121.2L207.521 120.983L207.512 121.005L207.506 121.028L208.08 121.2ZM209.78 120.5L209.898 119.912L209.883 119.909L209.868 119.906L209.78 120.5ZM210.63 120.9L210.24 121.356L210.255 121.368L210.27 121.38L210.63 120.9ZM210.98 121.65L211.573 121.744L211.575 121.73L211.577 121.716L210.98 121.65ZM209.98 127.95L210.565 128.085L210.57 128.065L210.573 128.044L209.98 127.95ZM186.03 128.55C185.937 128.55 185.891 128.525 185.841 128.466L184.919 129.234C185.203 129.575 185.591 129.75 186.03 129.75V128.55ZM185.901 128.552C185.826 128.42 185.78 128.258 185.78 128.05H184.58C184.58 128.442 184.668 128.813 184.859 129.148L185.901 128.552ZM185.779 128.09C185.794 127.865 185.822 127.722 185.849 127.64C185.881 127.546 185.885 127.607 185.789 127.664L185.172 126.636C184.909 126.793 184.78 127.054 184.711 127.26C184.638 127.478 184.6 127.735 184.582 128.01L185.779 128.09ZM185.789 127.664C185.777 127.672 185.811 127.65 185.936 127.63C186.053 127.612 186.216 127.6 186.43 127.6V126.4C186.178 126.4 185.949 126.413 185.749 126.445C185.558 126.475 185.35 126.528 185.172 126.636L185.789 127.664ZM186.43 127.6C187.445 127.6 188.312 127.429 188.929 126.988L188.232 126.012C187.915 126.238 187.349 126.4 186.43 126.4V127.6ZM188.951 126.972C189.511 126.532 189.886 125.98 190.019 125.318L188.842 125.082C188.774 125.42 188.583 125.735 188.21 126.028L188.951 126.972ZM190.012 125.346C190.159 124.758 190.246 124.03 190.28 123.174L189.081 123.126C189.048 123.937 188.968 124.576 188.848 125.054L190.012 125.346ZM190.28 123.15V103.3H189.08V123.15H190.28ZM190.28 103.276C190.246 102.422 190.159 101.706 190.01 101.145L188.851 101.455C188.968 101.894 189.048 102.511 189.081 103.324L190.28 103.276ZM190.02 101.189C189.89 100.495 189.514 99.9295 188.929 99.5118L188.232 100.488C188.58 100.737 188.771 101.039 188.841 101.411L190.02 101.189ZM188.951 99.5282C188.33 99.0405 187.453 98.85 186.43 98.85V100.05C187.341 100.05 187.897 100.226 188.21 100.472L188.951 99.5282ZM186.43 98.85H186.13V100.05H186.43V98.85ZM186.13 98.85C185.991 98.85 185.894 98.8393 185.831 98.8258C185.765 98.8117 185.764 98.8005 185.79 98.82L185.07 99.78C185.37 100.004 185.776 100.05 186.13 100.05V98.85ZM185.855 98.8757C185.894 98.9153 185.876 98.9224 185.846 98.8144C185.819 98.7169 185.794 98.5685 185.779 98.3572L184.582 98.4427C184.6 98.6982 184.633 98.9331 184.69 99.1356C184.743 99.3276 184.833 99.5513 185.006 99.7243L185.855 98.8757ZM185.78 98.4C185.78 98.189 185.827 98.0623 185.88 97.9828L184.881 97.3172C184.667 97.6377 184.58 98.011 184.58 98.4H185.78ZM185.869 97.9987C185.932 97.9092 185.974 97.9 186.03 97.9V96.7C185.553 96.7 185.161 96.9242 184.892 97.3013L185.869 97.9987ZM186.003 97.8994C188.21 97.9997 190.203 98.05 191.98 98.05V96.85C190.225 96.85 188.251 96.8003 186.058 96.7006L186.003 97.8994ZM191.98 98.05H207.68V96.85H191.98V98.05ZM207.68 98.05C208.033 98.05 208.185 98.1323 208.248 98.1909C208.303 98.2411 208.38 98.3554 208.38 98.65H209.58C209.58 98.1446 209.441 97.6589 209.062 97.3091C208.692 96.9677 208.195 96.85 207.68 96.85V98.05ZM208.38 98.6629L208.53 105.663L209.73 105.637L209.58 98.6371L208.38 98.6629ZM208.53 105.65C208.53 105.707 208.519 105.786 208.347 105.901L209.013 106.899C209.441 106.614 209.73 106.193 209.73 105.65H208.53ZM208.389 105.876C208.165 106 207.964 106.05 207.78 106.05V107.25C208.196 107.25 208.596 107.133 208.972 106.924L208.389 105.876ZM207.78 106.05C207.446 106.05 207.182 105.994 206.974 105.902L206.487 106.998C206.878 107.172 207.314 107.25 207.78 107.25V106.05ZM207.022 105.926C206.865 105.838 206.835 105.762 206.827 105.684L205.634 105.816C205.692 106.338 205.996 106.728 206.439 106.974L207.022 105.926ZM206.822 105.653C206.554 104.006 206.245 102.722 205.887 101.827L204.773 102.273C205.082 103.045 205.374 104.227 205.638 105.847L206.822 105.653ZM205.897 101.854C205.563 100.888 205.023 100.131 204.251 99.6427L203.61 100.657C204.104 100.969 204.498 101.479 204.763 102.246L205.897 101.854ZM204.282 99.6636C203.545 99.1317 202.542 98.8854 201.348 98.8503L201.313 100.05C202.385 100.081 203.115 100.302 203.579 100.636L204.282 99.6636ZM201.33 98.85H194.63V100.05H201.33V98.85ZM194.03 99.45V112.15H195.23V99.45H194.03ZM194.63 112.75H203.68V111.55H194.63V112.75ZM203.595 112.744C203.618 112.747 203.653 112.75 203.709 112.848L204.751 112.252C204.541 111.884 204.209 111.619 203.765 111.556L203.595 112.744ZM203.731 112.883C203.784 112.962 203.83 113.089 203.83 113.3H205.03C205.03 112.911 204.943 112.538 204.73 112.217L203.731 112.883ZM203.83 113.3C203.83 113.462 203.792 113.576 203.731 113.667L204.73 114.333C204.936 114.024 205.03 113.672 205.03 113.3H203.83ZM203.731 113.667C203.72 113.684 203.712 113.692 203.708 113.696C203.705 113.699 203.704 113.699 203.705 113.698C203.707 113.697 203.708 113.697 203.706 113.698C203.704 113.698 203.696 113.7 203.68 113.7V114.9C204.121 114.9 204.489 114.694 204.73 114.333L203.731 113.667ZM203.68 113.7H194.63V114.9H203.68V113.7ZM194.03 114.3V123.75H195.23V114.3H194.03ZM194.033 123.807C194.101 124.52 194.187 125.116 194.296 125.585L195.465 125.315C195.373 124.918 195.293 124.38 195.228 123.693L194.033 123.807ZM194.298 125.596C194.448 126.194 194.879 126.67 195.447 127.049L196.113 126.051C195.681 125.763 195.513 125.505 195.462 125.304L194.298 125.596ZM195.447 127.049C196.105 127.488 197.043 127.634 198.149 127.6L198.112 126.4C197.084 126.432 196.456 126.279 196.113 126.051L195.447 127.049ZM198.13 127.6H202.73V126.4H198.13V127.6ZM202.747 127.6C203.951 127.565 204.948 127.377 205.672 126.974L205.089 125.926C204.613 126.19 203.842 126.368 202.713 126.4L202.747 127.6ZM205.693 126.962C206.41 126.524 206.951 125.874 207.326 125.048L206.234 124.552C205.943 125.192 205.551 125.643 205.067 125.938L205.693 126.962ZM207.317 125.068C207.708 124.286 208.154 123.044 208.655 121.372L207.506 121.028C207.007 122.689 206.586 123.847 206.244 124.532L207.317 125.068ZM208.639 121.417C208.7 121.262 208.786 121.181 208.909 121.13C209.055 121.07 209.301 121.036 209.692 121.094L209.868 119.906C209.36 119.831 208.872 119.847 208.452 120.02C208.008 120.203 207.694 120.538 207.521 120.983L208.639 121.417ZM209.663 121.088C209.906 121.137 210.093 121.229 210.24 121.356L211.021 120.444C210.701 120.171 210.321 119.996 209.898 119.912L209.663 121.088ZM210.27 121.38C210.388 121.469 210.391 121.52 210.384 121.584L211.577 121.716C211.636 121.18 211.405 120.731 210.99 120.42L210.27 121.38ZM210.388 121.556L209.388 127.856L210.573 128.044L211.573 121.744L210.388 121.556ZM209.396 127.815C209.353 127.999 209.306 128.125 209.262 128.207C209.219 128.289 209.191 128.305 209.197 128.301L209.863 129.299C210.262 129.033 210.457 128.554 210.565 128.085L209.396 127.815ZM209.197 128.301C209.152 128.331 208.972 128.4 208.53 128.4V129.6C209.022 129.6 209.508 129.536 209.863 129.299L209.197 128.301ZM208.53 128.4H192.03V129.6H208.53V128.4ZM192.03 128.4C190.219 128.4 188.21 128.45 186.003 128.551L186.058 129.749C188.25 129.65 190.241 129.6 192.03 129.6V128.4Z" fill="white"/>
<circle cx="122.5" cy="112.5" r="17.15" stroke="white" stroke-width="2.7"/>
<path d="M131.65 112.5C131.65 117.419 130.516 121.805 128.751 124.915C126.963 128.065 124.701 129.65 122.5 129.65C120.299 129.65 118.037 128.065 116.249 124.915C114.484 121.805 113.35 117.419 113.35 112.5C113.35 107.581 114.484 103.195 116.249 100.085C118.037 96.9352 120.299 95.35 122.5 95.35C124.701 95.35 126.963 96.9352 128.751 100.085C130.516 103.195 131.65 107.581 131.65 112.5Z" stroke="white" stroke-width="2.7"/>
<rect x="108" y="101.7" width="29" height="2" fill="white"/>
<rect x="108" y="121.2" width="29" height="2" fill="white"/>
<rect x="106" y="111.5" width="33" height="2" fill="white"/>
<rect x="121.5" y="130" width="35" height="2" transform="rotate(-90 121.5 130)" fill="white"/>
<path d="M21 75.5H10L115 8L220 75.5H209L114.5 14.5L21 75.5Z" fill="white"/>
</svg>
