<svg width="197" height="57" viewBox="0 0 197 57" fill="none" xmlns="http://www.w3.org/2000/svg">
<path d="M3.33223 45.15C3.03223 45.15 2.79889 45.05 2.63223 44.85C2.49889 44.6167 2.43223 44.35 2.43223 44.05C2.46556 43.55 2.56556 43.25 2.73223 43.15C2.89889 43.05 3.21556 43 3.68223 43C4.64889 43 5.36556 42.8333 5.83223 42.5C6.29889 42.1333 6.58223 41.7 6.68223 41.2C6.81556 40.6667 6.89889 39.9833 6.93223 39.15V19.35C6.89889 18.4833 6.81556 17.8 6.68223 17.3C6.58223 16.8 6.29889 16.3667 5.83223 16C5.36556 15.6333 4.64889 15.45 3.68223 15.45H3.38223C3.04889 15.45 2.81556 15.4 2.68223 15.3C2.54889 15.1667 2.46556 14.8667 2.43223 14.4C2.43223 14.1 2.49889 13.85 2.63223 13.65C2.79889 13.4167 3.03223 13.3 3.33223 13.3C5.49889 13.4 7.48223 13.45 9.28223 13.45H17.8822C20.4489 13.4833 22.5822 13.9 24.2822 14.7C26.0156 15.4667 27.2822 16.4667 28.0822 17.7C28.8822 18.9 29.2822 20.2 29.2822 21.6C29.2822 23.4333 28.5489 25.1167 27.0822 26.65C25.6489 28.1833 23.6822 29.2833 21.1822 29.95L22.0322 31.3C23.4322 33.5667 24.6989 35.5167 25.8322 37.15C26.9656 38.75 28.1989 40.25 29.5322 41.65C30.4656 42.4167 31.4656 42.8667 32.5322 43C32.5989 43 32.7489 43.0167 32.9822 43.05C33.2156 43.05 33.3989 43.1333 33.5322 43.3C33.6989 43.4667 33.7822 43.7167 33.7822 44.05C33.7822 44.35 33.6989 44.6167 33.5322 44.85C33.3989 45.05 33.1822 45.15 32.8822 45.15L31.5822 45.1C30.1156 45.0333 29.0489 45 28.3822 45C27.0489 44.7333 25.8989 44.2667 24.9322 43.6C23.9989 42.9 23.0656 41.9167 22.1322 40.65C21.1656 39.3833 19.8156 37.3167 18.0822 34.45L17.1822 33C16.6822 32.2333 16.1989 31.7167 15.7322 31.45C15.2656 31.15 14.4656 31 13.3322 31H11.8822V39.15C11.9156 39.9833 11.9822 40.6667 12.0822 41.2C12.2156 41.7 12.5156 42.1333 12.9822 42.5C13.4489 42.8333 14.1656 43 15.1322 43H15.4322C15.7322 43 15.9489 43.0667 16.0822 43.2C16.2489 43.3 16.3489 43.5833 16.3822 44.05C16.3822 44.35 16.2989 44.6167 16.1322 44.85C15.9989 45.05 15.7822 45.15 15.4822 45.15C13.3489 45.05 11.2656 45 9.23223 45C7.46556 45 5.49889 45.05 3.33223 45.15ZM16.2822 29.05C21.2489 29.05 23.7322 26.7167 23.7322 22.05C23.7322 20.15 23.0822 18.55 21.7822 17.25C20.4822 15.95 18.3489 15.3 15.3822 15.3C14.4156 15.3 13.6822 15.4167 13.1822 15.65C12.6822 15.8833 12.3322 16.2833 12.1322 16.85C11.9656 17.4167 11.8822 18.2833 11.8822 19.45V29.05H16.2822ZM36.61 35.05C36.2766 35.05 35.9933 34.8833 35.76 34.55C35.56 34.1833 35.46 33.8167 35.46 33.45C35.46 33.0833 35.56 32.7333 35.76 32.4C35.9933 32.0333 36.2766 31.85 36.61 31.85H47.56C47.8933 31.85 48.16 32.0333 48.36 32.4C48.5933 32.7333 48.71 33.0833 48.71 33.45C48.71 33.8167 48.5933 34.1833 48.36 34.55C48.16 34.8833 47.8933 35.05 47.56 35.05H36.61ZM53.3811 45.15C53.0811 45.15 52.8477 45.05 52.6811 44.85C52.5477 44.6167 52.4811 44.35 52.4811 44.05C52.5144 43.55 52.6144 43.25 52.7811 43.15C52.9477 43.05 53.2644 43 53.7311 43C54.6977 43 55.4144 42.8333 55.8811 42.5C56.3477 42.1333 56.6311 41.7 56.7311 41.2C56.8644 40.6667 56.9477 39.9833 56.9811 39.15V19.3C56.9477 18.4667 56.8644 17.8 56.7311 17.3C56.6311 16.7667 56.3477 16.3333 55.8811 16C55.4144 15.6333 54.6977 15.45 53.7311 15.45H53.4311C53.0977 15.45 52.8644 15.4 52.7311 15.3C52.5977 15.1667 52.5144 14.8667 52.4811 14.4C52.4811 14.1 52.5477 13.85 52.6811 13.65C52.8477 13.4167 53.0811 13.3 53.3811 13.3C55.5477 13.4 57.5144 13.45 59.2811 13.45C61.2811 13.45 63.3644 13.4 65.5311 13.3C65.8311 13.3 66.0477 13.4167 66.1811 13.65C66.3477 13.85 66.4311 14.1 66.4311 14.4C66.3977 14.9 66.2977 15.2 66.1311 15.3C65.9644 15.4 65.6477 15.45 65.1811 15.45C64.2144 15.45 63.4977 15.6333 63.0311 16C62.5644 16.3333 62.2644 16.7667 62.1311 17.3C62.0311 17.8 61.9644 18.4667 61.9311 19.3V28.15H77.6311V19.3C77.5977 18.4667 77.5144 17.8 77.3811 17.3C77.2811 16.7667 76.9977 16.3333 76.5311 16C76.0644 15.6333 75.3477 15.45 74.3811 15.45H74.0811C73.7477 15.45 73.4977 15.4 73.3311 15.3C73.1977 15.1667 73.1144 14.8667 73.0811 14.4C73.0811 14.1 73.1644 13.85 73.3311 13.65C73.4977 13.4167 73.7144 13.3 73.9811 13.3C76.1477 13.4 78.2311 13.45 80.2311 13.45C82.0644 13.45 84.0477 13.4 86.1811 13.3C86.4811 13.3 86.6977 13.4167 86.8311 13.65C86.9977 13.85 87.0811 14.1 87.0811 14.4C87.0477 14.9 86.9311 15.2 86.7311 15.3C86.5644 15.4 86.2644 15.45 85.8311 15.45C84.8644 15.45 84.1311 15.6333 83.6311 16C83.1644 16.3333 82.8644 16.7667 82.7311 17.3C82.6311 17.8 82.5644 18.4667 82.5311 19.3V39.15C82.5644 39.9833 82.6311 40.6667 82.7311 41.2C82.8644 41.7 83.1644 42.1333 83.6311 42.5C84.1311 42.8333 84.8644 43 85.8311 43H86.1311C86.4311 43 86.6477 43.0667 86.7811 43.2C86.9477 43.3 87.0477 43.5833 87.0811 44.05C87.0811 44.35 86.9977 44.6167 86.8311 44.85C86.6977 45.05 86.4811 45.15 86.1811 45.15C84.0477 45.05 82.0477 45 80.1811 45C78.2144 45 76.1477 45.05 73.9811 45.15C73.7144 45.15 73.4977 45.05 73.3311 44.85C73.1644 44.6167 73.0811 44.35 73.0811 44.05C73.1144 43.55 73.2144 43.25 73.3811 43.15C73.5811 43.05 73.9144 43 74.3811 43C75.3477 43 76.0644 42.8333 76.5311 42.5C76.9977 42.1333 77.2811 41.7 77.3811 41.2C77.5144 40.6667 77.5977 39.9833 77.6311 39.15V30.3H61.9311V39.15C61.9644 39.9833 62.0311 40.6667 62.1311 41.2C62.2644 41.7 62.5644 42.1333 63.0311 42.5C63.4977 42.8333 64.2144 43 65.1811 43H65.4811C65.8144 43 66.0477 43.0667 66.1811 43.2C66.3144 43.3 66.3977 43.5833 66.4311 44.05C66.4311 44.35 66.3477 44.6167 66.1811 44.85C66.0477 45.05 65.8311 45.15 65.5311 45.15C63.3977 45.05 61.3311 45 59.3311 45C57.5311 45 55.5477 45.05 53.3811 45.15ZM143.997 45.25C143.497 45.25 143.147 45.0833 142.947 44.75L131.697 19.3H131.547L131.647 39.15C131.68 40.05 131.747 40.75 131.847 41.25C131.947 41.7167 132.213 42.1333 132.647 42.5C133.113 42.8333 133.83 43 134.797 43H135.097C135.43 43 135.663 43.0667 135.797 43.2C135.963 43.3 136.063 43.5833 136.097 44.05C136.097 44.35 136.013 44.6167 135.847 44.85C135.713 45.05 135.497 45.15 135.197 45.15L133.947 45.1C132.413 45.0333 131.313 45 130.647 45C129.513 45 127.863 45.05 125.697 45.15C125.397 45.15 125.163 45.05 124.997 44.85C124.863 44.6167 124.797 44.35 124.797 44.05C124.83 43.55 124.93 43.25 125.097 43.15C125.263 43.05 125.58 43 126.047 43C127.013 43 127.713 42.8333 128.147 42.5C128.613 42.1333 128.897 41.7167 128.997 41.25C129.097 40.75 129.163 40.05 129.197 39.15L129.297 19.3C129.297 18.2667 129.18 17.5 128.947 17C128.713 16.4667 128.363 16.1 127.897 15.9C127.463 15.6667 126.813 15.4667 125.947 15.3C125.813 15.2667 125.613 15.2333 125.347 15.2C125.08 15.1333 124.897 15.0333 124.797 14.9C124.73 14.7333 124.697 14.4833 124.697 14.15C124.697 13.75 124.797 13.4833 124.997 13.35C125.23 13.2167 125.58 13.15 126.047 13.15C128.013 13.15 129.63 13.2833 130.897 13.55C132.163 13.7833 133.263 14.2833 134.197 15.05C135.163 15.8167 135.963 16.95 136.597 18.45L145.197 37.75H145.347L155.197 13.45H158.047C159.88 13.45 161.863 13.4 163.997 13.3C164.297 13.3 164.513 13.4167 164.647 13.65C164.813 13.85 164.897 14.1 164.897 14.4C164.863 14.9 164.747 15.2 164.547 15.3C164.38 15.4 164.08 15.45 163.647 15.45C162.68 15.45 161.963 15.6333 161.497 16C161.03 16.3333 160.73 16.7667 160.597 17.3C160.497 17.8 160.43 18.4667 160.397 19.3V39.15C160.43 39.9833 160.497 40.6667 160.597 41.2C160.73 41.7 161.03 42.1333 161.497 42.5C161.963 42.8333 162.68 43 163.647 43H163.947C164.247 43 164.463 43.0667 164.597 43.2C164.763 43.3 164.863 43.5833 164.897 44.05C164.897 44.35 164.813 44.6167 164.647 44.85C164.513 45.05 164.297 45.15 163.997 45.15C161.863 45.05 159.863 45 157.997 45C156.063 45 154.013 45.05 151.847 45.15C151.547 45.15 151.313 45.05 151.147 44.85C151.013 44.6167 150.947 44.35 150.947 44.05C150.98 43.55 151.08 43.25 151.247 43.15C151.413 43.05 151.73 43 152.197 43C153.163 43 153.88 42.8333 154.347 42.5C154.813 42.1333 155.097 41.7 155.197 41.2C155.33 40.6667 155.413 39.9833 155.447 39.15V19.3H155.297L144.997 44.75C144.863 45.0833 144.53 45.25 143.997 45.25ZM170.03 45.15C169.764 45.15 169.547 45.05 169.38 44.85C169.247 44.6167 169.18 44.35 169.18 44.05C169.214 43.55 169.314 43.25 169.48 43.15C169.647 43.05 169.964 43 170.43 43C171.397 43 172.114 42.8333 172.58 42.5C173.047 42.1333 173.33 41.7 173.43 41.2C173.564 40.6667 173.647 39.9833 173.68 39.15V19.3C173.647 18.4667 173.564 17.8 173.43 17.3C173.33 16.7667 173.047 16.3333 172.58 16C172.114 15.6333 171.397 15.45 170.43 15.45H170.13C169.797 15.45 169.564 15.4 169.43 15.3C169.297 15.1667 169.214 14.8667 169.18 14.4C169.18 14.1 169.247 13.85 169.38 13.65C169.547 13.4167 169.764 13.3 170.03 13.3C172.23 13.4 174.214 13.45 175.98 13.45H191.68C192.547 13.45 192.98 13.85 192.98 14.65L193.13 21.65C193.13 21.95 192.98 22.2 192.68 22.4C192.38 22.5667 192.08 22.65 191.78 22.65C191.38 22.65 191.03 22.5833 190.73 22.45C190.43 22.2833 190.264 22.05 190.23 21.75C189.964 20.1167 189.664 18.8833 189.33 18.05C189.03 17.1833 188.564 16.55 187.93 16.15C187.33 15.7167 186.464 15.4833 185.33 15.45H178.63V28.15H187.68C187.914 28.1833 188.097 28.3167 188.23 28.55C188.364 28.75 188.43 29 188.43 29.3C188.43 29.5667 188.364 29.8 188.23 30C188.097 30.2 187.914 30.3 187.68 30.3H178.63V39.75C178.697 40.45 178.78 41.0167 178.88 41.45C178.98 41.85 179.28 42.2167 179.78 42.55C180.28 42.8833 181.064 43.0333 182.13 43H186.73C187.897 42.9667 188.78 42.7833 189.38 42.45C189.98 42.0833 190.447 41.5333 190.78 40.8C191.147 40.0667 191.58 38.8667 192.08 37.2C192.314 36.6 192.88 36.3667 193.78 36.5C194.114 36.5667 194.397 36.7 194.63 36.9C194.897 37.1 195.014 37.35 194.98 37.65L193.98 43.95C193.88 44.3833 193.73 44.6667 193.53 44.8C193.33 44.9333 192.997 45 192.53 45H176.03C174.23 45 172.23 45.05 170.03 45.15Z" fill="black"/>
<path d="M3.33223 45.15V45.65H3.34376L3.35528 45.6495L3.33223 45.15ZM2.63223 44.85L2.19811 45.0981L2.21994 45.1363L2.24812 45.1701L2.63223 44.85ZM2.43223 44.05L1.93333 44.0167L1.93223 44.0334V44.05H2.43223ZM2.73223 43.15L2.98947 43.5787H2.98947L2.73223 43.15ZM5.83223 42.5L6.12285 42.9069L6.13215 42.9002L6.14114 42.8932L5.83223 42.5ZM6.68223 41.2L6.19716 41.0787L6.19427 41.0903L6.19194 41.1019L6.68223 41.2ZM6.93223 39.15L7.43183 39.17L7.43223 39.16V39.15H6.93223ZM6.93223 19.35H7.43223V19.3404L7.43186 19.3308L6.93223 19.35ZM6.68223 17.3L6.19194 17.3981L6.19504 17.4136L6.19911 17.4288L6.68223 17.3ZM5.83223 16L6.14114 15.6068L6.14114 15.6068L5.83223 16ZM2.68223 15.3L2.32867 15.6536L2.3538 15.6787L2.38223 15.7L2.68223 15.3ZM2.43223 14.4H1.93223V14.4178L1.9335 14.4356L2.43223 14.4ZM2.63223 13.65L2.22536 13.3594L2.22067 13.3659L2.2162 13.3726L2.63223 13.65ZM3.33223 13.3L3.35528 12.8005L3.34376 12.8H3.33223V13.3ZM17.8822 13.45L17.8887 12.95H17.8822V13.45ZM24.2822 14.7L24.0693 15.1525L24.08 15.1573L24.2822 14.7ZM28.0822 17.7L27.6627 17.9721L27.6662 17.9774L28.0822 17.7ZM27.0822 26.65L26.7209 26.3044L26.717 26.3086L27.0822 26.65ZM21.1822 29.95L21.0534 29.4669L20.3973 29.6418L20.7591 30.2164L21.1822 29.95ZM22.0322 31.3L22.4576 31.0372L22.4553 31.0336L22.0322 31.3ZM25.8322 37.15L25.4214 37.4351L25.4242 37.439L25.8322 37.15ZM29.5322 41.65L29.1702 41.9948L29.1912 42.017L29.2149 42.0364L29.5322 41.65ZM32.5322 43L32.4702 43.4961L32.5011 43.5H32.5322V43ZM32.9822 43.05L32.9115 43.545L32.9467 43.55H32.9822V43.05ZM33.5322 43.3L33.1418 43.6123L33.1591 43.634L33.1787 43.6536L33.5322 43.3ZM33.5322 44.85L33.1254 44.5594L33.1207 44.5659L33.1162 44.5727L33.5322 44.85ZM32.8822 45.15L32.863 45.6496L32.8726 45.65H32.8822V45.15ZM31.5822 45.1L31.5595 45.5995L31.563 45.5996L31.5822 45.1ZM28.3822 45L28.2842 45.4903L28.3327 45.5H28.3822V45ZM24.9322 43.6L24.6322 44L24.6402 44.006L24.6484 44.0116L24.9322 43.6ZM22.1322 40.65L22.5348 40.3534L22.5297 40.3467L22.1322 40.65ZM18.0822 34.45L18.5101 34.1913L18.507 34.1863L18.0822 34.45ZM17.1822 33L17.6072 32.7363L17.601 32.7269L17.1822 33ZM15.7322 31.45L15.4618 31.8706L15.4728 31.8776L15.4842 31.8841L15.7322 31.45ZM11.8822 31V30.5H11.3822V31H11.8822ZM11.8822 39.15H11.3822V39.16L11.3826 39.17L11.8822 39.15ZM12.0822 41.2L11.5908 41.2921L11.5943 41.3106L11.5991 41.3288L12.0822 41.2ZM12.9822 42.5L12.6733 42.8932L12.6823 42.9002L12.6916 42.9069L12.9822 42.5ZM16.0822 43.2L15.7287 43.5536L15.7722 43.5971L15.825 43.6287L16.0822 43.2ZM16.3822 44.05H16.8822V44.0322L16.881 44.0144L16.3822 44.05ZM16.1322 44.85L15.7254 44.5594L15.7207 44.5659L15.7162 44.5727L16.1322 44.85ZM15.4822 45.15L15.4588 45.6495L15.4705 45.65H15.4822V45.15ZM21.7822 17.25L21.4287 17.6036V17.6036L21.7822 17.25ZM13.1822 15.65L13.3937 16.1031L13.3937 16.1031L13.1822 15.65ZM12.1322 16.85L11.6607 16.6836L11.6563 16.6961L11.6525 16.7089L12.1322 16.85ZM11.8822 29.05H11.3822V29.55H11.8822V29.05ZM3.33223 44.65C3.15536 44.65 3.07295 44.5978 3.01634 44.5299L2.24812 45.1701C2.52484 45.5022 2.90909 45.65 3.33223 45.65V44.65ZM3.06635 44.6019C2.98104 44.4526 2.93223 44.2733 2.93223 44.05H1.93223C1.93223 44.4267 2.01674 44.7807 2.19811 45.0981L3.06635 44.6019ZM2.93112 44.0833C2.9464 43.8541 2.9755 43.7013 3.00657 43.6081C3.04095 43.505 3.05571 43.539 2.98947 43.5787L2.47498 42.7213C2.24208 42.861 2.12351 43.095 2.05789 43.2919C1.98895 43.4987 1.95139 43.7459 1.93333 44.0167L2.93112 44.0833ZM2.98947 43.5787C2.98838 43.5794 3.00052 43.5722 3.03355 43.5619C3.06587 43.5519 3.11136 43.5411 3.17271 43.5314C3.29652 43.5118 3.46437 43.5 3.68223 43.5V42.5C3.43342 42.5 3.2096 42.5132 3.01675 42.5436C2.83085 42.573 2.63765 42.6237 2.47498 42.7213L2.98947 43.5787ZM3.68223 43.5C4.68875 43.5 5.53085 43.3297 6.12285 42.9069L5.54161 42.0931C5.20027 42.3369 4.60904 42.5 3.68223 42.5V43.5ZM6.14114 42.8932C6.68528 42.4656 7.0454 41.9336 7.17252 41.2981L6.19194 41.1019C6.11905 41.4664 5.91251 41.801 5.52332 42.1068L6.14114 42.8932ZM7.1673 41.3213C7.31201 40.7424 7.39775 40.0219 7.43183 39.17L6.43263 39.13C6.40004 39.9448 6.31911 40.5909 6.19716 41.0787L7.1673 41.3213ZM7.43223 39.15V19.35H6.43223V39.15H7.43223ZM7.43186 19.3308C7.39792 18.4483 7.31248 17.7229 7.16534 17.1712L6.19911 17.4288C6.31864 17.8771 6.39987 18.5183 6.4326 19.3692L7.43186 19.3308ZM7.17252 17.2019C7.0454 16.5664 6.68528 16.0344 6.14114 15.6068L5.52332 16.3932C5.91251 16.699 6.11905 17.0336 6.19194 17.3981L7.17252 17.2019ZM6.14114 15.6068C5.54611 15.1393 4.69582 14.95 3.68223 14.95V15.95C4.60197 15.95 5.18501 16.1273 5.52332 16.3932L6.14114 15.6068ZM3.68223 14.95H3.38223V15.95H3.68223V14.95ZM3.38223 14.95C3.23804 14.95 3.13368 14.939 3.06199 14.9236C2.98775 14.9077 2.97162 14.892 2.98223 14.9L2.38223 15.7C2.65387 15.9037 3.03121 15.95 3.38223 15.95V14.95ZM3.03578 14.9464C3.05765 14.9683 3.03343 14.9562 3.00149 14.8412C2.97198 14.7349 2.94631 14.5793 2.93096 14.3644L1.9335 14.4356C1.95148 14.6874 1.98414 14.9151 2.03797 15.1088C2.08935 15.2938 2.17347 15.4983 2.32867 15.6536L3.03578 14.9464ZM2.93223 14.4C2.93223 14.1742 2.98186 14.0269 3.04825 13.9273L2.2162 13.3726C2.01592 13.6731 1.93223 14.0258 1.93223 14.4H2.93223ZM3.03909 13.9406C3.10689 13.8457 3.18489 13.8 3.33223 13.8V12.8C2.87957 12.8 2.49089 12.9876 2.22536 13.3594L3.03909 13.9406ZM3.30917 13.7995C5.48203 13.8998 7.47318 13.95 9.28223 13.95V12.95C7.49128 12.95 5.51576 12.9002 3.35528 12.8005L3.30917 13.7995ZM9.28223 13.95H17.8822V12.95H9.28223V13.95ZM17.8757 13.95C20.3956 13.9827 22.453 14.3918 24.0693 15.1524L24.4951 14.2476C22.7114 13.4082 20.5022 12.984 17.8887 12.95L17.8757 13.95ZM24.08 15.1573C25.7499 15.8959 26.929 16.8408 27.6627 17.9721L28.5017 17.4279C27.6355 16.0925 26.2812 15.0375 24.4845 14.2427L24.08 15.1573ZM27.6662 17.9774C28.4132 19.0978 28.7822 20.3018 28.7822 21.6H29.7822C29.7822 20.0982 29.3513 18.7022 28.4983 17.4226L27.6662 17.9774ZM28.7822 21.6C28.7822 23.2843 28.1136 24.8484 26.7209 26.3044L27.4435 26.9956C28.9842 25.385 29.7822 23.5823 29.7822 21.6H28.7822ZM26.717 26.3086C25.361 27.7591 23.4839 28.8187 21.0534 29.4669L21.3111 30.4331C23.8805 29.7479 25.9368 28.6076 27.4475 26.9914L26.717 26.3086ZM20.7591 30.2164L21.6091 31.5664L22.4553 31.0336L21.6053 29.6836L20.7591 30.2164ZM21.6068 31.5627C23.01 33.8346 24.2817 35.7924 25.4214 37.435L26.243 36.865C25.1161 35.2409 23.8544 33.2987 22.4576 31.0373L21.6068 31.5627ZM25.4242 37.439C26.5713 39.0584 27.82 40.5771 29.1702 41.9948L29.8943 41.3052C28.5778 39.9229 27.3598 38.4416 26.2402 36.861L25.4242 37.439ZM29.2149 42.0364C30.2119 42.8554 31.2985 43.3497 32.4702 43.4961L32.5942 42.5039C31.6326 42.3837 30.7192 41.9779 29.8496 41.2636L29.2149 42.0364ZM32.5322 43.5C32.5307 43.5 32.5383 43.5 32.5595 43.5017C32.5793 43.5032 32.6056 43.5057 32.6395 43.5094C32.7073 43.517 32.7975 43.5287 32.9115 43.545L33.0529 42.555C32.8298 42.5231 32.6417 42.5 32.5322 42.5V43.5ZM32.9822 43.55C33.0798 43.55 33.113 43.5764 33.1418 43.6123L33.9227 42.9877C33.6848 42.6903 33.3513 42.55 32.9822 42.55V43.55ZM33.1787 43.6536C33.2185 43.6934 33.2822 43.7937 33.2822 44.05H34.2822C34.2822 43.6396 34.1793 43.24 33.8858 42.9464L33.1787 43.6536ZM33.2822 44.05C33.2822 44.2509 33.2285 44.4149 33.1254 44.5594L33.9391 45.1406C34.1692 44.8184 34.2822 44.4491 34.2822 44.05H33.2822ZM33.1162 44.5727C33.099 44.5985 33.0621 44.65 32.8822 44.65V45.65C33.3024 45.65 33.6988 45.5015 33.9483 45.1273L33.1162 44.5727ZM32.9014 44.6504L31.6014 44.6004L31.563 45.5996L32.863 45.6496L32.9014 44.6504ZM31.6049 44.6005C30.1374 44.5338 29.0611 44.5 28.3822 44.5V45.5C29.0367 45.5 30.0937 45.5329 31.5595 45.5995L31.6049 44.6005ZM28.4803 44.5097C27.2032 44.2543 26.1187 43.8109 25.2161 43.1884L24.6484 44.0116C25.6791 44.7225 26.8946 45.2124 28.2842 45.4903L28.4803 44.5097ZM25.2322 43.2C24.3488 42.5375 23.4485 41.5935 22.5348 40.3534L21.7297 40.9466C22.6826 42.2398 23.649 43.2625 24.6322 44L25.2322 43.2ZM22.5297 40.3467C21.5804 39.1027 20.2419 37.0555 18.5101 34.1913L17.6544 34.7087C19.3892 37.5779 20.7508 39.664 21.7348 40.9533L22.5297 40.3467ZM18.507 34.1863L17.607 32.7363L16.7574 33.2637L17.6574 34.7137L18.507 34.1863ZM17.601 32.7269C17.0842 31.9344 16.5483 31.3405 15.9803 31.0159L15.4842 31.8841C15.8495 32.0929 16.2802 32.5322 16.7634 33.2731L17.601 32.7269ZM16.0026 31.0294C15.4068 30.6464 14.48 30.5 13.3322 30.5V31.5C14.4512 31.5 15.1244 31.6536 15.4618 31.8706L16.0026 31.0294ZM13.3322 30.5H11.8822V31.5H13.3322V30.5ZM11.3822 31V39.15H12.3822V31H11.3822ZM11.3826 39.17C11.4165 40.0162 11.4846 40.7259 11.5908 41.2921L12.5737 41.1079C12.4798 40.6074 12.4146 39.9505 12.3818 39.13L11.3826 39.17ZM11.5991 41.3288C11.7643 41.9485 12.1345 42.4698 12.6733 42.8932L13.2911 42.1068C12.8966 41.7968 12.6668 41.4515 12.5653 41.0712L11.5991 41.3288ZM12.6916 42.9069C13.2836 43.3297 14.1257 43.5 15.1322 43.5V42.5C14.2054 42.5 13.6142 42.3369 13.2728 42.0931L12.6916 42.9069ZM15.1322 43.5H15.4322V42.5H15.1322V43.5ZM15.4322 43.5C15.5475 43.5 15.6245 43.5131 15.6727 43.5279C15.696 43.535 15.7104 43.542 15.7185 43.5466C15.7226 43.5489 15.7251 43.5507 15.7266 43.5518C15.728 43.5529 15.7286 43.5535 15.7287 43.5536L16.4358 42.8464C16.1661 42.5768 15.7892 42.5 15.4322 42.5V43.5ZM15.825 43.6287C15.7668 43.5938 15.7794 43.565 15.8107 43.6539C15.84 43.7368 15.8685 43.8751 15.8835 44.0856L16.881 44.0144C16.8627 43.7583 16.8245 43.5215 16.7537 43.3211C16.6851 43.1266 16.5643 42.9062 16.3395 42.7713L15.825 43.6287ZM15.8822 44.05C15.8822 44.2509 15.8285 44.4149 15.7254 44.5594L16.5391 45.1406C16.7692 44.8184 16.8822 44.4491 16.8822 44.05H15.8822ZM15.7162 44.5727C15.699 44.5985 15.6621 44.65 15.4822 44.65V45.65C15.9024 45.65 16.2988 45.5015 16.5483 45.1273L15.7162 44.5727ZM15.5056 44.6505C13.3649 44.5502 11.2737 44.5 9.23223 44.5V45.5C11.2574 45.5 13.3329 45.5498 15.4588 45.6495L15.5056 44.6505ZM9.23223 44.5C7.45638 44.5 5.48187 44.5503 3.30917 44.6505L3.35528 45.6495C5.51592 45.5497 7.47474 45.5 9.23223 45.5V44.5ZM16.2822 29.55C18.8351 29.55 20.8429 28.9509 22.2121 27.6644C23.5872 26.3723 24.2322 24.4686 24.2322 22.05H23.2322C23.2322 24.298 22.6356 25.8943 21.5273 26.9356C20.4133 27.9824 18.696 28.55 16.2822 28.55V29.55ZM24.2322 22.05C24.2322 20.0224 23.533 18.2937 22.1358 16.8964L21.4287 17.6036C22.6315 18.8063 23.2322 20.2776 23.2322 22.05H24.2322ZM22.1358 16.8964C20.6984 15.4591 18.4035 14.8 15.3822 14.8V15.8C18.2943 15.8 20.266 16.4409 21.4287 17.6036L22.1358 16.8964ZM15.3822 14.8C14.3895 14.8 13.5693 14.9176 12.9708 15.1969L13.3937 16.1031C13.7951 15.9157 14.4417 15.8 15.3822 15.8V14.8ZM12.9708 15.1969C12.3377 15.4924 11.901 16.0028 11.6607 16.6836L12.6037 17.0164C12.7634 16.5639 13.0268 16.2743 13.3937 16.1031L12.9708 15.1969ZM11.6525 16.7089C11.4649 17.3469 11.3822 18.2725 11.3822 19.45H12.3822C12.3822 18.2941 12.4662 17.4865 12.6119 16.9911L11.6525 16.7089ZM11.3822 19.45V29.05H12.3822V19.45H11.3822ZM11.8822 29.55H16.2822V28.55H11.8822V29.55ZM35.76 34.55L35.321 34.7894L35.3344 34.8139L35.3503 34.8367L35.76 34.55ZM35.76 32.4L35.338 32.1315L35.3312 32.1428L35.76 32.4ZM48.36 32.4L47.921 32.6394L47.9344 32.6639L47.9503 32.6867L48.36 32.4ZM48.36 34.55L47.938 34.2815L47.9312 34.2928L48.36 34.55ZM36.61 34.55C36.4767 34.55 36.3327 34.4963 36.1696 34.2633L35.3503 34.8367C35.6539 35.2703 36.0766 35.55 36.61 35.55V34.55ZM36.1989 34.3106C36.0333 34.007 35.96 33.722 35.96 33.45H34.96C34.96 33.9114 35.0866 34.3597 35.321 34.7894L36.1989 34.3106ZM35.96 33.45C35.96 33.1795 36.0324 32.9177 36.1887 32.6572L35.3312 32.1428C35.0875 32.5489 34.96 32.9872 34.96 33.45H35.96ZM36.1818 32.6684C36.3548 32.3966 36.4989 32.35 36.61 32.35V31.35C36.0544 31.35 35.6318 31.6701 35.3381 32.1316L36.1818 32.6684ZM36.61 32.35H47.56V31.35H36.61V32.35ZM47.56 32.35C47.6616 32.35 47.7826 32.3856 47.921 32.6394L48.7989 32.1606C48.5374 31.6811 48.1249 31.35 47.56 31.35V32.35ZM47.9503 32.6867C48.1316 32.9456 48.21 33.1971 48.21 33.45H49.21C49.21 32.9696 49.055 32.521 48.7696 32.1133L47.9503 32.6867ZM48.21 33.45C48.21 33.7052 48.13 33.98 47.9381 34.2816L48.7818 34.8184C49.0566 34.3866 49.21 33.9282 49.21 33.45H48.21ZM47.9312 34.2928C47.8038 34.5051 47.6857 34.55 47.56 34.55V35.55C48.1009 35.55 48.5161 35.2616 48.7887 34.8072L47.9312 34.2928ZM47.56 34.55H36.61V35.55H47.56V34.55ZM53.3811 45.15V45.65H53.3926L53.4041 45.6495L53.3811 45.15ZM52.6811 44.85L52.2469 45.0981L52.2688 45.1363L52.2969 45.1701L52.6811 44.85ZM52.4811 44.05L51.9822 44.0167L51.9811 44.0334V44.05H52.4811ZM52.7811 43.15L53.0383 43.5787L52.7811 43.15ZM55.8811 42.5L56.1717 42.9069L56.181 42.9002L56.19 42.8932L55.8811 42.5ZM56.7311 41.2L56.246 41.0787L56.2431 41.0903L56.2408 41.1019L56.7311 41.2ZM56.9811 39.15L57.4807 39.17L57.4811 39.16V39.15H56.9811ZM56.9811 19.3H57.4811V19.29L57.4807 19.28L56.9811 19.3ZM56.7311 17.3L56.2396 17.3921L56.2431 17.4106L56.2479 17.4288L56.7311 17.3ZM55.8811 16L55.5721 16.3932L55.5811 16.4002L55.5904 16.4069L55.8811 16ZM52.7311 15.3L52.3775 15.6536L52.4026 15.6787L52.4311 15.7L52.7311 15.3ZM52.4811 14.4H51.9811V14.4178L51.9823 14.4356L52.4811 14.4ZM52.6811 13.65L52.2742 13.3594L52.2695 13.3659L52.265 13.3726L52.6811 13.65ZM53.3811 13.3L53.4041 12.8005L53.3926 12.8H53.3811V13.3ZM65.5311 13.3V12.8H65.5195L65.508 12.8005L65.5311 13.3ZM66.1811 13.65L65.7469 13.8981L65.7688 13.9363L65.7969 13.9701L66.1811 13.65ZM66.4311 14.4L66.9299 14.4333L66.9311 14.4166V14.4H66.4311ZM66.1311 15.3L65.8738 14.8713V14.8713L66.1311 15.3ZM63.0311 16L63.3217 16.4069L63.331 16.4002L63.34 16.3932L63.0311 16ZM62.1311 17.3L61.646 17.1787L61.6431 17.1903L61.6408 17.2019L62.1311 17.3ZM61.9311 19.3L61.4315 19.28L61.4311 19.29V19.3H61.9311ZM61.9311 28.15H61.4311V28.65H61.9311V28.15ZM77.6311 28.15V28.65H78.1311V28.15H77.6311ZM77.6311 19.3H78.1311V19.29L78.1307 19.28L77.6311 19.3ZM77.3811 17.3L76.8896 17.3921L76.8931 17.4106L76.8979 17.4288L77.3811 17.3ZM76.5311 16L76.2221 16.3932L76.2311 16.4002L76.2404 16.4069L76.5311 16ZM73.3311 15.3L72.9775 15.6536L73.021 15.6971L73.0738 15.7287L73.3311 15.3ZM73.0811 14.4H72.5811V14.4178L72.5823 14.4356L73.0811 14.4ZM73.3311 13.65L73.7152 13.9701L73.7271 13.9558L73.7379 13.9406L73.3311 13.65ZM73.9811 13.3L74.0041 12.8005L73.9926 12.8H73.9811V13.3ZM86.1811 13.3V12.8H86.1693L86.1576 12.8005L86.1811 13.3ZM86.8311 13.65L86.3969 13.8981L86.4188 13.9363L86.4469 13.9701L86.8311 13.65ZM87.0811 14.4L87.5799 14.4333L87.5811 14.4166V14.4H87.0811ZM86.7311 15.3L86.5075 14.8528L86.4903 14.8614L86.4738 14.8713L86.7311 15.3ZM83.6311 16L83.9217 16.4069L83.9267 16.4032L83.6311 16ZM82.7311 17.3L82.246 17.1787L82.2431 17.1903L82.2408 17.2019L82.7311 17.3ZM82.5311 19.3L82.0315 19.28L82.0311 19.29V19.3H82.5311ZM82.5311 39.15H82.0311V39.16L82.0315 39.17L82.5311 39.15ZM82.7311 41.2L82.2396 41.2921L82.2431 41.3106L82.2479 41.3288L82.7311 41.2ZM83.6311 42.5L83.3221 42.8932L83.3375 42.9052L83.3537 42.916L83.6311 42.5ZM86.7811 43.2L86.4275 43.5536L86.471 43.5971L86.5238 43.6287L86.7811 43.2ZM87.0811 44.05H87.5811V44.0322L87.5798 44.0144L87.0811 44.05ZM86.8311 44.85L86.4242 44.5594L86.4195 44.5659L86.415 44.5727L86.8311 44.85ZM86.1811 45.15L86.1576 45.6495L86.1693 45.65H86.1811V45.15ZM73.9811 45.15V45.65H73.9926L74.0041 45.6495L73.9811 45.15ZM73.3311 44.85L72.9242 45.1406L72.935 45.1558L72.9469 45.1701L73.3311 44.85ZM73.0811 44.05L72.5822 44.0167L72.5811 44.0334V44.05H73.0811ZM73.3811 43.15L73.1574 42.7028L73.1403 42.7114L73.1238 42.7213L73.3811 43.15ZM76.5311 42.5L76.8217 42.9069L76.831 42.9002L76.84 42.8932L76.5311 42.5ZM77.3811 41.2L76.896 41.0787L76.8931 41.0903L76.8908 41.1019L77.3811 41.2ZM77.6311 39.15L78.1307 39.17L78.1311 39.16V39.15H77.6311ZM77.6311 30.3H78.1311V29.8H77.6311V30.3ZM61.9311 30.3V29.8H61.4311V30.3H61.9311ZM61.9311 39.15H61.4311V39.16L61.4315 39.17L61.9311 39.15ZM62.1311 41.2L61.6396 41.2921L61.6431 41.3106L61.6479 41.3288L62.1311 41.2ZM63.0311 42.5L62.7221 42.8932L62.7311 42.9002L62.7404 42.9069L63.0311 42.5ZM66.1811 43.2L65.8275 43.5536L65.8526 43.5787L65.8811 43.6L66.1811 43.2ZM66.4311 44.05H66.9311V44.0322L66.9298 44.0144L66.4311 44.05ZM66.1811 44.85L65.7742 44.5594L65.7695 44.5659L65.765 44.5727L66.1811 44.85ZM65.5311 45.15L65.5076 45.6495L65.5193 45.65H65.5311V45.15ZM53.3811 44.65C53.2042 44.65 53.1218 44.5978 53.0652 44.5299L52.2969 45.1701C52.5737 45.5022 52.9579 45.65 53.3811 45.65V44.65ZM53.1152 44.6019C53.0299 44.4526 52.9811 44.2733 52.9811 44.05H51.9811C51.9811 44.4267 52.0656 44.7807 52.2469 45.0981L53.1152 44.6019ZM52.9799 44.0833C52.9952 43.8541 53.0243 43.7013 53.0554 43.6081C53.0898 43.505 53.1045 43.539 53.0383 43.5787L52.5238 42.7213C52.2909 42.861 52.1723 43.095 52.1067 43.2919C52.0378 43.4987 52.0002 43.7459 51.9822 44.0167L52.9799 44.0833ZM53.0383 43.5787C53.0372 43.5794 53.0494 43.5722 53.0824 43.5619C53.1147 43.5519 53.1602 43.5411 53.2215 43.5314C53.3454 43.5118 53.5132 43.5 53.7311 43.5V42.5C53.4822 42.5 53.2584 42.5132 53.0656 42.5436C52.8797 42.573 52.6865 42.6237 52.5238 42.7213L53.0383 43.5787ZM53.7311 43.5C54.7376 43.5 55.5797 43.3297 56.1717 42.9069L55.5904 42.0931C55.2491 42.3369 54.6579 42.5 53.7311 42.5V43.5ZM56.19 42.8932C56.7341 42.4656 57.0942 41.9336 57.2213 41.2981L56.2408 41.1019C56.1679 41.4664 55.9613 41.801 55.5721 42.1068L56.19 42.8932ZM57.2161 41.3213C57.3608 40.7424 57.4466 40.0219 57.4807 39.17L56.4815 39.13C56.4489 39.9448 56.3679 40.5909 56.246 41.0787L57.2161 41.3213ZM57.4811 39.15V19.3H56.4811V39.15H57.4811ZM57.4807 19.28C57.4466 18.4293 57.3609 17.7216 57.2142 17.1712L56.2479 17.4288C56.3678 17.8784 56.4488 18.504 56.4815 19.32L57.4807 19.28ZM57.2225 17.2079C57.0972 16.5399 56.7368 15.9968 56.1717 15.5931L55.5904 16.4069C55.9586 16.6699 56.1649 16.9935 56.2396 17.3921L57.2225 17.2079ZM56.19 15.6068C55.5949 15.1393 54.7446 14.95 53.7311 14.95V15.95C54.6508 15.95 55.2338 16.1273 55.5721 16.3932L56.19 15.6068ZM53.7311 14.95H53.4311V15.95H53.7311V14.95ZM53.4311 14.95C53.2869 14.95 53.1825 14.939 53.1108 14.9236C53.0366 14.9077 53.0205 14.892 53.0311 14.9L52.4311 15.7C52.7027 15.9037 53.08 15.95 53.4311 15.95V14.95ZM53.0846 14.9464C53.1065 14.9683 53.0823 14.9562 53.0503 14.8412C53.0208 14.7349 52.9951 14.5793 52.9798 14.3644L51.9823 14.4356C52.0003 14.6874 52.033 14.9151 52.0868 15.1088C52.1382 15.2938 52.2223 15.4983 52.3775 15.6536L53.0846 14.9464ZM52.9811 14.4C52.9811 14.1742 53.0307 14.0269 53.0971 13.9273L52.265 13.3726C52.0648 13.6731 51.9811 14.0258 51.9811 14.4H52.9811ZM53.0879 13.9406C53.1557 13.8457 53.2337 13.8 53.3811 13.8V12.8C52.9284 12.8 52.5397 12.9876 52.2742 13.3594L53.0879 13.9406ZM53.358 13.7995C55.5307 13.8997 57.5052 13.95 59.2811 13.95V12.95C57.5236 12.95 55.5647 12.9003 53.4041 12.8005L53.358 13.7995ZM59.2811 13.95C61.2894 13.95 63.3804 13.8998 65.5541 13.7995L65.508 12.8005C63.3484 12.9002 61.2728 12.95 59.2811 12.95V13.95ZM65.5311 13.8C65.6769 13.8 65.7145 13.8413 65.7469 13.8981L66.6152 13.4019C66.381 12.9921 65.9852 12.8 65.5311 12.8V13.8ZM65.7969 13.9701C65.8775 14.0668 65.9311 14.1982 65.9311 14.4H66.9311C66.9311 14.0018 66.8179 13.6332 66.5652 13.3299L65.7969 13.9701ZM65.9322 14.3667C65.9169 14.5959 65.8878 14.7487 65.8567 14.8419C65.8223 14.945 65.8076 14.911 65.8738 14.8713L66.3883 15.7287C66.6212 15.589 66.7398 15.355 66.8054 15.1581C66.8743 14.9513 66.9119 14.7041 66.9299 14.4333L65.9322 14.3667ZM65.8738 14.8713C65.8749 14.8706 65.8628 14.8778 65.8297 14.8881C65.7974 14.8981 65.7519 14.9089 65.6906 14.9186C65.5668 14.9382 65.3989 14.95 65.1811 14.95V15.95C65.4299 15.95 65.6537 15.9368 65.8465 15.9064C66.0324 15.877 66.2256 15.8263 66.3883 15.7287L65.8738 14.8713ZM65.1811 14.95C64.1675 14.95 63.3172 15.1393 62.7221 15.6068L63.34 16.3932C63.6783 16.1273 64.2613 15.95 65.1811 15.95V14.95ZM62.7404 15.5931C62.1816 15.9923 61.8095 16.5248 61.646 17.1787L62.6161 17.4213C62.7193 17.0085 62.9472 16.6744 63.3217 16.4069L62.7404 15.5931ZM61.6408 17.2019C61.5334 17.7386 61.4653 18.4347 61.4315 19.28L62.4307 19.32C62.4635 18.4986 62.5287 17.8613 62.6213 17.3981L61.6408 17.2019ZM61.4311 19.3V28.15H62.4311V19.3H61.4311ZM61.9311 28.65H77.6311V27.65H61.9311V28.65ZM78.1311 28.15V19.3H77.1311V28.15H78.1311ZM78.1307 19.28C78.0966 18.4293 78.0109 17.7216 77.8642 17.1712L76.8979 17.4288C77.0178 17.8784 77.0988 18.504 77.1315 19.32L78.1307 19.28ZM77.8725 17.2079C77.7472 16.5399 77.3868 15.9968 76.8217 15.5931L76.2404 16.4069C76.6086 16.6699 76.8149 16.9935 76.8896 17.3921L77.8725 17.2079ZM76.84 15.6068C76.2449 15.1393 75.3947 14.95 74.3811 14.95V15.95C75.3008 15.95 75.8838 16.1273 76.2221 16.3932L76.84 15.6068ZM74.3811 14.95H74.0811V15.95H74.3811V14.95ZM74.0811 14.95C73.7814 14.95 73.6398 14.9021 73.5883 14.8713L73.0738 15.7287C73.3557 15.8979 73.714 15.95 74.0811 15.95V14.95ZM73.6846 14.9464C73.7065 14.9683 73.6823 14.9562 73.6503 14.8412C73.6208 14.7349 73.5951 14.5793 73.5798 14.3644L72.5823 14.4356C72.6003 14.6874 72.633 14.9151 72.6868 15.1088C72.7382 15.2938 72.8223 15.4983 72.9775 15.6536L73.6846 14.9464ZM73.5811 14.4C73.5811 14.1982 73.6346 14.0668 73.7152 13.9701L72.9469 13.3299C72.6942 13.6332 72.5811 14.0018 72.5811 14.4H73.5811ZM73.7379 13.9406C73.819 13.8271 73.8896 13.8 73.9811 13.8V12.8C73.5392 12.8 73.1764 13.0062 72.9242 13.3594L73.7379 13.9406ZM73.958 13.7995C76.1317 13.8998 78.2228 13.95 80.2311 13.95V12.95C78.2394 12.95 76.1637 12.9002 74.0041 12.8005L73.958 13.7995ZM80.2311 13.95C82.0733 13.95 84.0646 13.8998 86.2045 13.7995L86.1576 12.8005C84.0309 12.9002 82.0554 12.95 80.2311 12.95V13.95ZM86.1811 13.8C86.3269 13.8 86.3645 13.8413 86.3969 13.8981L87.2652 13.4019C87.031 12.9921 86.6352 12.8 86.1811 12.8V13.8ZM86.4469 13.9701C86.5275 14.0668 86.5811 14.1982 86.5811 14.4H87.5811C87.5811 14.0018 87.4679 13.6332 87.2152 13.3299L86.4469 13.9701ZM86.5822 14.3667C86.5672 14.5909 86.5352 14.7348 86.5026 14.8188C86.4696 14.9034 86.4561 14.8784 86.5075 14.8528L86.9547 15.7472C87.206 15.6215 87.3508 15.3966 87.4346 15.1812C87.5186 14.9652 87.5616 14.7091 87.5799 14.4333L86.5822 14.3667ZM86.4738 14.8713C86.4352 14.8944 86.2601 14.95 85.8311 14.95V15.95C86.2687 15.95 86.6935 15.9056 86.9883 15.7287L86.4738 14.8713ZM85.8311 14.95C84.8135 14.95 83.9571 15.1409 83.3354 15.5968L83.9267 16.4032C84.305 16.1258 84.9152 15.95 85.8311 15.95V14.95ZM83.3404 15.5931C82.7816 15.9923 82.4095 16.5248 82.246 17.1787L83.2161 17.4213C83.3193 17.0085 83.5472 16.6744 83.9217 16.4069L83.3404 15.5931ZM82.2408 17.2019C82.1334 17.7386 82.0653 18.4347 82.0315 19.28L83.0307 19.32C83.0635 18.4986 83.1287 17.8613 83.2213 17.3981L82.2408 17.2019ZM82.0311 19.3V39.15H83.0311V19.3H82.0311ZM82.0315 39.17C82.0653 40.0162 82.1335 40.7259 82.2396 41.2921L83.2225 41.1079C83.1287 40.6074 83.0635 39.9505 83.0307 39.13L82.0315 39.17ZM82.2479 41.3288C82.4132 41.9485 82.7834 42.4698 83.3221 42.8932L83.94 42.1068C83.5454 41.7968 83.3156 41.4515 83.2142 41.0712L82.2479 41.3288ZM83.3537 42.916C83.9719 43.3282 84.8205 43.5 85.8311 43.5V42.5C84.9083 42.5 84.2902 42.3385 83.9084 42.084L83.3537 42.916ZM85.8311 43.5H86.1311V42.5H85.8311V43.5ZM86.1311 43.5C86.2463 43.5 86.3234 43.5131 86.3715 43.5279C86.3948 43.535 86.4092 43.542 86.4174 43.5466C86.4214 43.5489 86.424 43.5507 86.4254 43.5518C86.4269 43.5529 86.4275 43.5535 86.4275 43.5536L87.1346 42.8464C86.865 42.5768 86.4881 42.5 86.1311 42.5V43.5ZM86.5238 43.6287C86.4656 43.5938 86.4782 43.565 86.5096 43.6539C86.5388 43.7368 86.5673 43.8751 86.5823 44.0856L87.5798 44.0144C87.5615 43.7583 87.5233 43.5215 87.4526 43.3211C87.3839 43.1266 87.2632 42.9062 87.0383 42.7713L86.5238 43.6287ZM86.5811 44.05C86.5811 44.2509 86.5274 44.4149 86.4242 44.5594L87.2379 45.1406C87.4681 44.8184 87.5811 44.4491 87.5811 44.05H86.5811ZM86.415 44.5727C86.3978 44.5985 86.3609 44.65 86.1811 44.65V45.65C86.6012 45.65 86.9977 45.5015 87.2471 45.1273L86.415 44.5727ZM86.2045 44.6505C84.0644 44.5502 82.0565 44.5 80.1811 44.5V45.5C82.0389 45.5 84.031 45.5498 86.1576 45.6495L86.2045 44.6505ZM80.1811 44.5C78.206 44.5 76.1316 44.5502 73.958 44.6505L74.0041 45.6495C76.1639 45.5498 78.2228 45.5 80.1811 45.5V44.5ZM73.9811 44.65C73.8586 44.65 73.7842 44.6128 73.7152 44.5299L72.9469 45.1701C73.2112 45.4872 73.5702 45.65 73.9811 45.65V44.65ZM73.7379 44.5594C73.6347 44.4149 73.5811 44.2509 73.5811 44.05H72.5811C72.5811 44.4491 72.694 44.8184 72.9242 45.1406L73.7379 44.5594ZM73.5799 44.0833C73.5952 43.8541 73.6243 43.7013 73.6554 43.6081C73.6898 43.505 73.7045 43.539 73.6383 43.5787L73.1238 42.7213C72.8909 42.861 72.7723 43.095 72.7067 43.2919C72.6378 43.4987 72.6002 43.7459 72.5822 44.0167L73.5799 44.0833ZM73.6047 43.5972C73.6934 43.5528 73.9253 43.5 74.3811 43.5V42.5C73.9035 42.5 73.4687 42.5472 73.1574 42.7028L73.6047 43.5972ZM74.3811 43.5C75.3876 43.5 76.2297 43.3297 76.8217 42.9069L76.2404 42.0931C75.8991 42.3369 75.3079 42.5 74.3811 42.5V43.5ZM76.84 42.8932C77.3841 42.4656 77.7442 41.9336 77.8713 41.2981L76.8908 41.1019C76.8179 41.4664 76.6113 41.801 76.2221 42.1068L76.84 42.8932ZM77.8661 41.3213C78.0108 40.7424 78.0966 40.0219 78.1307 39.17L77.1315 39.13C77.0989 39.9448 77.0179 40.5909 76.896 41.0787L77.8661 41.3213ZM78.1311 39.15V30.3H77.1311V39.15H78.1311ZM77.6311 29.8H61.9311V30.8H77.6311V29.8ZM61.4311 30.3V39.15H62.4311V30.3H61.4311ZM61.4315 39.17C61.4653 40.0162 61.5335 40.7259 61.6396 41.2921L62.6225 41.1079C62.5287 40.6074 62.4635 39.9505 62.4307 39.13L61.4315 39.17ZM61.6479 41.3288C61.8132 41.9485 62.1834 42.4698 62.7221 42.8932L63.34 42.1068C62.9454 41.7968 62.7156 41.4515 62.6142 41.0712L61.6479 41.3288ZM62.7404 42.9069C63.3324 43.3297 64.1745 43.5 65.1811 43.5V42.5C64.2542 42.5 63.663 42.3369 63.3217 42.0931L62.7404 42.9069ZM65.1811 43.5H65.4811V42.5H65.1811V43.5ZM65.4811 43.5C65.6173 43.5 65.7098 43.5139 65.7687 43.5308C65.8265 43.5473 65.8358 43.5618 65.8275 43.5536L66.5346 42.8464C66.2573 42.5692 65.8532 42.5 65.4811 42.5V43.5ZM65.8811 43.6C65.8445 43.5726 65.8329 43.5493 65.8364 43.5554C65.8396 43.5611 65.8504 43.5828 65.8639 43.6286C65.8913 43.722 65.9169 43.8699 65.9323 44.0856L66.9298 44.0144C66.9119 43.7634 66.8791 43.5364 66.8232 43.3464C66.7719 43.172 66.6785 42.9481 66.4811 42.8L65.8811 43.6ZM65.9311 44.05C65.9311 44.2509 65.8774 44.4149 65.7742 44.5594L66.5879 45.1406C66.8181 44.8184 66.9311 44.4491 66.9311 44.05H65.9311ZM65.765 44.5727C65.7478 44.5985 65.7109 44.65 65.5311 44.65V45.65C65.9512 45.65 66.3476 45.5015 66.5971 45.1273L65.765 44.5727ZM65.5545 44.6505C63.4139 44.5502 61.3394 44.5 59.3311 44.5V45.5C61.3227 45.5 63.3816 45.5498 65.5076 45.6495L65.5545 44.6505ZM59.3311 44.5C57.522 44.5 55.5309 44.5502 53.358 44.6505L53.4041 45.6495C55.5646 45.5498 57.5401 45.5 59.3311 45.5V44.5ZM142.947 44.75L142.489 44.9522L142.502 44.9806L142.518 45.0072L142.947 44.75ZM131.697 19.3L132.154 19.0978L132.022 18.8H131.697V19.3ZM131.547 19.3V18.8H131.044L131.047 19.3025L131.547 19.3ZM131.647 39.15L131.147 39.1525L131.147 39.1605L131.147 39.1685L131.647 39.15ZM131.847 41.25L131.356 41.3481L131.358 41.3548L131.847 41.25ZM132.647 42.5L132.324 42.8817L132.339 42.8949L132.356 42.9069L132.647 42.5ZM135.797 43.2L135.443 43.5536L135.487 43.5971L135.539 43.6287L135.797 43.2ZM136.097 44.05H136.597V44.0322L136.595 44.0144L136.097 44.05ZM135.847 44.85L135.44 44.5594L135.435 44.5659L135.431 44.5727L135.847 44.85ZM135.197 45.15L135.177 45.6496L135.187 45.65H135.197V45.15ZM133.947 45.1L133.925 45.5995L133.927 45.5996L133.947 45.1ZM125.697 45.15V45.65H125.708L125.72 45.6495L125.697 45.15ZM124.997 44.85L124.563 45.0981L124.584 45.1363L124.613 45.1701L124.997 44.85ZM124.797 44.05L124.298 44.0167L124.297 44.0334V44.05H124.797ZM125.097 43.15L125.354 43.5787L125.097 43.15ZM128.147 42.5L128.452 42.8963L128.456 42.8932L128.147 42.5ZM128.997 41.25L129.486 41.3548L129.487 41.3481L128.997 41.25ZM129.197 39.15L129.696 39.1685L129.697 39.1605L129.697 39.1525L129.197 39.15ZM129.297 19.3L129.797 19.3025V19.3H129.297ZM128.947 17L128.488 17.2005L128.494 17.2114L128.947 17ZM127.897 15.9L127.66 16.3402L127.679 16.3508L127.7 16.3596L127.897 15.9ZM125.947 15.3L125.825 15.7851L125.839 15.7884L125.852 15.791L125.947 15.3ZM125.347 15.2L125.225 15.6851L125.255 15.6924L125.285 15.6961L125.347 15.2ZM124.797 14.9L124.332 15.0857L124.357 15.1471L124.397 15.2L124.797 14.9ZM124.997 13.35L124.749 12.9159L124.734 12.9244L124.719 12.934L124.997 13.35ZM130.897 13.55L130.794 14.0394L130.806 14.0417L130.897 13.55ZM134.197 15.05L133.879 15.4364L133.886 15.4417L134.197 15.05ZM136.597 18.45L136.136 18.6445L136.14 18.6535L136.597 18.45ZM145.197 37.75L144.74 37.9535L144.872 38.25H145.197V37.75ZM145.347 37.75V38.25H145.684L145.81 37.9378L145.347 37.75ZM155.197 13.45V12.95H154.86L154.733 13.2622L155.197 13.45ZM163.997 13.3V12.8H163.985L163.973 12.8005L163.997 13.3ZM164.647 13.65L164.213 13.8981L164.234 13.9363L164.263 13.9701L164.647 13.65ZM164.897 14.4L165.396 14.4333L165.397 14.4166V14.4H164.897ZM164.547 15.3L164.323 14.8528L164.306 14.8614L164.289 14.8713L164.547 15.3ZM161.497 16L161.787 16.4069L161.797 16.4002L161.806 16.3932L161.497 16ZM160.597 17.3L160.112 17.1787L160.109 17.1903L160.106 17.2019L160.597 17.3ZM160.397 19.3L159.897 19.28L159.897 19.29V19.3H160.397ZM160.397 39.15H159.897V39.16L159.897 39.17L160.397 39.15ZM160.597 41.2L160.105 41.2921L160.109 41.3106L160.114 41.3288L160.597 41.2ZM161.497 42.5L161.188 42.8932L161.197 42.9002L161.206 42.9069L161.497 42.5ZM164.597 43.2L164.243 43.5536L164.287 43.5971L164.339 43.6287L164.597 43.2ZM164.897 44.05H165.397V44.0322L165.395 44.0144L164.897 44.05ZM164.647 44.85L164.24 44.5594L164.235 44.5659L164.231 44.5727L164.647 44.85ZM163.997 45.15L163.973 45.6495L163.985 45.65H163.997V45.15ZM151.847 45.15V45.65H151.858L151.87 45.6495L151.847 45.15ZM151.147 44.85L150.713 45.0981L150.734 45.1363L150.763 45.1701L151.147 44.85ZM150.947 44.05L150.448 44.0167L150.447 44.0334V44.05H150.947ZM151.247 43.15L151.504 43.5787L151.247 43.15ZM154.347 42.5L154.637 42.9069L154.647 42.9002L154.656 42.8932L154.347 42.5ZM155.197 41.2L154.712 41.0787L154.709 41.0903L154.706 41.1019L155.197 41.2ZM155.447 39.15L155.946 39.17L155.947 39.16V39.15H155.447ZM155.447 19.3H155.947V18.8H155.447V19.3ZM155.297 19.3V18.8H154.96L154.833 19.1124L155.297 19.3ZM144.997 44.75L144.533 44.5624L144.532 44.5643L144.997 44.75ZM143.997 44.75C143.615 44.75 143.459 44.6319 143.375 44.4928L142.518 45.0072C142.834 45.5347 143.379 45.75 143.997 45.75V44.75ZM143.404 44.5478L132.154 19.0978L131.239 19.5022L142.489 44.9522L143.404 44.5478ZM131.697 18.8H131.547V19.8H131.697V18.8ZM131.047 19.3025L131.147 39.1525L132.147 39.1475L132.047 19.2975L131.047 19.3025ZM131.147 39.1685C131.181 40.0783 131.249 40.8093 131.356 41.3481L132.337 41.1519C132.245 40.6907 132.179 40.0217 132.146 39.1315L131.147 39.1685ZM131.358 41.3548C131.485 41.949 131.823 42.4576 132.324 42.8817L132.97 42.1183C132.604 41.8091 132.408 41.4843 132.336 41.1452L131.358 41.3548ZM132.356 42.9069C132.948 43.3297 133.79 43.5 134.797 43.5V42.5C133.87 42.5 133.279 42.3369 132.937 42.0931L132.356 42.9069ZM134.797 43.5H135.097V42.5H134.797V43.5ZM135.097 43.5C135.233 43.5 135.325 43.5139 135.384 43.5308C135.442 43.5473 135.451 43.5618 135.443 43.5536L136.15 42.8464C135.873 42.5692 135.469 42.5 135.097 42.5V43.5ZM135.539 43.6287C135.481 43.5938 135.494 43.565 135.525 43.6539C135.554 43.7368 135.583 43.8751 135.598 44.0856L136.595 44.0144C136.577 43.7583 136.539 43.5215 136.468 43.3211C136.4 43.1266 136.279 42.9062 136.054 42.7713L135.539 43.6287ZM135.597 44.05C135.597 44.2509 135.543 44.4149 135.44 44.5594L136.254 45.1406C136.484 44.8184 136.597 44.4491 136.597 44.05H135.597ZM135.431 44.5727C135.413 44.5985 135.377 44.65 135.197 44.65V45.65C135.617 45.65 136.013 45.5015 136.263 45.1273L135.431 44.5727ZM135.217 44.6504L133.967 44.6004L133.927 45.5996L135.177 45.6496L135.217 44.6504ZM133.968 44.6005C132.435 44.5338 131.325 44.5 130.647 44.5V45.5C131.302 45.5 132.392 45.5329 133.925 45.5995L133.968 44.6005ZM130.647 44.5C129.502 44.5 127.842 44.5504 125.674 44.6505L125.72 45.6495C127.884 45.5496 129.525 45.5 130.647 45.5V44.5ZM125.697 44.65C125.52 44.65 125.437 44.5978 125.381 44.5299L124.613 45.1701C124.889 45.5022 125.274 45.65 125.697 45.65V44.65ZM125.431 44.6019C125.345 44.4526 125.297 44.2733 125.297 44.05H124.297C124.297 44.4267 124.381 44.7807 124.563 45.0981L125.431 44.6019ZM125.296 44.0833C125.311 43.8541 125.34 43.7013 125.371 43.6081C125.405 43.505 125.42 43.539 125.354 43.5787L124.839 42.7213C124.607 42.861 124.488 43.095 124.422 43.2919C124.353 43.4987 124.316 43.7459 124.298 44.0167L125.296 44.0833ZM125.354 43.5787C125.353 43.5794 125.365 43.5722 125.398 43.5619C125.43 43.5519 125.476 43.5411 125.537 43.5314C125.661 43.5118 125.829 43.5 126.047 43.5V42.5C125.798 42.5 125.574 42.5132 125.381 42.5436C125.195 42.573 125.002 42.6237 124.839 42.7213L125.354 43.5787ZM126.047 43.5C127.048 43.5 127.886 43.3316 128.452 42.8963L127.842 42.1037C127.541 42.335 126.978 42.5 126.047 42.5V43.5ZM128.456 42.8932C128.991 42.4724 129.356 41.9613 129.486 41.3548L128.508 41.1452C128.438 41.472 128.236 41.7942 127.838 42.1068L128.456 42.8932ZM129.487 41.3481C129.595 40.8093 129.663 40.0783 129.696 39.1685L128.697 39.1315C128.664 40.0217 128.599 40.6907 128.506 41.1519L129.487 41.3481ZM129.697 39.1525L129.797 19.3025L128.797 19.2975L128.697 39.1475L129.697 39.1525ZM129.797 19.3C129.797 18.2465 129.68 17.3901 129.4 16.7886L128.494 17.2114C128.68 17.6099 128.797 18.2868 128.797 19.3H129.797ZM129.405 16.7996C129.129 16.1682 128.694 15.6979 128.094 15.4404L127.7 16.3596C128.032 16.5021 128.298 16.7652 128.489 17.2004L129.405 16.7996ZM128.134 15.4598C127.634 15.1904 126.925 14.9789 126.041 14.809L125.852 15.791C126.702 15.9544 127.293 16.1429 127.66 16.3402L128.134 15.4598ZM126.068 14.8149C125.905 14.7741 125.68 14.7378 125.409 14.7039L125.285 15.6961C125.546 15.7289 125.722 15.7593 125.825 15.7851L126.068 14.8149ZM125.468 14.7149C125.364 14.6889 125.293 14.6605 125.249 14.6361C125.204 14.6119 125.194 14.5968 125.197 14.6L124.397 15.2C124.598 15.4683 124.914 15.6072 125.225 15.6851L125.468 14.7149ZM125.261 14.7143C125.23 14.6376 125.197 14.4647 125.197 14.15H124.197C124.197 14.5019 124.23 14.8291 124.332 15.0857L125.261 14.7143ZM125.197 14.15C125.197 13.9876 125.218 13.885 125.24 13.8256C125.25 13.7973 125.26 13.7821 125.265 13.775C125.27 13.7685 125.273 13.7667 125.274 13.766L124.719 12.934C124.307 13.2086 124.197 13.6952 124.197 14.15H125.197ZM125.245 13.7841C125.366 13.7151 125.611 13.65 126.047 13.65V12.65C125.549 12.65 125.094 12.7183 124.749 12.9159L125.245 13.7841ZM126.047 13.65C127.995 13.65 129.574 13.7824 130.794 14.0393L131 13.0607C129.687 12.7843 128.032 12.65 126.047 12.65V13.65ZM130.806 14.0417C131.995 14.2608 133.016 14.727 133.879 15.4364L134.514 14.6636C133.511 13.8396 132.332 13.3059 130.987 13.0583L130.806 14.0417ZM133.886 15.4417C134.769 16.1423 135.525 17.1979 136.136 18.6445L137.057 18.2555C136.401 16.7021 135.557 15.4911 134.507 14.6582L133.886 15.4417ZM136.14 18.6535L144.74 37.9535L145.653 37.5465L137.053 18.2465L136.14 18.6535ZM145.197 38.25H145.347V37.25H145.197V38.25ZM145.81 37.9378L155.66 13.6378L154.733 13.2622L144.883 37.5622L145.81 37.9378ZM155.197 13.95H158.047V12.95H155.197V13.95ZM158.047 13.95C159.889 13.95 161.88 13.8998 164.02 13.7995L163.973 12.8005C161.846 12.9002 159.871 12.95 158.047 12.95V13.95ZM163.997 13.8C164.143 13.8 164.18 13.8413 164.213 13.8981L165.081 13.4019C164.847 12.9921 164.451 12.8 163.997 12.8V13.8ZM164.263 13.9701C164.343 14.0668 164.397 14.1982 164.397 14.4H165.397C165.397 14.0018 165.284 13.6332 165.031 13.3299L164.263 13.9701ZM164.398 14.3667C164.383 14.5909 164.351 14.7348 164.318 14.8188C164.285 14.9034 164.272 14.8784 164.323 14.8528L164.77 15.7472C165.022 15.6215 165.166 15.3966 165.25 15.1812C165.334 14.9652 165.377 14.7091 165.396 14.4333L164.398 14.3667ZM164.289 14.8713C164.251 14.8944 164.076 14.95 163.647 14.95V15.95C164.084 15.95 164.509 15.9056 164.804 15.7287L164.289 14.8713ZM163.647 14.95C162.633 14.95 161.783 15.1393 161.188 15.6068L161.806 16.3932C162.144 16.1273 162.727 15.95 163.647 15.95V14.95ZM161.206 15.5931C160.647 15.9923 160.275 16.5248 160.112 17.1787L161.082 17.4213C161.185 17.0085 161.413 16.6744 161.787 16.4069L161.206 15.5931ZM160.106 17.2019C159.999 17.7386 159.931 18.4347 159.897 19.28L160.896 19.32C160.929 18.4986 160.994 17.8613 161.087 17.3981L160.106 17.2019ZM159.897 19.3V39.15H160.897V19.3H159.897ZM159.897 39.17C159.931 40.0162 159.999 40.7259 160.105 41.2921L161.088 41.1079C160.994 40.6074 160.929 39.9505 160.896 39.13L159.897 39.17ZM160.114 41.3288C160.279 41.9485 160.649 42.4698 161.188 42.8932L161.806 42.1068C161.411 41.7968 161.181 41.4515 161.08 41.0712L160.114 41.3288ZM161.206 42.9069C161.798 43.3297 162.64 43.5 163.647 43.5V42.5C162.72 42.5 162.129 42.3369 161.787 42.0931L161.206 42.9069ZM163.647 43.5H163.947V42.5H163.647V43.5ZM163.947 43.5C164.062 43.5 164.139 43.5131 164.187 43.5279C164.21 43.535 164.225 43.542 164.233 43.5466C164.237 43.5489 164.24 43.5507 164.241 43.5518C164.242 43.5529 164.243 43.5535 164.243 43.5536L164.95 42.8464C164.681 42.5768 164.304 42.5 163.947 42.5V43.5ZM164.339 43.6287C164.281 43.5938 164.294 43.565 164.325 43.6539C164.354 43.7368 164.383 43.8751 164.398 44.0856L165.395 44.0144C165.377 43.7583 165.339 43.5215 165.268 43.3211C165.2 43.1266 165.079 42.9062 164.854 42.7713L164.339 43.6287ZM164.397 44.05C164.397 44.2509 164.343 44.4149 164.24 44.5594L165.054 45.1406C165.284 44.8184 165.397 44.4491 165.397 44.05H164.397ZM164.231 44.5727C164.213 44.5985 164.177 44.65 163.997 44.65V45.65C164.417 45.65 164.813 45.5015 165.063 45.1273L164.231 44.5727ZM164.02 44.6505C161.88 44.5502 159.872 44.5 157.997 44.5V45.5C159.855 45.5 161.847 45.5498 163.973 45.6495L164.02 44.6505ZM157.997 44.5C156.055 44.5 153.997 44.5502 151.824 44.6505L151.87 45.6495C154.03 45.5498 156.072 45.5 157.997 45.5V44.5ZM151.847 44.65C151.67 44.65 151.587 44.5978 151.531 44.5299L150.763 45.1701C151.039 45.5022 151.424 45.65 151.847 45.65V44.65ZM151.581 44.6019C151.495 44.4526 151.447 44.2733 151.447 44.05H150.447C150.447 44.4267 150.531 44.7807 150.713 45.0981L151.581 44.6019ZM151.446 44.0833C151.461 43.8541 151.49 43.7013 151.521 43.6081C151.555 43.505 151.57 43.539 151.504 43.5787L150.989 42.7213C150.757 42.861 150.638 43.095 150.572 43.2919C150.503 43.4987 150.466 43.7459 150.448 44.0167L151.446 44.0833ZM151.504 43.5787C151.503 43.5794 151.515 43.5722 151.548 43.5619C151.58 43.5519 151.626 43.5411 151.687 43.5314C151.811 43.5118 151.979 43.5 152.197 43.5V42.5C151.948 42.5 151.724 42.5132 151.531 42.5436C151.345 42.573 151.152 42.6237 150.989 42.7213L151.504 43.5787ZM152.197 43.5C153.203 43.5 154.045 43.3297 154.637 42.9069L154.056 42.0931C153.715 42.3369 153.123 42.5 152.197 42.5V43.5ZM154.656 42.8932C155.2 42.4656 155.56 41.9336 155.687 41.2981L154.706 41.1019C154.634 41.4664 154.427 41.801 154.038 42.1068L154.656 42.8932ZM155.682 41.3213C155.826 40.7424 155.912 40.0219 155.946 39.17L154.947 39.13C154.914 39.9448 154.834 40.5909 154.712 41.0787L155.682 41.3213ZM155.947 39.15V19.3H154.947V39.15H155.947ZM155.447 18.8H155.297V19.8H155.447V18.8ZM154.833 19.1124L144.533 44.5624L145.46 44.9376L155.76 19.4876L154.833 19.1124ZM144.532 44.5643C144.51 44.6193 144.441 44.75 143.997 44.75V45.75C144.619 45.75 145.216 45.5473 145.461 44.9357L144.532 44.5643ZM170.03 45.15V45.65H170.042L170.053 45.6495L170.03 45.15ZM169.38 44.85L168.946 45.0981L168.968 45.1363L168.996 45.1701L169.38 44.85ZM169.18 44.05L168.681 44.0167L168.68 44.0334V44.05H169.18ZM169.48 43.15L169.738 43.5787L169.48 43.15ZM172.58 42.5L172.871 42.9069L172.88 42.9002L172.889 42.8932L172.58 42.5ZM173.43 41.2L172.945 41.0787L172.942 41.0903L172.94 41.1019L173.43 41.2ZM173.68 39.15L174.18 39.17L174.18 39.16V39.15H173.68ZM173.68 19.3H174.18V19.29L174.18 19.28L173.68 19.3ZM173.43 17.3L172.939 17.3921L172.942 17.4106L172.947 17.4288L173.43 17.3ZM172.58 16L172.271 16.3932L172.28 16.4002L172.29 16.4069L172.58 16ZM169.43 15.3L169.077 15.6536L169.102 15.6787L169.13 15.7L169.43 15.3ZM169.18 14.4H168.68V14.4178L168.682 14.4356L169.18 14.4ZM169.38 13.65L168.973 13.3594L168.969 13.3659L168.964 13.3726L169.38 13.65ZM170.03 13.3L170.053 12.8005L170.042 12.8H170.03V13.3ZM192.98 14.65H192.48L192.48 14.6607L192.98 14.65ZM193.13 21.65H193.63L193.63 21.6393L193.13 21.65ZM192.68 22.4L192.923 22.8371L192.941 22.8272L192.958 22.816L192.68 22.4ZM190.73 22.45L190.487 22.8871L190.507 22.8979L190.527 22.9069L190.73 22.45ZM190.23 21.75L190.727 21.6948L190.726 21.6821L190.724 21.6694L190.23 21.75ZM189.33 18.05L188.858 18.2136L188.862 18.2247L188.866 18.2357L189.33 18.05ZM187.93 16.15L187.638 16.5553L187.65 16.5644L187.663 16.5727L187.93 16.15ZM185.33 15.45L185.345 14.9502L185.338 14.95H185.33V15.45ZM178.63 15.45V14.95H178.13V15.45H178.63ZM178.63 28.15H178.13V28.65H178.63V28.15ZM187.68 28.15L187.751 27.655L187.716 27.65H187.68V28.15ZM188.23 28.55L187.796 28.7981L187.805 28.813L187.814 28.8273L188.23 28.55ZM178.63 30.3V29.8H178.13V30.3H178.63ZM178.63 39.75H178.13V39.7738L178.133 39.7974L178.63 39.75ZM178.88 41.45L178.393 41.5624L178.395 41.5713L178.88 41.45ZM179.78 42.55L180.058 42.134H180.058L179.78 42.55ZM182.13 43V42.5H182.122L182.115 42.5002L182.13 43ZM186.73 43V43.5H186.737L186.745 43.4998L186.73 43ZM189.38 42.45L189.623 42.8871L189.632 42.882L189.641 42.8766L189.38 42.45ZM190.78 40.8L190.333 40.5764L190.329 40.5847L190.325 40.5931L190.78 40.8ZM192.08 37.2L191.614 37.0188L191.607 37.0373L191.601 37.0563L192.08 37.2ZM193.78 36.5L193.878 36.0097L193.866 36.0072L193.854 36.0054L193.78 36.5ZM194.63 36.9L194.305 37.2796L194.317 37.2902L194.33 37.3L194.63 36.9ZM194.98 37.65L195.474 37.7284L195.476 37.7168L195.477 37.7052L194.98 37.65ZM193.98 43.95L194.467 44.0624L194.471 44.0455L194.474 44.0284L193.98 43.95ZM170.03 44.65C169.908 44.65 169.833 44.6128 169.764 44.5299L168.996 45.1701C169.26 45.4872 169.619 45.65 170.03 45.65V44.65ZM169.814 44.6019C169.729 44.4526 169.68 44.2733 169.68 44.05H168.68C168.68 44.4267 168.765 44.7807 168.946 45.0981L169.814 44.6019ZM169.679 44.0833C169.694 43.8541 169.724 43.7013 169.755 43.6081C169.789 43.505 169.804 43.539 169.738 43.5787L169.223 42.7213C168.99 42.861 168.872 43.095 168.806 43.2919C168.737 43.4987 168.699 43.7459 168.681 44.0167L169.679 44.0833ZM169.738 43.5787C169.736 43.5794 169.749 43.5722 169.782 43.5619C169.814 43.5519 169.859 43.5411 169.921 43.5314C170.045 43.5118 170.212 43.5 170.43 43.5V42.5C170.181 42.5 169.958 42.5132 169.765 42.5436C169.579 42.573 169.386 42.6237 169.223 42.7213L169.738 43.5787ZM170.43 43.5C171.437 43.5 172.279 43.3297 172.871 42.9069L172.29 42.0931C171.948 42.3369 171.357 42.5 170.43 42.5V43.5ZM172.889 42.8932C173.433 42.4656 173.793 41.9336 173.921 41.2981L172.94 41.1019C172.867 41.4664 172.661 41.801 172.271 42.1068L172.889 42.8932ZM173.915 41.3213C174.06 40.7424 174.146 40.0219 174.18 39.17L173.181 39.13C173.148 39.9448 173.067 40.5909 172.945 41.0787L173.915 41.3213ZM174.18 39.15V19.3H173.18V39.15H174.18ZM174.18 19.28C174.146 18.4293 174.06 17.7216 173.913 17.1712L172.947 17.4288C173.067 17.8784 173.148 18.504 173.181 19.32L174.18 19.28ZM173.922 17.2079C173.796 16.5399 173.436 15.9968 172.871 15.5931L172.29 16.4069C172.658 16.6699 172.864 16.9935 172.939 17.3921L173.922 17.2079ZM172.889 15.6068C172.294 15.1393 171.444 14.95 170.43 14.95V15.95C171.35 15.95 171.933 16.1273 172.271 16.3932L172.889 15.6068ZM170.43 14.95H170.13V15.95H170.43V14.95ZM170.13 14.95C169.986 14.95 169.882 14.939 169.81 14.9236C169.736 14.9077 169.72 14.892 169.73 14.9L169.13 15.7C169.402 15.9037 169.779 15.95 170.13 15.95V14.95ZM169.784 14.9464C169.806 14.9683 169.781 14.9562 169.75 14.8412C169.72 14.7349 169.694 14.5793 169.679 14.3644L168.682 14.4356C168.7 14.6874 168.732 14.9151 168.786 15.1088C168.837 15.2938 168.922 15.4983 169.077 15.6536L169.784 14.9464ZM169.68 14.4C169.68 14.1742 169.73 14.0269 169.796 13.9273L168.964 13.3726C168.764 13.6731 168.68 14.0258 168.68 14.4H169.68ZM169.787 13.9406C169.868 13.8271 169.939 13.8 170.03 13.8V12.8C169.588 12.8 169.226 13.0062 168.973 13.3594L169.787 13.9406ZM170.008 13.7995C172.213 13.8997 174.204 13.95 175.98 13.95V12.95C174.223 12.95 172.247 12.9003 170.053 12.8005L170.008 13.7995ZM175.98 13.95H191.68V12.95H175.98V13.95ZM191.68 13.95C192.046 13.95 192.227 14.0352 192.316 14.1174C192.398 14.1926 192.48 14.3378 192.48 14.65H193.48C193.48 14.1622 193.346 13.7074 192.994 13.3826C192.65 13.0648 192.181 12.95 191.68 12.95V13.95ZM192.48 14.6607L192.63 21.6607L193.63 21.6393L193.48 14.6393L192.48 14.6607ZM192.63 21.65C192.63 21.7475 192.596 21.8552 192.403 21.984L192.958 22.816C193.364 22.5448 193.63 22.1525 193.63 21.65H192.63ZM192.437 21.9629C192.201 22.0943 191.984 22.15 191.78 22.15V23.15C192.177 23.15 192.56 23.039 192.923 22.8371L192.437 21.9629ZM191.78 22.15C191.435 22.15 191.157 22.0925 190.933 21.9931L190.527 22.9069C190.904 23.0741 191.325 23.15 191.78 23.15V22.15ZM190.973 22.0129C190.792 21.9125 190.74 21.81 190.727 21.6948L189.733 21.8052C189.787 22.29 190.068 22.6542 190.487 22.8871L190.973 22.0129ZM190.724 21.6694C190.455 20.0248 190.148 18.7488 189.795 17.8643L188.866 18.2357C189.179 19.0179 189.472 20.2085 189.737 21.8306L190.724 21.6694ZM189.803 17.8864C189.474 16.9373 188.947 16.2005 188.197 15.7273L187.663 16.5727C188.181 16.8995 188.586 17.4293 188.858 18.2136L189.803 17.8864ZM188.223 15.7447C187.509 15.2292 186.529 14.985 185.345 14.9502L185.316 15.9498C186.398 15.9816 187.151 16.2041 187.638 16.5553L188.223 15.7447ZM185.33 14.95H178.63V15.95H185.33V14.95ZM178.13 15.45V28.15H179.13V15.45H178.13ZM178.63 28.65H187.68V27.65H178.63V28.65ZM187.61 28.645C187.667 28.6532 187.727 28.6774 187.796 28.7981L188.664 28.3019C188.467 27.9559 188.16 27.7134 187.751 27.655L187.61 28.645ZM187.814 28.8273C187.881 28.9269 187.93 29.0742 187.93 29.3H188.93C188.93 28.9258 188.847 28.5731 188.646 28.2726L187.814 28.8273ZM187.93 29.3C187.93 29.4792 187.887 29.6136 187.814 29.7226L188.646 30.2773C188.84 29.9864 188.93 29.6542 188.93 29.3H187.93ZM187.814 29.7226C187.77 29.7886 187.74 29.8 187.68 29.8V30.8C188.087 30.8 188.424 30.6114 188.646 30.2773L187.814 29.7226ZM187.68 29.8H178.63V30.8H187.68V29.8ZM178.13 30.3V39.75H179.13V30.3H178.13ZM178.133 39.7974C178.2 40.5083 178.286 41.0991 178.393 41.5624L179.367 41.3376C179.274 40.9342 179.194 40.3917 179.128 39.7026L178.133 39.7974ZM178.395 41.5713C178.537 42.1371 178.946 42.5948 179.503 42.966L180.058 42.134C179.614 41.8385 179.424 41.5629 179.365 41.3287L178.395 41.5713ZM179.503 42.966C180.134 43.3868 181.046 43.5341 182.146 43.4998L182.115 42.5002C181.081 42.5325 180.426 42.3798 180.058 42.134L179.503 42.966ZM182.13 43.5H186.73V42.5H182.13V43.5ZM186.745 43.4998C187.942 43.4656 188.92 43.2776 189.623 42.8871L189.137 42.0129C188.64 42.289 187.851 42.4678 186.716 42.5002L186.745 43.4998ZM189.641 42.8766C190.338 42.4505 190.867 41.8176 191.235 41.0069L190.325 40.5931C190.027 41.2491 189.622 41.7162 189.12 42.0234L189.641 42.8766ZM191.227 41.0236C191.615 40.2494 192.058 39.0144 192.559 37.3437L191.601 37.0563C191.103 38.7189 190.679 39.884 190.333 40.5764L191.227 41.0236ZM192.546 37.3812C192.616 37.2015 192.721 37.0991 192.871 37.0373C193.04 36.9678 193.306 36.9352 193.707 36.9946L193.854 36.0054C193.355 35.9315 192.888 35.9489 192.49 36.1127C192.073 36.2843 191.778 36.5985 191.614 37.0188L192.546 37.3812ZM193.682 36.9903C193.941 37.042 194.143 37.1411 194.305 37.2796L194.956 36.5204C194.651 36.2589 194.287 36.0914 193.878 36.0097L193.682 36.9903ZM194.33 37.3C194.473 37.4072 194.495 37.4917 194.483 37.5948L195.477 37.7052C195.532 37.2083 195.321 36.7928 194.93 36.5L194.33 37.3ZM194.486 37.5716L193.486 43.8716L194.474 44.0284L195.474 37.7284L194.486 37.5716ZM193.493 43.8376C193.4 44.2411 193.287 44.3612 193.253 44.384L193.808 45.216C194.173 44.9721 194.361 44.5256 194.467 44.0624L193.493 43.8376ZM193.253 44.384C193.182 44.4312 192.976 44.5 192.53 44.5V45.5C193.018 45.5 193.479 45.4354 193.808 45.216L193.253 44.384ZM192.53 44.5H176.03V45.5H192.53V44.5ZM176.03 44.5C174.221 44.5 172.214 44.5502 170.008 44.6505L170.053 45.6495C172.247 45.5498 174.239 45.5 176.03 45.5V44.5Z" fill="black"/>
<circle cx="105.5" cy="28.5" r="17.15" stroke="black" stroke-width="2.7"/>
<path d="M114.65 28.5C114.65 33.4187 113.516 37.8053 111.751 40.9151C109.963 44.0648 107.701 45.65 105.5 45.65C103.299 45.65 101.037 44.0648 99.2495 40.9151C97.4844 37.8053 96.35 33.4187 96.35 28.5C96.35 23.5813 97.4844 19.1947 99.2495 16.0849C101.037 12.9352 103.299 11.35 105.5 11.35C107.701 11.35 109.963 12.9352 111.751 16.0849C113.516 19.1947 114.65 23.5813 114.65 28.5Z" stroke="black" stroke-width="2.7"/>
<rect x="91" y="17.7" width="29" height="2" fill="black"/>
<rect x="91" y="37.2" width="29" height="2" fill="black"/>
<rect x="89" y="27.5" width="33" height="2" fill="black"/>
<rect x="104.5" y="46" width="35" height="2" transform="rotate(-90 104.5 46)" fill="black"/>
</svg>
