<svg width="20" height="20" viewBox="0 0 20 20" fill="none" xmlns="http://www.w3.org/2000/svg">
<path opacity="0.2" d="M19.7002 12.4192C18.3646 17.7764 12.9384 21.0364 7.58055 19.7008C2.22524 18.3652 -1.03507 12.9389 0.300863 7.58206C1.63586 2.22425 7.0618 -1.03638 12.4181 0.299249C17.7756 1.63487 21.0356 7.06175 19.6999 12.4192H19.7002Z" fill="#F7931A"/>
<path fill-rule="evenodd" clip-rule="evenodd" d="M13.0119 8.83823C13.1467 7.93555 12.4594 7.4503 11.5196 7.12658L11.8245 5.90379L11.0799 5.71829L10.7831 6.90886C10.5877 6.8601 10.3867 6.8141 10.187 6.76852L10.4859 5.57011L9.74204 5.38461L9.43698 6.60698C9.27501 6.57009 9.11601 6.53363 8.96168 6.49526L8.96253 6.49144L7.93605 6.23514L7.73804 7.03012C7.73804 7.03012 8.29029 7.15668 8.27863 7.16453C8.58009 7.23979 8.63479 7.43927 8.62546 7.59742L8.27821 8.99044C8.29898 8.99574 8.32591 9.00338 8.35559 9.01525L8.27715 8.99574L7.7902 10.9472C7.75331 11.0387 7.65982 11.1761 7.44909 11.124C7.45651 11.1348 6.90808 10.9889 6.90808 10.9889L6.53857 11.8411L7.50739 12.0826C7.61676 12.11 7.7248 12.1382 7.83166 12.1661C7.90086 12.1841 7.96956 12.2021 8.03781 12.2196L7.72978 13.4566L8.47324 13.642L8.77852 12.4184C8.9814 12.4735 9.17855 12.5244 9.37147 12.5723L9.06747 13.7902L9.81178 13.9757L10.1198 12.7413C11.389 12.9815 12.3436 12.8846 12.745 11.7368C13.0687 10.8125 12.7291 10.2794 12.0613 9.93149C12.5476 9.81892 12.9139 9.49902 13.0116 8.83823H13.0119ZM11.311 11.223C11.0997 12.0713 9.77157 11.7203 9.16442 11.5598L9.16437 11.5598C9.11002 11.5455 9.06145 11.5326 9.01998 11.5223L9.42871 9.88379C9.47942 9.89645 9.54137 9.91035 9.61155 9.9261C10.2397 10.067 11.5269 10.3559 11.3112 11.223H11.311ZM9.7378 9.16577C10.2444 9.30092 11.3487 9.59552 11.541 8.82488C11.7377 8.03648 10.6639 7.79886 10.1395 7.6828C10.0805 7.66976 10.0285 7.65825 9.98604 7.64766L9.61548 9.13375C9.65054 9.14249 9.69169 9.15347 9.7378 9.16577Z" fill="#F7931A"/>
</svg>
