<svg width="12" height="12" viewBox="0 0 12 12" fill="none" xmlns="http://www.w3.org/2000/svg">
<g opacity="0.6">
<path d="M6 3V6L8 8" stroke="black" stroke-width="0.416667" stroke-miterlimit="10"/>
<path d="M6 1.5C5.40905 1.5 4.82389 1.6164 4.27792 1.84254C3.73196 2.06869 3.23588 2.40016 2.81802 2.81802C2.40016 3.23588 2.06869 3.73196 1.84254 4.27792C1.6164 4.82389 1.5 5.40905 1.5 6C1.5 6.59095 1.6164 7.17611 1.84254 7.72208C2.06869 8.26804 2.40016 8.76412 2.81802 9.18198C3.23588 9.59984 3.73196 9.93131 4.27792 10.1575C4.82389 10.3836 5.40905 10.5 6 10.5C6.59095 10.5 7.17611 10.3836 7.72208 10.1575C8.26804 9.93131 8.76412 9.59984 9.18198 9.18198C9.59984 8.76412 9.93131 8.26804 10.1575 7.72208C10.3836 7.17611 10.5 6.59095 10.5 6C10.5 5.40905 10.3836 4.82389 10.1575 4.27792C9.93131 3.73196 9.59984 3.23588 9.18198 2.81802C8.76412 2.40016 8.26804 2.06869 7.72208 1.84254C7.17611 1.6164 6.59095 1.5 6 1.5Z" stroke="black" stroke-width="0.416667" stroke-miterlimit="10"/>
</g>
</svg>
