<svg width="91" height="91" viewBox="0 0 91 91" fill="none" xmlns="http://www.w3.org/2000/svg">
<path d="M6.785 45.5V83.7433C6.785 84.3429 6.89283 84.9376 7.10335 85.4989L7.21984 85.8096C7.76715 87.2691 8.9741 88.3826 10.4729 88.8108V88.8108C10.9121 88.9363 11.3668 89 11.8236 89H34.19M6.785 45.5L17.0792 37.1854C17.7452 36.6475 18.262 35.9476 18.5799 35.1527L18.965 34.19M6.785 45.5L4.74175 44.223C3.80994 43.6406 3.09357 42.7612 2.70774 41.7323V41.7323C2.25533 40.5259 2.29021 39.1678 2.79776 37.9836V37.9836C3.12771 37.2137 3.65015 36.5288 4.30876 36.0113L7.52135 33.4872C8.70659 32.5559 10.2487 32.209 11.7186 32.5431L18.965 34.19M85.52 45.5V84.1673C85.52 85.5781 84.9035 86.9184 83.8324 87.8365V87.8365C82.9565 88.5873 81.8409 89 80.6873 89H58.3325M85.52 45.5L87.387 44.3331C88.4164 43.6897 89.135 42.6502 89.373 41.4598V41.4598C89.6807 39.9213 89.1475 38.3353 87.9728 37.2952L74.645 25.4945M85.52 45.5L48.7869 15.1553C46.8931 13.5909 44.1434 13.6338 42.2994 15.2565L34.625 22.01M18.965 34.19L27.7592 36.4842C28.5353 36.6866 29.2011 37.1852 29.6138 37.873V37.873C30.0368 38.5779 30.1588 39.4233 29.9525 40.2191L27.3548 50.2385C27.2719 50.5582 27.23 50.8871 27.23 51.2174V51.2174C27.23 52.2884 27.6704 53.3122 28.4479 54.0488L35.495 60.725M34.19 89V64.2849C34.19 63.3787 34.4363 62.4895 34.9025 61.7124L35.495 60.725M34.19 89H58.3325M35.495 60.725L45.5854 67.1828C46.072 67.4943 46.6865 67.5268 47.2032 67.2684V67.2684C47.759 66.9905 48.11 66.4225 48.11 65.8012V64.8379C48.11 64.42 48.0281 64.0062 47.869 63.6198L46.6771 60.725M58.3325 89V63.9012C58.3325 63.2495 58.1321 62.6136 57.7583 62.0798V62.0798C57.164 61.2307 56.1927 60.725 55.1563 60.725H55.07H46.6771M46.6771 60.725L42.3966 50.3296C42.1479 49.7257 42.02 49.079 42.02 48.4259V48.3492C42.02 47.6186 42.1801 46.8969 42.4891 46.2348L47.5192 35.456C47.8962 34.6482 47.9222 33.7205 47.5911 32.8929V32.8929C47.3619 32.3197 46.973 31.8243 46.4706 31.4654L36.1794 24.1145C35.4519 23.5949 34.9077 22.8581 34.625 22.01V22.01M34.625 22.01L34.4466 21.4748C34.2766 20.9649 34.19 20.431 34.19 19.8936V12.5534C34.19 11.1003 34.8222 9.71905 35.9219 8.76927L42.3521 3.21588C43.2603 2.43156 44.4203 2 45.6202 2H46.2746C47.4595 2 48.606 2.42083 49.5095 3.18746L62.465 14.18M62.465 14.18V11.135V8.32296C62.465 7.33822 62.8562 6.39381 63.5525 5.6975V5.6975C64.2488 5.00119 65.1932 4.61 66.178 4.61H70.932C71.9168 4.61 72.8612 5.00119 73.5575 5.6975V5.6975C74.2538 6.39381 74.645 7.33822 74.645 8.32296V25.4945M62.465 14.18L74.645 25.4945" stroke="#185E8B" stroke-width="3"/>
<path d="M26.8363 16.4111L24.1692 19.2834C23.2897 20.2305 21.7564 20.1073 21.0395 19.0319L18.2219 14.8055C17.6549 13.9551 17.8204 12.814 18.6056 12.1597L20.9888 10.1737C21.8054 9.49322 23.0115 9.57032 23.7348 10.3492L26.8363 13.6893C27.5489 14.4567 27.5489 15.6437 26.8363 16.4111Z" stroke="#185E8B" stroke-width="3"/>
<path d="M10.4728 16.8165L11.0761 21.9442C11.1145 22.2711 11.0566 22.602 10.9094 22.8964C10.5382 23.6388 9.68246 24.0012 8.89099 23.7513L3.39774 22.0166C2.56568 21.7538 2 20.982 2 20.1094V17.6186C2 17.0882 2.21071 16.5795 2.58579 16.2044L3.15421 15.636C3.52929 15.2609 4.038 15.0502 4.56843 15.0502H8.4865C9.50067 15.0502 10.3543 15.8093 10.4728 16.8165Z" stroke="#185E8B" stroke-width="3"/>
</svg>
