<svg width="20" height="20" viewBox="0 0 20 20" fill="none" xmlns="http://www.w3.org/2000/svg">
<path opacity="0.2" d="M19.9458 10.0002C19.9458 15.494 15.4923 19.9476 9.99858 19.9476C4.5048 19.9476 0.0512695 15.494 0.0512695 10.0002C0.0512695 4.50647 4.5048 0.0529327 9.99858 0.0529327C15.4922 0.0529327 19.9458 4.50647 19.9458 10.0002Z" fill="#505050"/>
<path d="M9.96671 5.38461L9.90527 5.59345V11.6533L9.96671 11.7146L12.7796 10.0519L9.96671 5.38461Z" fill="white"/>
<path d="M9.96672 5.38461L7.15381 10.0519L9.96672 11.7146V8.77338V5.38461Z" fill="white"/>
<path d="M9.96675 12.6298L9.93213 12.672V14.8307L9.96675 14.9318L12.7814 10.968L9.96675 12.6298Z" fill="white"/>
<path d="M9.96672 14.9318V12.6298L7.15381 10.968L9.96672 14.9318Z" fill="white"/>
<path d="M9.9668 11.7146L12.7797 10.0519L9.9668 8.77341V11.7146Z" fill="white"/>
<path d="M7.15381 10.0519L9.96668 11.7146V8.77338L7.15381 10.0519Z" fill="white"/>
</svg>
