<svg width="20" height="20" viewBox="0 0 20 20" fill="none" xmlns="http://www.w3.org/2000/svg">
<path opacity="0.2" d="M10 20C15.5228 20 20 15.5228 20 10C20 4.47715 15.5228 0 10 0C4.47715 0 0 4.47715 0 10C0 15.5228 4.47715 20 10 20Z" fill="#784EEC"/>
<circle cx="10" cy="10" r="6" fill="white"/>
<path d="M12.7943 14.7123L13.9848 14.8527L13.5562 15.3204L12.9848 15.6947L12.461 15.9286H11.6514L10.8895 15.835L10.08 15.6479L9.36572 15.3672L8.84191 15.0398L8.22287 14.5252L7.84191 14.1978L7.36572 13.6832L6.98477 13.1686L6.5562 12.4202L6.46096 11.6717L6.36572 10.9232V9.23922L6.46096 8.53754L6.5562 8.02297L6.69906 7.55518L6.98477 6.99384L7.36572 6.38571L7.84191 5.82437L8.36572 5.35658L9.03239 4.8888L9.46096 4.60812L9.93715 4.37423L10.5562 4.14034L11.08 4H11.5562L12.0324 4.14034L12.5562 4.42101L12.8895 4.6549L13.1276 4.8888L12.5562 5.16947L11.5562 5.49692L10.5562 5.91793L9.84191 6.38571L9.12763 6.99384L8.65144 7.78908L8.36572 8.53754L8.27048 9.23922V9.9409V10.9232L8.36572 11.5782L8.65144 12.2331L9.03239 12.7008L9.27048 13.0283L9.60382 13.3557L9.84191 13.5896L10.461 13.9639L10.8895 14.1978L11.7943 14.5252L12.7943 14.7123Z" fill="#DAD2F2"/>
<path d="M12.5092 12.467H4.69971L5.36637 11.0168H13.2235L12.5092 12.467Z" fill="#DAD2F2"/>
<path d="M14.1283 9.19244H4.69971L5.36637 7.69553L14.6997 7.78908L14.1283 9.19244Z" fill="#DAD2F2"/>
</svg>
