<svg width="97" height="97" viewBox="0 0 97 97" fill="none" xmlns="http://www.w3.org/2000/svg">
<path d="M20.7909 6.20695L20.7892 6.20695L20.7451 6.20715L20.6995 6.20734C14.276 6.2356 11.0233 6.24995 9.3059 6.30656C8.44101 6.33508 7.99766 6.37372 7.74295 6.42233C7.62205 6.4454 7.55935 6.46803 7.52203 6.48512C7.48542 6.50189 7.45486 6.52132 7.39312 6.56623L7.38878 6.56931C7.2878 6.64106 7.142 6.77846 6.99584 6.9501C6.85015 7.12122 6.73154 7.29418 6.66832 7.42348L6.66318 7.43401L6.65755 7.44427C6.63008 7.49438 6.57054 7.61875 6.52241 8.24637C6.4752 8.86208 6.44165 9.89539 6.41841 11.7058C6.37202 15.3208 6.36712 21.9817 6.36712 34.4705C6.36712 46.9594 6.37202 53.6202 6.41841 57.2353C6.44165 59.0457 6.4752 60.079 6.52241 60.6947C6.57054 61.3223 6.63008 61.4467 6.65755 61.4968L6.66318 61.507L6.66832 61.5176C6.73154 61.6469 6.85015 61.8198 6.99584 61.9909C7.142 62.1626 7.2878 62.3 7.38879 62.3717L7.3931 62.3748C7.45369 62.4189 7.47902 62.4346 7.51514 62.4499C7.55606 62.4672 7.63183 62.4917 7.78739 62.5167C8.10837 62.5681 8.6783 62.6081 9.79096 62.639C12.0031 62.7004 16.2483 62.7242 24.6608 62.7712L24.8005 62.772L41.9515 62.8667L42.1154 63.8381L38.2041 65.2213L38.2021 65.2221L34.2908 66.5863L34.2108 66.6142H34.1261H21.0038C20.3686 66.6142 19.761 66.6144 19.1796 66.6145C12.8087 66.6159 9.58481 66.6167 7.76832 66.4268C6.76629 66.322 6.13048 66.1546 5.61283 65.862C5.19595 65.6264 4.87261 65.3138 4.52296 64.9757C4.45349 64.9086 4.38298 64.8404 4.31047 64.7716L4.30669 64.768C4.19916 64.6638 4.09783 64.5742 3.99782 64.4872C3.98171 64.4732 3.96538 64.4591 3.94891 64.4448C3.86639 64.3733 3.78037 64.2987 3.70009 64.2236C3.49708 64.0337 3.30629 63.8187 3.14708 63.5024C2.84526 62.9029 2.68831 61.9945 2.59092 60.2901C2.42474 57.3817 2.42712 51.8932 2.43184 41.0131C2.43271 39.0191 2.43365 36.844 2.43365 34.4705C2.43365 32.1181 2.43273 29.9605 2.43188 27.9809C2.42718 17.0575 2.42482 11.5547 2.59338 8.64113C2.69201 6.93637 2.85089 6.02756 3.15611 5.42641C3.31689 5.10976 3.5093 4.8942 3.71365 4.70353C3.79385 4.62871 3.87984 4.55421 3.96251 4.4826C3.97985 4.46758 3.99704 4.45268 4.01399 4.43794C4.11499 4.35015 4.21748 4.25951 4.32624 4.15412L4.32809 4.15234C4.43647 4.04841 4.52857 3.95032 4.61725 3.85349C4.63618 3.83282 4.65548 3.81161 4.67506 3.7901C4.74359 3.71481 4.81558 3.63572 4.88705 3.56268C5.08387 3.36151 5.3067 3.17389 5.64149 3.01864C6.27087 2.72678 7.25338 2.57324 9.15721 2.47901C12.4638 2.31534 18.8108 2.32764 31.5724 2.35235C33.6505 2.35638 35.8987 2.36073 38.3316 2.36471L68.7419 2.42155L68.8471 2.42175L68.9432 2.46429L69.8429 2.86217L69.8488 2.86489C71.0199 3.40131 72.1962 4.47899 72.8362 5.67452L73.2831 6.4652L73.3468 6.57782L73.3478 6.70718L73.4456 18.7962V18.7995L73.4847 44.3797L73.4847 44.3841L73.426 52.4372L73.4235 52.7913L73.0886 52.9064L71.8817 53.3213C71.2207 53.5661 70.559 53.7927 70.424 53.8365C70.3104 53.8744 70.1836 53.8725 70.0663 53.824C69.9563 53.7786 69.8892 53.7066 69.8553 53.6635C69.7918 53.5827 69.7645 53.4991 69.7543 53.4668C69.7291 53.3865 69.7141 53.2928 69.7032 53.2077C69.6801 53.0264 69.661 52.7563 69.6441 52.3912C69.61 51.6558 69.5831 50.4825 69.5611 48.7426C69.517 45.2601 69.4926 39.483 69.473 30.3411C69.473 30.341 69.473 30.3409 69.473 30.3409L69.4149 7.42385L69.0647 7.05743C69.0645 7.05718 69.0642 7.05692 69.064 7.05667C69.015 7.00562 68.9721 6.96015 68.9336 6.91934C68.7411 6.71547 68.6588 6.6283 68.4821 6.54636C68.2528 6.44003 67.8484 6.34644 66.9299 6.28397C65.2273 6.16817 62.0046 6.16844 55.4604 6.16899C54.9958 6.16903 54.5144 6.16907 54.0156 6.16907C54.0154 6.16907 54.0152 6.16907 54.015 6.16907L20.7909 6.20695ZM6.60542 0.769989L6.60543 0.770058L6.5975 0.772087C3.73943 1.50459 1.53186 3.68158 0.776974 6.45993C0.727866 6.65185 0.67913 7.00866 0.639893 7.84001C0.600937 8.66541 0.572272 9.92536 0.551501 11.9012C0.509977 15.8511 0.500193 22.6363 0.500193 34.4705C0.500193 35.5261 0.500142 36.5419 0.500093 37.5195C0.499466 50.0343 0.499153 56.2886 0.609922 59.6244C0.669814 61.4281 0.761601 62.3405 0.89211 62.9167C0.99892 63.3883 1.12788 63.6293 1.33214 64.011C1.36574 64.0738 1.40139 64.1404 1.4393 64.2125C1.69881 64.6981 2.24027 65.3672 2.87553 65.9989C3.51151 66.6313 4.18802 67.173 4.68898 67.4324L4.68899 67.4324L4.69238 67.4342C5.18151 67.6923 5.5491 67.872 5.98172 68.0078C6.41386 68.1434 6.93083 68.2412 7.71209 68.3091C9.29072 68.4465 11.8586 68.4565 16.8187 68.4565H25.9124L26.0985 69.4206L24.9688 69.8735C24.6666 70.0017 24.3518 70.1476 24.0912 70.2806C23.8137 70.4222 23.6499 70.5235 23.603 70.5632C23.4086 70.7389 23.2019 71.0403 23.043 71.4011C22.8893 71.7499 22.8009 72.1073 22.7948 72.3929C22.7965 72.4004 22.7989 72.4107 22.8023 72.4244C22.8146 72.4734 22.8343 72.544 22.8624 72.6376C22.9184 72.8237 23.0019 73.0826 23.1103 73.4064C23.3266 74.0531 23.6373 74.9447 24.0133 76.0024C24.7649 78.1172 25.7743 80.8874 26.8043 83.6717C27.8342 86.4559 28.884 89.2522 29.7163 91.4193C30.1326 92.5031 30.4938 93.4277 30.7706 94.114C30.9091 94.4575 31.0255 94.7389 31.1167 94.9498C31.2098 95.1655 31.2654 95.2807 31.2874 95.3189C31.4524 95.58 31.7976 95.8817 32.2303 96.1225C32.6463 96.354 33.0687 96.4878 33.3794 96.4992C33.4103 96.4912 33.4563 96.4784 33.5191 96.4598C33.6489 96.4214 33.8345 96.3633 34.0744 96.286C34.5533 96.1318 35.2369 95.9047 36.0974 95.6147C37.8177 95.0348 40.2381 94.2052 43.1269 93.2073C48.9041 91.2116 56.5511 88.5437 64.2094 85.8556C71.8678 83.1674 79.5367 80.4593 85.3579 78.3831C88.2687 77.3449 90.7166 76.465 92.4699 75.8248C93.3469 75.5045 94.0485 75.2448 94.5468 75.0554C94.7963 74.9606 94.9926 74.8843 95.1335 74.8273C95.2459 74.7818 95.3035 74.7562 95.3252 74.7466C95.3345 74.7425 95.3373 74.7412 95.335 74.7426L95.3359 74.7421C95.6228 74.571 95.9202 74.2472 96.1477 73.8485C96.368 73.4622 96.4919 73.0594 96.4996 72.7398C96.4979 72.7322 96.4955 72.7216 96.4919 72.7077C96.4793 72.6577 96.459 72.5859 96.4302 72.4906C96.3728 72.3011 96.2872 72.0374 96.1763 71.7076C95.9547 71.049 95.6367 70.1406 95.2521 69.0636C94.4834 66.9103 93.452 64.0915 92.4025 61.2671C91.353 58.4426 90.2861 55.6144 89.4466 53.4422C89.0266 52.3558 88.6644 51.4355 88.3899 50.7625C88.2525 50.4257 88.1383 50.1538 88.0506 49.9551C88.0066 49.8555 87.9707 49.7776 87.9428 49.7207C87.9238 49.682 87.9124 49.661 87.9075 49.6521C87.906 49.6494 87.9051 49.6478 87.9049 49.6473L87.899 49.6384C87.7649 49.4342 87.4368 49.1706 86.9953 48.9523C86.5605 48.7374 86.1106 48.6133 85.7942 48.6133C85.7988 48.6133 85.7984 48.6134 85.7919 48.6143C85.7791 48.6161 85.7431 48.6211 85.6743 48.6355C85.5835 48.6544 85.4624 48.6836 85.3124 48.7232C85.0131 48.8022 84.6158 48.9178 84.1474 49.0624C83.2114 49.3514 82.0057 49.7517 80.7598 50.195C79.5069 50.6407 78.3567 51.0438 77.5144 51.3356C77.0933 51.4815 76.7486 51.5998 76.5061 51.6818C76.3852 51.7227 76.2883 51.755 76.2197 51.7773C76.1858 51.7883 76.1564 51.7977 76.1336 51.8047C76.1226 51.808 76.1094 51.8119 76.0964 51.8154C76.0903 51.817 76.0796 51.8198 76.0668 51.8226C76.0606 51.824 76.0498 51.8262 76.0365 51.8283C76.0279 51.8297 75.997 51.8345 75.9573 51.8345C75.7166 51.8345 75.5866 51.6745 75.5553 51.6325C75.5138 51.5767 75.4939 51.5253 75.487 51.5069C75.4711 51.4643 75.4643 51.428 75.4622 51.4169C75.4567 51.3873 75.4538 51.3592 75.4522 51.3428C75.4486 51.3051 75.4458 51.2575 75.4433 51.2056C75.4382 51.0992 75.4333 50.9466 75.4287 50.7553C75.4195 50.3716 75.4109 49.8189 75.4035 49.1396C75.3889 47.7802 75.3791 45.9072 75.3791 43.8499V19.0276V18.6185C75.3792 12.0541 75.3792 8.83761 75.1862 6.99299C75.089 6.06393 74.946 5.52392 74.7486 5.0961C74.5573 4.68163 74.306 4.34869 73.9216 3.83923C73.9008 3.81167 73.8796 3.7836 73.858 3.75496C72.6209 2.14561 70.9468 1.09436 68.9735 0.682915C68.927 0.673424 68.7508 0.656624 68.3834 0.640053C68.0341 0.624298 67.5478 0.609818 66.9131 0.596672C65.6444 0.570396 63.7944 0.54969 61.2869 0.534302C56.2726 0.503517 48.6373 0.494041 37.7836 0.503517H37.7832C24.8849 0.503517 17.2849 0.512993 12.797 0.553238C10.5522 0.573364 9.09147 0.601151 8.13746 0.639015C7.16236 0.677719 6.76505 0.72628 6.60542 0.769989ZM67.0787 8.01131H67.5787V8.51131V23.2342V37.957V39.1336L66.7317 38.317L62.7641 34.4917C62.7638 34.4914 62.7635 34.4911 62.7632 34.4908C61.6705 33.451 60.624 32.4796 59.8134 31.7577C59.4074 31.3961 59.0645 31.1006 58.8063 30.8914C58.6766 30.7863 58.5736 30.7073 58.4975 30.6537C58.443 30.6153 58.4179 30.6015 58.415 30.5993L58.4126 30.5984C57.7822 30.3572 57.074 30.3854 56.5938 30.6311C56.6 30.628 56.5981 30.6294 56.586 30.6386C56.5685 30.6518 56.5298 30.6811 56.4632 30.7361C56.3633 30.8186 56.2288 30.9347 56.0623 31.0824C55.7299 31.3773 55.281 31.788 54.7469 32.2855C53.6793 33.2798 52.2787 34.6131 50.804 36.042C50.8039 36.0421 50.8038 36.0422 50.8037 36.0423L45.4263 41.2714L45.0787 41.6094L44.7302 41.2724L35.6365 32.4804L35.9699 32.1355L35.6364 32.4804L35.3974 32.2492C30.6961 27.7032 28.3994 25.4824 27.081 24.4247C26.4086 23.8854 26.0501 23.6994 25.8016 23.6366C25.5763 23.5797 25.4071 23.6098 25.0104 23.6802L24.9653 23.6882C24.9161 23.6972 24.7994 23.7328 24.5232 23.9293C24.2496 24.124 23.8594 24.4468 23.2669 24.9797C22.0845 26.043 20.1508 27.8928 16.8336 31.0973L9.14805 38.525L8.30058 39.344V38.1654V23.3289V8.51131V8.01131H8.80058H21.5318H53.7021H67.0787ZM58.4307 58.0034L58.3953 58.0376L58.354 58.0643C58.317 58.0883 58.2814 58.1038 58.2786 58.105C58.266 58.1107 58.2533 58.1161 58.2423 58.1206C58.2199 58.1299 58.1922 58.1408 58.1613 58.1527C58.0987 58.1767 58.0125 58.2089 57.9064 58.2478C57.6936 58.3259 57.3942 58.4337 57.0304 58.5631C56.3027 58.8218 55.3137 59.1681 54.2369 59.5381C54.2366 59.5382 54.2364 59.5382 54.2361 59.5383L50.3271 60.9018L50.2471 60.9297H50.1624H29.4913H8.80058H8.30058V60.4297V51.2966V42.1446V41.9328L8.45265 41.7855L16.7055 33.7893C18.9846 31.581 21.0737 29.5759 22.6082 28.1222C23.3752 27.3957 24.0052 26.8055 24.4516 26.3962C24.6743 26.1921 24.8542 26.0302 24.9837 25.9183C25.0476 25.863 25.1045 25.8154 25.1503 25.7798C25.1722 25.7629 25.1997 25.7422 25.2284 25.7237C25.2421 25.7148 25.2659 25.7 25.2957 25.6857L25.2971 25.685C25.3117 25.6777 25.4014 25.6333 25.5213 25.6333C25.6388 25.6333 25.7262 25.6761 25.7397 25.6828L25.741 25.6834C25.7691 25.6968 25.7907 25.7103 25.8018 25.7174C25.8254 25.7325 25.8458 25.7479 25.8589 25.758C25.8872 25.7798 25.9197 25.807 25.953 25.8357C26.0213 25.8945 26.1153 25.9786 26.2314 26.0845C26.4646 26.2974 26.7994 26.6095 27.2236 27.0089C28.0725 27.8082 29.2856 28.9635 30.7734 30.3884C33.7493 33.2387 37.8276 37.1712 42.2966 41.5013C46.7559 45.8219 50.7998 49.759 53.7242 52.6209C55.1863 54.0518 56.3691 55.2144 57.1843 56.022C57.5916 56.4255 57.9082 56.7415 58.1223 56.9583C58.2289 57.0663 58.3123 57.1519 58.3693 57.2122C58.397 57.2415 58.4228 57.2694 58.4429 57.2926C58.4465 57.2967 58.4513 57.3024 58.4569 57.3091C58.4648 57.3186 58.4741 57.3303 58.4834 57.343C58.4891 57.3508 58.5095 57.3788 58.5289 57.4173C58.5369 57.4332 58.561 57.482 58.574 57.5496C58.5823 57.5935 58.6199 57.8201 58.4307 58.0034ZM67.4266 41.7855L67.5787 41.9328V42.1446V48.3217V54.4989V54.8551L67.242 54.9715L64.4516 55.9357C64.4505 55.9361 64.4494 55.9364 64.4484 55.9368C63.6827 56.2126 62.9608 56.46 62.4167 56.639C62.1445 56.7285 61.9147 56.8015 61.745 56.8526C61.6607 56.878 61.5877 56.8991 61.5303 56.9142C61.502 56.9217 61.4731 56.9289 61.4464 56.9346L61.4444 56.935C61.4293 56.9383 61.3723 56.9506 61.3095 56.9506C61.1892 56.9506 61.0991 56.9056 61.0859 56.8989L61.0846 56.8983C61.0558 56.8843 61.033 56.8701 61.0203 56.8619C60.9935 56.8447 60.9683 56.8258 60.9492 56.811C60.9088 56.7798 60.8594 56.7386 60.8046 56.6916C60.6934 56.5962 60.5394 56.4586 60.3493 56.2857C59.9683 55.9388 59.4311 55.4392 58.7789 54.825C57.4739 53.5962 55.7023 51.9033 53.7844 50.0451L46.7832 43.2616L46.4126 42.9025L46.7832 42.5434L51.907 37.579C53.3255 36.2046 54.6223 34.9576 55.5722 34.0538C56.047 33.6021 56.4363 33.235 56.7113 32.9802C56.8484 32.8532 56.9595 32.7518 57.0394 32.6813C57.0786 32.6466 57.1147 32.6155 57.1445 32.5915C57.1584 32.5803 57.1781 32.5647 57.1998 32.5497C57.2097 32.5429 57.2298 32.5293 57.2556 32.5155C57.2685 32.5086 57.2913 32.497 57.321 32.486C57.3433 32.4778 57.4087 32.4547 57.496 32.4547C57.578 32.4547 57.6399 32.475 57.6636 32.4833C57.6933 32.4938 57.7164 32.505 57.7297 32.5119C57.7564 32.5256 57.777 32.5392 57.7873 32.5462C57.8095 32.5611 57.8295 32.5767 57.843 32.5874C57.872 32.6106 57.9066 32.6401 57.9433 32.6723C58.0183 32.738 58.1219 32.8321 58.2489 32.9494C58.504 33.1848 58.8641 33.5237 59.3023 33.9398C60.179 34.7727 61.3732 35.9203 62.6744 37.1811L67.4266 41.7855ZM68.2806 56.5478L68.2814 56.5475C72.985 54.8894 77.2879 53.3781 80.4273 52.2813C81.9969 51.7329 83.2761 51.2879 84.1694 50.98C84.6158 50.826 84.9668 50.706 85.2097 50.6243C85.3309 50.5836 85.427 50.5517 85.4952 50.5299C85.5288 50.5191 85.5587 50.5097 85.5826 50.5027C85.594 50.4994 85.6084 50.4953 85.6229 50.4916C85.63 50.4898 85.6417 50.487 85.6556 50.4843L85.6562 50.4841C85.66 50.4834 85.6754 50.4803 85.6976 50.4778C85.901 50.4538 86.0395 50.56 86.0662 50.5805C86.1143 50.6174 86.1462 50.6554 86.1604 50.6729C86.1915 50.7115 86.2154 50.7508 86.2298 50.7756C86.2616 50.8302 86.2965 50.8996 86.332 50.9744C86.4049 51.1276 86.5015 51.3477 86.6178 51.6228C86.8511 52.1753 87.1731 52.9725 87.5598 53.9531C88.3336 55.9152 89.3711 58.6228 90.4864 61.5992C91.6118 64.5859 92.6102 67.3174 93.3179 69.3128C93.6717 70.3101 93.9536 71.1259 94.1426 71.6986C94.2368 71.984 94.3095 72.2139 94.3567 72.3772C94.3798 72.4574 94.3994 72.5305 94.4121 72.5896C94.418 72.617 94.4258 72.6566 94.4296 72.6986C94.4314 72.7179 94.4343 72.7576 94.4297 72.8056C94.4274 72.8299 94.4219 72.8707 94.4061 72.9187C94.3914 72.9633 94.3572 73.047 94.2776 73.1242C94.2483 73.1504 94.2016 73.1848 94.1851 73.1951C94.1751 73.201 94.1586 73.21 94.1512 73.2138C94.1371 73.2209 94.1244 73.2266 94.1168 73.23C94.1004 73.2372 94.082 73.2447 94.0647 73.2517C94.047 73.2588 94.026 73.267 94.0022 73.2761C93.9777 73.2856 93.9501 73.2961 93.9196 73.3076C93.7988 73.3532 93.6237 73.4179 93.3989 73.5C92.9489 73.6644 92.2943 73.9007 91.465 74.1984C89.8061 74.794 87.445 75.6363 84.6157 76.6427C78.9571 78.6555 71.4245 81.325 63.889 83.9897C56.3535 86.6543 48.8148 89.3143 43.144 91.3082C40.3087 92.3051 37.9399 93.1356 36.2719 93.7169C35.438 94.0075 34.7785 94.2361 34.3233 94.3922C34.0958 94.4701 33.9181 94.5304 33.7946 94.5714C33.7332 94.5917 33.6829 94.6081 33.6459 94.6197C33.6278 94.6253 33.6093 94.6309 33.5927 94.6355C33.5849 94.6377 33.5729 94.641 33.5593 94.6441C33.5523 94.6457 33.537 94.6488 33.5276 94.6504C33.5126 94.6528 33.47 94.657 33.4417 94.6578C33.2587 94.6578 33.1418 94.5595 33.1192 94.5406L33.1184 94.5399C33.0796 94.5073 33.0542 94.476 33.0434 94.4621C33.0198 94.432 33.0036 94.4045 32.9967 94.3926C32.9805 94.3646 32.9658 94.3348 32.9546 94.3113C32.9306 94.2609 32.9007 94.1928 32.8667 94.1128C32.7978 93.9506 32.7024 93.7163 32.5851 93.4225C32.35 92.8336 32.0224 91.9938 31.634 90.9871C30.857 88.9732 29.8341 86.2855 28.8157 83.5883C27.7973 80.8911 26.783 78.1833 26.0232 76.1293C25.6433 75.1025 25.3266 74.2379 25.1047 73.6192C24.9938 73.3103 24.9058 73.0605 24.8452 72.8818C24.8151 72.7929 24.7905 72.7181 24.773 72.661C24.7644 72.6329 24.7561 72.6044 24.7494 72.5784L24.7493 72.5778C24.7472 72.5702 24.728 72.5001 24.728 72.424C24.728 72.2695 24.7979 72.1644 24.8236 72.1288C24.8556 72.0845 24.8879 72.0549 24.9044 72.0406C24.9384 72.011 24.9703 71.9911 24.9846 71.9824C25.0175 71.9623 25.0523 71.9449 25.079 71.932C25.1362 71.9045 25.2128 71.8713 25.3022 71.8341C25.4834 71.7588 25.7461 71.6555 26.0785 71.5283C26.7447 71.2735 27.7058 70.9171 28.8899 70.4857C31.2585 69.6227 34.5263 68.4567 38.126 67.1962C45.3026 64.6763 58.8742 59.8826 68.2806 56.5478Z" fill="#185E8B" stroke="#185E8B"/>
<path d="M75.9769 57.8905C73.1022 58.8947 72.359 59.3495 72.359 60.0316C72.359 60.4106 77.4046 73.9018 77.6588 74.205C78.1477 74.7545 78.8713 74.6597 81.9221 73.5797C83.604 72.9923 85.1294 72.3859 85.3249 72.2154C85.7356 71.8554 85.7552 70.889 85.3445 70.3205C84.836 69.6195 83.9755 69.7521 80.1425 71.1922C79.634 71.4006 79.634 71.3817 78.9495 69.5626C78.578 68.5584 78.2064 67.592 78.1477 67.4404C78.0499 67.213 78.4802 66.9856 80.1229 66.4172C82.4892 65.5835 83.115 65.1666 83.115 64.3708C83.115 63.7834 82.3523 62.8928 81.8634 62.8928C81.707 62.8928 80.5727 63.2339 79.3798 63.6507C78.1673 64.0676 77.1503 64.4087 77.1112 64.4087C77.033 64.4087 76.9743 64.2381 76.1725 62.1917L75.7227 61.0359L77.9326 60.24C79.1451 59.8042 80.2794 59.3116 80.4554 59.1221C81.2181 58.3073 80.5532 56.8104 79.458 56.8293C79.1451 56.8483 77.6001 57.322 75.9769 57.8905Z" fill="#185E8B"/>
<path d="M67.1179 61.0365C66.8441 61.1691 66.101 62.3439 64.9667 64.4472C64.028 66.1904 63.2262 67.6305 63.1675 67.6305C63.1088 67.6305 62.7568 66.8157 62.4048 65.8304C61.7399 63.9924 61.3097 63.4618 60.5078 63.4618C59.8625 63.4618 59.0607 64.1629 59.0607 64.7693C59.0607 65.224 63.6369 77.711 64.1453 78.6205C64.6734 79.5869 66.2379 79.4542 66.6877 78.4121C66.9028 77.9194 66.8441 77.6352 66.1205 75.7404C65.6903 74.5845 65.3578 73.5992 65.3969 73.5613C65.4361 73.5234 66.981 74.2055 68.8193 75.0961C70.6576 75.9867 72.3786 76.7257 72.6524 76.7257C73.2586 76.7257 74.1191 75.9488 74.1191 75.3993C74.1191 74.5087 73.6498 74.2055 69.5038 72.2539C67.1961 71.1738 65.3187 70.2264 65.3187 70.1506C65.3187 70.0559 66.1596 68.4263 67.1766 66.4936C68.2131 64.5609 69.0931 62.7987 69.1713 62.5523C69.3278 61.927 68.8975 61.2449 68.1935 60.9986C67.8806 60.9038 67.6068 60.8091 67.5873 60.828C67.5677 60.828 67.3721 60.9228 67.1179 61.0365Z" fill="#185E8B"/>
<path d="M48.8128 67.6873L48.3435 68.142L48.2066 76.0435L48.0697 83.9449L48.4999 84.4186C49.0475 84.9681 49.8493 85.006 50.4751 84.5134C50.9054 84.1913 50.9445 83.9639 51.0423 82.1069L51.1401 80.0605L53.7802 79.1321L56.4007 78.2225L57.3003 79.2268C58.8453 80.989 59.1973 81.2732 59.784 81.2732C60.5271 81.2732 61.2116 80.5721 61.2116 79.8331C61.2116 79.3594 60.312 78.2415 55.8923 73.296C51.1596 68.0094 50.4751 67.3462 49.9276 67.2893C49.4582 67.2514 49.1649 67.3462 48.8128 67.6873ZM53.1544 74.5655L54.3669 75.9108L52.9392 76.4224C51.1009 77.0667 50.9641 77.0667 51.1205 76.3277C51.1792 76.0056 51.2378 75.0013 51.2378 74.1107C51.2378 72.2349 51.0227 72.178 53.1544 74.5655Z" fill="#185E8B"/>
<path d="M37.5484 71.439C35.7687 72.0643 34.1651 72.7086 33.9891 72.8791C33.7935 73.0496 33.6371 73.4476 33.6371 73.8076C33.6371 74.6603 38.6044 87.7346 39.0347 88.0378C39.9343 88.682 41.2641 88.0378 41.2641 86.9577C41.2641 86.6545 40.8338 85.2334 40.2863 83.7933C39.7582 82.3533 39.3084 81.1027 39.3084 80.989C39.3084 80.8753 40.032 80.5532 40.9316 80.25C43.7869 79.2647 44.1975 78.9805 44.1975 77.9762C44.1975 77.4078 43.4153 76.7256 42.7895 76.7256C42.5157 76.7256 41.4205 77.0288 40.384 77.3888C39.328 77.7678 38.3893 78.0331 38.272 77.9952C38.1155 77.9573 36.9617 75.1719 36.9617 74.8118C36.9617 74.755 37.9982 74.3381 39.2693 73.8834C41.8703 72.9739 42.4375 72.5759 42.4375 71.6854C42.4375 71.0222 41.7139 70.2642 41.0881 70.3021C40.9121 70.3021 39.328 70.8137 37.5484 71.439Z" fill="#185E8B"/>
<path d="M41.9487 13.8928C39.8171 14.3854 37.9396 15.7308 36.864 17.4929C34.6346 21.1879 36.2382 26.1523 40.2669 28.0851C41.4598 28.6535 41.6749 28.6914 43.611 28.6914C45.5471 28.6914 45.7622 28.6535 46.9747 28.0661C48.6174 27.2892 50.2406 25.6407 50.8664 24.1059C51.2184 23.2343 51.3162 22.6279 51.3358 21.2068C51.3358 19.5583 51.2771 19.293 50.71 18.1372C49.5953 15.8444 47.5223 14.2907 44.98 13.817C43.7088 13.5896 43.2003 13.5896 41.9487 13.8928ZM45.9969 17.1708C48.9499 18.7246 49.341 22.7037 46.7596 24.8259C44.0999 27.0429 39.9735 25.8302 38.9957 22.5521C37.7636 18.5351 42.1834 15.1623 45.9969 17.1708Z" fill="#185E8B"/>
</svg>
