<svg width="89" height="89" viewBox="0 0 89 89" fill="none" xmlns="http://www.w3.org/2000/svg">
<path d="M42.0664 4.27617C37.9293 4.79765 33.74 6.53593 30.6807 8.98691C29.3596 10.0646 27.1867 12.3939 26.2654 13.7324C23.7449 17.4002 22.5281 21.0506 22.3021 25.5006L22.1979 27.7951L13.8367 27.8473L5.47559 27.8994L4.60645 28.334C3.49395 28.8728 2.45098 29.9158 1.91211 31.0283L1.47754 31.8975V55.625V79.3525L1.87734 80.1348C2.48574 81.3863 3.18105 82.1164 4.38047 82.7596L5.47559 83.3506H44.5H83.5244L84.6195 82.7596C85.8363 82.099 86.3578 81.5602 87.0531 80.2391L87.5225 79.3525V55.625V31.8975L86.9314 30.8023C86.2883 29.6029 85.5582 28.9076 84.3066 28.2992C83.5244 27.8994 83.4375 27.8994 75.1633 27.8473L66.8021 27.7951L66.6978 25.5006C66.4893 21.2592 65.2551 17.4523 63.0475 14.167C62.074 12.7242 61.709 12.2896 60.0924 10.6383C57.1199 7.63105 53.2088 5.52773 48.8457 4.58906C47.5768 4.32832 43.2832 4.11972 42.0664 4.27617ZM47.4551 7.21386C54.6516 8.2916 60.7355 13.4717 62.9953 20.4074C65.9156 29.3596 61.9002 39.2504 53.5738 43.5961C50.7752 45.0389 48.4633 45.682 45.2648 45.8385C40.7627 46.0644 35.965 44.5 32.332 41.5797C23.3104 34.3658 22.5803 20.8941 30.7676 12.6894C35.1828 8.27422 41.2842 6.27519 47.4551 7.21386ZM22.6846 30.8023C22.7193 30.924 22.9453 31.7758 23.2061 32.6797C23.658 34.2963 24.7184 36.7299 25.6396 38.19L26.0916 38.9375H15.1404H4.17188V35.9129C4.17188 32.7666 4.27617 32.193 4.91934 31.4803C5.71895 30.6111 5.78848 30.6111 14.4799 30.5937C20.842 30.5937 22.615 30.6459 22.6846 30.8023ZM83.5418 31.0457C84.6891 31.8975 84.7412 32.0539 84.7934 35.6521L84.8455 38.9375H73.877H62.9084L63.3603 38.19C64.2816 36.7299 65.342 34.2963 65.7939 32.6797C66.0547 31.7758 66.2807 30.924 66.3328 30.8023C66.385 30.6285 68.0885 30.5937 74.7287 30.6285C82.8465 30.6807 83.0725 30.698 83.5418 31.0457ZM29.6029 42.866C34.418 47.316 41.1625 49.3846 47.7506 48.3937C52.0963 47.7506 56.2334 45.7863 59.3971 42.866L60.6312 41.7187H72.7297H84.8281V45.8906V50.0625H44.5H4.17188V45.8906V41.7187H16.2703H28.3687L29.6029 42.866ZM84.7934 65.8635C84.7412 78.7094 84.7412 78.9006 84.3762 79.3699C84.185 79.6307 83.8025 80.0131 83.5418 80.2043L83.0725 80.5693H44.5H5.92754L5.4582 80.2043C5.19746 80.0131 4.81504 79.6307 4.62383 79.3699C4.25879 78.9006 4.25879 78.7094 4.20664 65.8635L4.17188 52.8437H44.5H84.8281L84.7934 65.8635Z" fill="#185E8B"/>
<path d="M36.0693 15.575C34.557 16.1313 33.375 17.8869 33.375 19.5383C33.3924 20.8246 33.9486 21.6764 36.3822 24.11L38.6768 26.4219L36.3822 28.7164C33.966 31.15 33.3924 32.0191 33.375 33.2707C33.3576 35.5826 35.3219 37.5469 37.6164 37.5469C38.9027 37.5295 39.7545 36.9732 42.2055 34.5396L44.5 32.2451L46.8119 34.5396C49.2455 36.9732 50.0973 37.5295 51.3836 37.5469C53.6781 37.5469 55.6424 35.5826 55.625 33.2707C55.6076 32.0191 55.034 31.15 52.6178 28.7164L50.3232 26.4219L52.6178 24.11C55.0514 21.6764 55.6076 20.8246 55.625 19.5383C55.625 17.2438 53.6607 15.2795 51.3488 15.2969C50.0973 15.3143 49.2281 15.8879 46.8119 18.3041L44.5 20.5986L42.2055 18.3041C40.6758 16.7918 39.6328 15.8879 39.1113 15.6619C38.2074 15.2447 37.0601 15.21 36.0693 15.575ZM41.0408 20.9811C43.5439 23.4494 44.048 23.8666 44.5 23.8666C44.9519 23.8666 45.456 23.4494 47.9592 20.9811C50.5144 18.4432 50.949 18.0781 51.4357 18.0781C52.1832 18.0781 52.8437 18.7387 52.8437 19.4861C52.8437 19.9729 52.4787 20.4074 49.9408 22.9627C47.4725 25.4658 47.0553 25.9699 47.0553 26.4219C47.0553 26.8738 47.4725 27.3779 49.9408 29.8811C52.4787 32.4363 52.8437 32.8709 52.8437 33.3576C52.8437 34.0008 52.1832 34.7656 51.6269 34.7656C50.9664 34.7656 50.5318 34.418 47.768 31.6715C45.4387 29.3596 44.9693 28.9771 44.5174 28.9771C44.048 28.9771 43.5613 29.377 41.0408 31.8627C38.4855 34.4006 38.051 34.7656 37.5643 34.7656C36.8168 34.7656 36.1562 34.1051 36.1562 33.3576C36.1562 32.8709 36.5213 32.4363 39.0592 29.8811C41.5275 27.3779 41.9447 26.8738 41.9447 26.4219C41.9447 25.9699 41.5275 25.4658 39.0592 22.9627C36.5213 20.4074 36.1562 19.9729 36.1562 19.4861C36.1562 18.7387 36.8168 18.0781 37.5643 18.0781C38.051 18.0781 38.4855 18.4432 41.0408 20.9811Z" fill="#185E8B"/>
<path d="M7.3877 67.1846L6.95312 67.6018V72.3125V77.0232L7.3877 77.4404L7.80488 77.875H15.2969H22.7889L23.2061 77.4404L23.6406 77.0232V72.3125V67.6018L23.2061 67.1846L22.7889 66.75H15.2969H7.80488L7.3877 67.1846ZM20.8594 72.3125V75.0938H15.2969H9.73438V72.3125V69.5312H15.2969H20.8594V72.3125Z" fill="#185E8B"/>
<path d="M62.5781 76.4844V77.875H63.9688H65.3594V76.4844V75.0938H63.9688H62.5781V76.4844Z" fill="#185E8B"/>
<path d="M73.877 76.4844V77.875H75.1807H76.4844V76.4844V75.0938H75.1807H73.877V76.4844Z" fill="#185E8B"/>
<path d="M68.1406 76.6582V78.0488H69.5312H70.9219V76.6582V75.2676H69.5312H68.1406V76.6582Z" fill="#185E8B"/>
<path d="M79.2656 76.6582V78.0488H80.6562H82.0469V76.6582V75.2676H80.6562H79.2656V76.6582Z" fill="#185E8B"/>
</svg>
