<svg width="210" height="167" viewBox="0 0 210 167" fill="none" xmlns="http://www.w3.org/2000/svg">
<path d="M49.9929 162L47.1129 157.95C46.7889 157.986 46.4529 158.004 46.1049 158.004H42.7209V162H41.3889V149.4H46.1049C47.7129 149.4 48.9729 149.784 49.8849 150.552C50.7969 151.32 51.2529 152.376 51.2529 153.72C51.2529 154.704 51.0009 155.538 50.4969 156.222C50.0049 156.894 49.2969 157.38 48.3729 157.68L51.4509 162H49.9929ZM46.0689 156.87C47.3169 156.87 48.2709 156.594 48.9309 156.042C49.5909 155.49 49.9209 154.716 49.9209 153.72C49.9209 152.7 49.5909 151.92 48.9309 151.38C48.2709 150.828 47.3169 150.552 46.0689 150.552H42.7209V156.87H46.0689ZM63.3067 160.848V162H54.3967V149.4H63.0367V150.552H55.7287V155.034H62.2447V156.168H55.7287V160.848H63.3067ZM76.9677 149.4V162H75.8697L67.7697 151.776V162H66.4377V149.4H67.5357L75.6537 159.624V149.4H76.9677ZM83.5283 150.552H79.1003V149.4H89.2883V150.552H84.8603V162H83.5283V150.552ZM104.029 158.634H97.0092L95.4972 162H94.1112L99.8712 149.4H101.185L106.945 162H105.541L104.029 158.634ZM103.543 157.554L100.519 150.786L97.4952 157.554H103.543ZM124.27 149.4V162H122.956V156.186H115.072V162H113.74V149.4H115.072V155.016H122.956V149.4H124.27ZM133.891 162.108C132.643 162.108 131.509 161.832 130.489 161.28C129.481 160.716 128.689 159.948 128.113 158.976C127.549 158.004 127.267 156.912 127.267 155.7C127.267 154.488 127.549 153.396 128.113 152.424C128.689 151.452 129.481 150.69 130.489 150.138C131.509 149.574 132.643 149.292 133.891 149.292C135.139 149.292 136.261 149.568 137.257 150.12C138.265 150.672 139.057 151.44 139.633 152.424C140.209 153.396 140.497 154.488 140.497 155.7C140.497 156.912 140.209 158.01 139.633 158.994C139.057 159.966 138.265 160.728 137.257 161.28C136.261 161.832 135.139 162.108 133.891 162.108ZM133.891 160.92C134.887 160.92 135.787 160.698 136.591 160.254C137.395 159.798 138.025 159.174 138.481 158.382C138.937 157.578 139.165 156.684 139.165 155.7C139.165 154.716 138.937 153.828 138.481 153.036C138.025 152.232 137.395 151.608 136.591 151.164C135.787 150.708 134.887 150.48 133.891 150.48C132.895 150.48 131.989 150.708 131.173 151.164C130.369 151.608 129.733 152.232 129.265 153.036C128.809 153.828 128.581 154.716 128.581 155.7C128.581 156.684 128.809 157.578 129.265 158.382C129.733 159.174 130.369 159.798 131.173 160.254C131.989 160.698 132.895 160.92 133.891 160.92ZM156.569 149.4V162H155.291V151.92L150.341 160.398H149.711L144.761 151.974V162H143.483V149.4H144.581L150.053 158.742L155.471 149.4H156.569ZM169.584 160.848V162H160.674V149.4H169.314V150.552H162.006V155.034H168.522V156.168H162.006V160.848H169.584Z" fill="white"/>
<path d="M9.33223 121.15C9.03223 121.15 8.79889 121.05 8.63223 120.85C8.49889 120.617 8.43223 120.35 8.43223 120.05C8.46556 119.55 8.56556 119.25 8.73223 119.15C8.89889 119.05 9.21556 119 9.68223 119C10.6489 119 11.3656 118.833 11.8322 118.5C12.2989 118.133 12.5822 117.7 12.6822 117.2C12.8156 116.667 12.8989 115.983 12.9322 115.15V95.35C12.8989 94.4833 12.8156 93.8 12.6822 93.3C12.5822 92.8 12.2989 92.3667 11.8322 92C11.3656 91.6333 10.6489 91.45 9.68223 91.45H9.38223C9.04889 91.45 8.81556 91.4 8.68223 91.3C8.54889 91.1667 8.46556 90.8667 8.43223 90.4C8.43223 90.1 8.49889 89.85 8.63223 89.65C8.79889 89.4167 9.03223 89.3 9.33223 89.3C11.4989 89.4 13.4822 89.45 15.2822 89.45H23.8822C26.4489 89.4833 28.5822 89.9 30.2822 90.7C32.0156 91.4667 33.2822 92.4667 34.0822 93.7C34.8822 94.9 35.2822 96.2 35.2822 97.6C35.2822 99.4333 34.5489 101.117 33.0822 102.65C31.6489 104.183 29.6822 105.283 27.1822 105.95L28.0322 107.3C29.4322 109.567 30.6989 111.517 31.8322 113.15C32.9656 114.75 34.1989 116.25 35.5322 117.65C36.4656 118.417 37.4656 118.867 38.5322 119C38.5989 119 38.7489 119.017 38.9822 119.05C39.2156 119.05 39.3989 119.133 39.5322 119.3C39.6989 119.467 39.7822 119.717 39.7822 120.05C39.7822 120.35 39.6989 120.617 39.5322 120.85C39.3989 121.05 39.1822 121.15 38.8822 121.15L37.5822 121.1C36.1156 121.033 35.0489 121 34.3822 121C33.0489 120.733 31.8989 120.267 30.9322 119.6C29.9989 118.9 29.0656 117.917 28.1322 116.65C27.1656 115.383 25.8156 113.317 24.0822 110.45L23.1822 109C22.6822 108.233 22.1989 107.717 21.7322 107.45C21.2656 107.15 20.4656 107 19.3322 107H17.8822V115.15C17.9156 115.983 17.9822 116.667 18.0822 117.2C18.2156 117.7 18.5156 118.133 18.9822 118.5C19.4489 118.833 20.1656 119 21.1322 119H21.4322C21.7322 119 21.9489 119.067 22.0822 119.2C22.2489 119.3 22.3489 119.583 22.3822 120.05C22.3822 120.35 22.2989 120.617 22.1322 120.85C21.9989 121.05 21.7822 121.15 21.4822 121.15C19.3489 121.05 17.2656 121 15.2322 121C13.4656 121 11.4989 121.05 9.33223 121.15ZM22.2822 105.05C27.2489 105.05 29.7322 102.717 29.7322 98.05C29.7322 96.15 29.0822 94.55 27.7822 93.25C26.4822 91.95 24.3489 91.3 21.3822 91.3C20.4156 91.3 19.6822 91.4167 19.1822 91.65C18.6822 91.8833 18.3322 92.2833 18.1322 92.85C17.9656 93.4167 17.8822 94.2833 17.8822 95.45V105.05H22.2822ZM42.61 111.05C42.2766 111.05 41.9933 110.883 41.76 110.55C41.56 110.183 41.46 109.817 41.46 109.45C41.46 109.083 41.56 108.733 41.76 108.4C41.9933 108.033 42.2766 107.85 42.61 107.85H53.56C53.8933 107.85 54.16 108.033 54.36 108.4C54.5933 108.733 54.71 109.083 54.71 109.45C54.71 109.817 54.5933 110.183 54.36 110.55C54.16 110.883 53.8933 111.05 53.56 111.05H42.61ZM59.3811 121.15C59.0811 121.15 58.8477 121.05 58.6811 120.85C58.5477 120.617 58.4811 120.35 58.4811 120.05C58.5144 119.55 58.6144 119.25 58.7811 119.15C58.9477 119.05 59.2644 119 59.7311 119C60.6977 119 61.4144 118.833 61.8811 118.5C62.3477 118.133 62.6311 117.7 62.7311 117.2C62.8644 116.667 62.9477 115.983 62.9811 115.15V95.3C62.9477 94.4667 62.8644 93.8 62.7311 93.3C62.6311 92.7667 62.3477 92.3333 61.8811 92C61.4144 91.6333 60.6977 91.45 59.7311 91.45H59.4311C59.0977 91.45 58.8644 91.4 58.7311 91.3C58.5977 91.1667 58.5144 90.8667 58.4811 90.4C58.4811 90.1 58.5477 89.85 58.6811 89.65C58.8477 89.4167 59.0811 89.3 59.3811 89.3C61.5477 89.4 63.5144 89.45 65.2811 89.45C67.2811 89.45 69.3644 89.4 71.5311 89.3C71.8311 89.3 72.0477 89.4167 72.1811 89.65C72.3477 89.85 72.4311 90.1 72.4311 90.4C72.3977 90.9 72.2977 91.2 72.1311 91.3C71.9644 91.4 71.6477 91.45 71.1811 91.45C70.2144 91.45 69.4977 91.6333 69.0311 92C68.5644 92.3333 68.2644 92.7667 68.1311 93.3C68.0311 93.8 67.9644 94.4667 67.9311 95.3V104.15H83.6311V95.3C83.5977 94.4667 83.5144 93.8 83.3811 93.3C83.2811 92.7667 82.9977 92.3333 82.5311 92C82.0644 91.6333 81.3477 91.45 80.3811 91.45H80.0811C79.7477 91.45 79.4977 91.4 79.3311 91.3C79.1977 91.1667 79.1144 90.8667 79.0811 90.4C79.0811 90.1 79.1644 89.85 79.3311 89.65C79.4977 89.4167 79.7144 89.3 79.9811 89.3C82.1477 89.4 84.2311 89.45 86.2311 89.45C88.0644 89.45 90.0477 89.4 92.1811 89.3C92.4811 89.3 92.6977 89.4167 92.8311 89.65C92.9977 89.85 93.0811 90.1 93.0811 90.4C93.0477 90.9 92.9311 91.2 92.7311 91.3C92.5644 91.4 92.2644 91.45 91.8311 91.45C90.8644 91.45 90.1311 91.6333 89.6311 92C89.1644 92.3333 88.8644 92.7667 88.7311 93.3C88.6311 93.8 88.5644 94.4667 88.5311 95.3V115.15C88.5644 115.983 88.6311 116.667 88.7311 117.2C88.8644 117.7 89.1644 118.133 89.6311 118.5C90.1311 118.833 90.8644 119 91.8311 119H92.1311C92.4311 119 92.6477 119.067 92.7811 119.2C92.9477 119.3 93.0477 119.583 93.0811 120.05C93.0811 120.35 92.9977 120.617 92.8311 120.85C92.6977 121.05 92.4811 121.15 92.1811 121.15C90.0477 121.05 88.0477 121 86.1811 121C84.2144 121 82.1477 121.05 79.9811 121.15C79.7144 121.15 79.4977 121.05 79.3311 120.85C79.1644 120.617 79.0811 120.35 79.0811 120.05C79.1144 119.55 79.2144 119.25 79.3811 119.15C79.5811 119.05 79.9144 119 80.3811 119C81.3477 119 82.0644 118.833 82.5311 118.5C82.9977 118.133 83.2811 117.7 83.3811 117.2C83.5144 116.667 83.5977 115.983 83.6311 115.15V106.3H67.9311V115.15C67.9644 115.983 68.0311 116.667 68.1311 117.2C68.2644 117.7 68.5644 118.133 69.0311 118.5C69.4977 118.833 70.2144 119 71.1811 119H71.4811C71.8144 119 72.0477 119.067 72.1811 119.2C72.3144 119.3 72.3977 119.583 72.4311 120.05C72.4311 120.35 72.3477 120.617 72.1811 120.85C72.0477 121.05 71.8311 121.15 71.5311 121.15C69.3977 121.05 67.3311 121 65.3311 121C63.5311 121 61.5477 121.05 59.3811 121.15ZM149.997 121.25C149.497 121.25 149.147 121.083 148.947 120.75L137.697 95.3H137.547L137.647 115.15C137.68 116.05 137.747 116.75 137.847 117.25C137.947 117.717 138.213 118.133 138.647 118.5C139.113 118.833 139.83 119 140.797 119H141.097C141.43 119 141.663 119.067 141.797 119.2C141.963 119.3 142.063 119.583 142.097 120.05C142.097 120.35 142.013 120.617 141.847 120.85C141.713 121.05 141.497 121.15 141.197 121.15L139.947 121.1C138.413 121.033 137.313 121 136.647 121C135.513 121 133.863 121.05 131.697 121.15C131.397 121.15 131.163 121.05 130.997 120.85C130.863 120.617 130.797 120.35 130.797 120.05C130.83 119.55 130.93 119.25 131.097 119.15C131.263 119.05 131.58 119 132.047 119C133.013 119 133.713 118.833 134.147 118.5C134.613 118.133 134.897 117.717 134.997 117.25C135.097 116.75 135.163 116.05 135.197 115.15L135.297 95.3C135.297 94.2667 135.18 93.5 134.947 93C134.713 92.4667 134.363 92.1 133.897 91.9C133.463 91.6667 132.813 91.4667 131.947 91.3C131.813 91.2667 131.613 91.2333 131.347 91.2C131.08 91.1333 130.897 91.0333 130.797 90.9C130.73 90.7333 130.697 90.4833 130.697 90.15C130.697 89.75 130.797 89.4833 130.997 89.35C131.23 89.2167 131.58 89.15 132.047 89.15C134.013 89.15 135.63 89.2833 136.897 89.55C138.163 89.7833 139.263 90.2833 140.197 91.05C141.163 91.8167 141.963 92.95 142.597 94.45L151.197 113.75H151.347L161.197 89.45H164.047C165.88 89.45 167.863 89.4 169.997 89.3C170.297 89.3 170.513 89.4167 170.647 89.65C170.813 89.85 170.897 90.1 170.897 90.4C170.863 90.9 170.747 91.2 170.547 91.3C170.38 91.4 170.08 91.45 169.647 91.45C168.68 91.45 167.963 91.6333 167.497 92C167.03 92.3333 166.73 92.7667 166.597 93.3C166.497 93.8 166.43 94.4667 166.397 95.3V115.15C166.43 115.983 166.497 116.667 166.597 117.2C166.73 117.7 167.03 118.133 167.497 118.5C167.963 118.833 168.68 119 169.647 119H169.947C170.247 119 170.463 119.067 170.597 119.2C170.763 119.3 170.863 119.583 170.897 120.05C170.897 120.35 170.813 120.617 170.647 120.85C170.513 121.05 170.297 121.15 169.997 121.15C167.863 121.05 165.863 121 163.997 121C162.063 121 160.013 121.05 157.847 121.15C157.547 121.15 157.313 121.05 157.147 120.85C157.013 120.617 156.947 120.35 156.947 120.05C156.98 119.55 157.08 119.25 157.247 119.15C157.413 119.05 157.73 119 158.197 119C159.163 119 159.88 118.833 160.347 118.5C160.813 118.133 161.097 117.7 161.197 117.2C161.33 116.667 161.413 115.983 161.447 115.15V95.3H161.297L150.997 120.75C150.863 121.083 150.53 121.25 149.997 121.25ZM176.03 121.15C175.764 121.15 175.547 121.05 175.38 120.85C175.247 120.617 175.18 120.35 175.18 120.05C175.214 119.55 175.314 119.25 175.48 119.15C175.647 119.05 175.964 119 176.43 119C177.397 119 178.114 118.833 178.58 118.5C179.047 118.133 179.33 117.7 179.43 117.2C179.564 116.667 179.647 115.983 179.68 115.15V95.3C179.647 94.4667 179.564 93.8 179.43 93.3C179.33 92.7667 179.047 92.3333 178.58 92C178.114 91.6333 177.397 91.45 176.43 91.45H176.13C175.797 91.45 175.564 91.4 175.43 91.3C175.297 91.1667 175.214 90.8667 175.18 90.4C175.18 90.1 175.247 89.85 175.38 89.65C175.547 89.4167 175.764 89.3 176.03 89.3C178.23 89.4 180.214 89.45 181.98 89.45H197.68C198.547 89.45 198.98 89.85 198.98 90.65L199.13 97.65C199.13 97.95 198.98 98.2 198.68 98.4C198.38 98.5667 198.08 98.65 197.78 98.65C197.38 98.65 197.03 98.5833 196.73 98.45C196.43 98.2833 196.264 98.05 196.23 97.75C195.964 96.1167 195.664 94.8833 195.33 94.05C195.03 93.1833 194.564 92.55 193.93 92.15C193.33 91.7167 192.464 91.4833 191.33 91.45H184.63V104.15H193.68C193.914 104.183 194.097 104.317 194.23 104.55C194.364 104.75 194.43 105 194.43 105.3C194.43 105.567 194.364 105.8 194.23 106C194.097 106.2 193.914 106.3 193.68 106.3H184.63V115.75C184.697 116.45 184.78 117.017 184.88 117.45C184.98 117.85 185.28 118.217 185.78 118.55C186.28 118.883 187.064 119.033 188.13 119H192.73C193.897 118.967 194.78 118.783 195.38 118.45C195.98 118.083 196.447 117.533 196.78 116.8C197.147 116.067 197.58 114.867 198.08 113.2C198.314 112.6 198.88 112.367 199.78 112.5C200.114 112.567 200.397 112.7 200.63 112.9C200.897 113.1 201.014 113.35 200.98 113.65L199.98 119.95C199.88 120.383 199.73 120.667 199.53 120.8C199.33 120.933 198.997 121 198.53 121H182.03C180.23 121 178.23 121.05 176.03 121.15Z" fill="white"/>
<path d="M9.33223 121.15V121.75H9.34607L9.35989 121.749L9.33223 121.15ZM8.63223 120.85L8.11128 121.148L8.13748 121.194L8.17129 121.234L8.63223 120.85ZM8.43223 120.05L7.83356 120.01L7.83223 120.03V120.05H8.43223ZM8.73223 119.15L9.04092 119.664H9.04092L8.73223 119.15ZM11.8322 118.5L12.181 118.988L12.1921 118.98L12.2029 118.972L11.8322 118.5ZM12.6822 117.2L12.1001 117.054L12.0967 117.068L12.0939 117.082L12.6822 117.2ZM12.9322 115.15L13.5317 115.174L13.5322 115.162V115.15H12.9322ZM12.9322 95.35H13.5322V95.3385L13.5318 95.3269L12.9322 95.35ZM12.6822 93.3L12.0939 93.4177L12.0976 93.4363L12.1025 93.4546L12.6822 93.3ZM11.8322 92L12.2029 91.5282L12.2029 91.5282L11.8322 92ZM8.68223 91.3L8.25796 91.7243L8.28811 91.7544L8.32223 91.78L8.68223 91.3ZM8.43223 90.4H7.83223V90.4214L7.83375 90.4427L8.43223 90.4ZM8.63223 89.65L8.14399 89.3013L8.13836 89.3091L8.133 89.3172L8.63223 89.65ZM9.33223 89.3L9.35989 88.7006L9.34607 88.7H9.33223V89.3ZM23.8822 89.45L23.89 88.85H23.8822V89.45ZM30.2822 90.7L30.0267 91.243L30.0395 91.2487L30.2822 90.7ZM34.0822 93.7L33.5788 94.0265L33.583 94.0328L34.0822 93.7ZM33.0822 102.65L32.6486 102.235L32.6439 102.24L33.0822 102.65ZM27.1822 105.95L27.0276 105.37L26.2404 105.58L26.6745 106.27L27.1822 105.95ZM28.0322 107.3L28.5427 106.985L28.54 106.98L28.0322 107.3ZM31.8322 113.15L31.3393 113.492L31.3426 113.497L31.8322 113.15ZM35.5322 117.65L35.0977 118.064L35.123 118.09L35.1514 118.114L35.5322 117.65ZM38.5322 119L38.4578 119.595L38.4949 119.6H38.5322V119ZM38.9822 119.05L38.8974 119.644L38.9396 119.65H38.9822V119.05ZM39.5322 119.3L39.0637 119.675L39.0845 119.701L39.108 119.724L39.5322 119.3ZM39.5322 120.85L39.044 120.501L39.0384 120.509L39.033 120.517L39.5322 120.85ZM38.8822 121.15L38.8592 121.75L38.8707 121.75H38.8822V121.15ZM37.5822 121.1L37.555 121.699L37.5592 121.7L37.5822 121.1ZM34.3822 121L34.2646 121.588L34.3228 121.6H34.3822V121ZM30.9322 119.6L30.5722 120.08L30.5818 120.087L30.5916 120.094L30.9322 119.6ZM28.1322 116.65L28.6153 116.294L28.6092 116.286L28.1322 116.65ZM24.0822 110.45L24.5957 110.14L24.592 110.134L24.0822 110.45ZM23.1822 109L23.6921 108.684L23.6848 108.672L23.1822 109ZM21.7322 107.45L21.4078 107.955L21.4209 107.963L21.4345 107.971L21.7322 107.45ZM17.8822 107V106.4H17.2822V107H17.8822ZM17.8822 115.15H17.2822V115.162L17.2827 115.174L17.8822 115.15ZM18.0822 117.2L17.4925 117.311L17.4967 117.333L17.5025 117.355L18.0822 117.2ZM18.9822 118.5L18.6115 118.972L18.6223 118.98L18.6335 118.988L18.9822 118.5ZM22.0822 119.2L21.658 119.624L21.7102 119.676L21.7735 119.714L22.0822 119.2ZM22.3822 120.05H22.9822V120.029L22.9807 120.007L22.3822 120.05ZM22.1322 120.85L21.644 120.501L21.6384 120.509L21.633 120.517L22.1322 120.85ZM21.4822 121.15L21.4541 121.749L21.4682 121.75H21.4822V121.15ZM27.7822 93.25L27.358 93.6743H27.358L27.7822 93.25ZM19.1822 91.65L19.436 92.1937L19.436 92.1937L19.1822 91.65ZM18.1322 92.85L17.5664 92.6503L17.5611 92.6654L17.5566 92.6807L18.1322 92.85ZM17.8822 105.05H17.2822V105.65H17.8822V105.05ZM9.33223 120.55C9.17999 120.55 9.12776 120.507 9.09316 120.466L8.17129 121.234C8.47003 121.593 8.88446 121.75 9.33223 121.75V120.55ZM9.15317 120.552C9.07747 120.42 9.03223 120.258 9.03223 120.05H7.83223C7.83223 120.442 7.92031 120.813 8.11128 121.148L9.15317 120.552ZM9.0309 120.09C9.0459 119.865 9.07416 119.722 9.10144 119.64C9.13269 119.546 9.13707 119.607 9.04092 119.664L8.42353 118.636C8.16071 118.793 8.03176 119.054 7.96302 119.26C7.89029 119.478 7.85189 119.735 7.83356 120.01L9.0309 120.09ZM9.04092 119.664C9.02906 119.672 9.06304 119.65 9.1883 119.63C9.30522 119.612 9.46746 119.6 9.68223 119.6V118.4C9.43032 118.4 9.2009 118.413 9.00115 118.445C8.80974 118.475 8.60206 118.528 8.42353 118.636L9.04092 119.664ZM9.68223 119.6C10.6967 119.6 11.5639 119.429 12.181 118.988L11.4835 118.012C11.1672 118.238 10.6011 118.4 9.68223 118.4V119.6ZM12.2029 118.972C12.7626 118.532 13.138 117.98 13.2706 117.318L12.0939 117.082C12.0264 117.42 11.8352 117.735 11.4615 118.028L12.2029 118.972ZM13.2643 117.346C13.4113 116.758 13.4975 116.03 13.5317 115.174L12.3327 115.126C12.3003 115.937 12.2198 116.576 12.1001 117.054L13.2643 117.346ZM13.5322 115.15V95.35H12.3322V115.15H13.5322ZM13.5318 95.3269C13.4977 94.4413 13.4119 93.7075 13.262 93.1454L12.1025 93.4546C12.2193 93.8925 12.3001 94.5253 12.3327 95.3731L13.5318 95.3269ZM13.2706 93.1823C13.138 92.5196 12.7626 91.9679 12.2029 91.5282L11.4615 92.4718C11.8352 92.7654 12.0264 93.0804 12.0939 93.4177L13.2706 93.1823ZM12.2029 91.5282C11.5822 91.0405 10.7052 90.85 9.68223 90.85V92.05C10.5926 92.05 11.1489 92.2262 11.4615 92.4718L12.2029 91.5282ZM9.68223 90.85H9.38223V92.05H9.68223V90.85ZM9.38223 90.85C9.24254 90.85 9.14564 90.8393 9.08294 90.8258C9.01719 90.8117 9.01617 90.8005 9.04223 90.82L8.32223 91.78C8.62154 92.0045 9.02767 92.05 9.38223 92.05V90.85ZM9.10649 90.8757C9.14607 90.9153 9.12784 90.9224 9.09784 90.8144C9.07076 90.7169 9.04579 90.5685 9.0307 90.3572L7.83375 90.4427C7.852 90.6982 7.88536 90.9331 7.94162 91.1356C7.99495 91.3276 8.08505 91.5513 8.25796 91.7243L9.10649 90.8757ZM9.03223 90.4C9.03223 90.189 9.07846 90.0623 9.13146 89.9828L8.133 89.3172C7.91933 89.6377 7.83223 90.011 7.83223 90.4H9.03223ZM9.12047 89.9987C9.16849 89.9315 9.21542 89.9 9.33223 89.9V88.7C8.84904 88.7 8.42929 88.9018 8.14399 89.3013L9.12047 89.9987ZM9.30456 89.8994C11.4787 89.9997 13.4714 90.05 15.2822 90.05V88.85C13.4931 88.85 11.5191 88.8003 9.35989 88.7006L9.30456 89.8994ZM15.2822 90.05H23.8822V88.85H15.2822V90.05ZM23.8744 90.0499C26.385 90.0826 28.4272 90.4902 30.0267 91.2429L30.5377 90.1571C28.7373 89.3098 26.5128 88.8841 23.89 88.85L23.8744 90.0499ZM30.0395 91.2487C31.6967 91.9817 32.8583 92.9157 33.5789 94.0265L34.5856 93.3735C33.7061 92.0177 32.3344 90.9516 30.5249 90.1513L30.0395 91.2487ZM33.583 94.0328C34.3194 95.1374 34.6822 96.3222 34.6822 97.6H35.8822C35.8822 96.0778 35.4451 94.6626 34.5815 93.3672L33.583 94.0328ZM34.6822 97.6C34.6822 99.2545 34.0266 100.795 32.6486 102.235L33.5158 103.065C35.0712 101.439 35.8822 99.6121 35.8822 97.6H34.6822ZM32.6439 102.24C31.3034 103.674 29.4443 104.726 27.0276 105.37L27.3368 106.53C29.9202 105.841 31.9943 104.692 33.5205 103.06L32.6439 102.24ZM26.6745 106.27L27.5245 107.62L28.54 106.98L27.69 105.63L26.6745 106.27ZM27.5217 107.615C28.9256 109.888 30.1982 111.848 31.3393 113.492L32.3252 112.808C31.1996 111.186 29.9389 109.245 28.5427 106.985L27.5217 107.615ZM31.3426 113.497C32.4924 115.12 33.7442 116.643 35.0977 118.064L35.9667 117.236C34.6536 115.857 33.4387 114.38 32.3218 112.803L31.3426 113.497ZM35.1514 118.114C36.1612 118.943 37.2651 119.446 38.4578 119.595L38.6067 118.405C37.666 118.287 36.7699 117.89 35.9131 117.186L35.1514 118.114ZM38.5322 119.6C38.5296 119.6 38.5551 119.601 38.6285 119.609C38.6948 119.616 38.7839 119.628 38.8974 119.644L39.0671 118.456C38.846 118.424 38.6502 118.4 38.5322 118.4V119.6ZM38.9822 119.65C39.0268 119.65 39.0442 119.658 39.0464 119.659C39.0481 119.659 39.0494 119.66 39.0511 119.662C39.0528 119.663 39.0572 119.667 39.0637 119.675L40.0007 118.925C39.742 118.602 39.3784 118.45 38.9822 118.45V119.65ZM39.108 119.724C39.1224 119.739 39.1822 119.809 39.1822 120.05H40.3822C40.3822 119.624 40.2754 119.195 39.9565 118.876L39.108 119.724ZM39.1822 120.05C39.1822 120.231 39.1345 120.375 39.044 120.501L40.0205 121.199C40.2633 120.859 40.3822 120.469 40.3822 120.05H39.1822ZM39.033 120.517C39.0288 120.523 39.0264 120.525 39.0261 120.526C39.0259 120.526 39.024 120.528 39.0183 120.53C39.0063 120.536 38.9671 120.55 38.8822 120.55V121.75C39.3264 121.75 39.7588 121.592 40.0315 121.183L39.033 120.517ZM38.9053 120.55L37.6053 120.5L37.5592 121.7L38.8592 121.75L38.9053 120.55ZM37.6095 120.501C36.1418 120.434 35.0635 120.4 34.3822 120.4V121.6C35.0343 121.6 36.0893 121.633 37.555 121.699L37.6095 120.501ZM34.4999 120.412C33.234 120.158 32.1626 119.72 31.2729 119.106L30.5916 120.094C31.6352 120.814 32.8638 121.308 34.2646 121.588L34.4999 120.412ZM31.2922 119.12C30.4188 118.465 29.5251 117.529 28.6153 116.294L27.6492 117.006C28.606 118.304 29.579 119.335 30.5722 120.08L31.2922 119.12ZM28.6092 116.286C27.6633 115.047 26.3272 113.003 24.5957 110.14L23.5688 110.76C25.3039 113.63 26.6678 115.72 27.6553 117.014L28.6092 116.286ZM24.592 110.134L23.692 108.684L22.6724 109.316L23.5724 110.766L24.592 110.134ZM23.6848 108.672C23.1646 107.875 22.6182 107.265 22.0299 106.929L21.4345 107.971C21.7796 108.168 22.1998 108.592 22.6797 109.328L23.6848 108.672ZM22.0567 106.945C21.435 106.546 20.4828 106.4 19.3322 106.4V107.6C20.4483 107.6 21.0961 107.754 21.4078 107.955L22.0567 106.945ZM19.3322 106.4H17.8822V107.6H19.3322V106.4ZM17.2822 107V115.15H18.4822V107H17.2822ZM17.2827 115.174C17.3167 116.023 17.3851 116.738 17.4925 117.311L18.672 117.089C18.5793 116.596 18.5145 115.944 18.4817 115.126L17.2827 115.174ZM17.5025 117.355C17.6741 117.998 18.0583 118.537 18.6115 118.972L19.3529 118.028C18.9728 117.73 18.757 117.402 18.662 117.045L17.5025 117.355ZM18.6335 118.988C19.2505 119.429 20.1177 119.6 21.1322 119.6V118.4C20.2134 118.4 19.6472 118.238 19.331 118.012L18.6335 118.988ZM21.1322 119.6H21.4322V118.4H21.1322V119.6ZM21.4322 119.6C21.5405 119.6 21.6072 119.612 21.6433 119.623C21.6769 119.634 21.6732 119.639 21.658 119.624L22.5065 118.776C22.2096 118.479 21.8006 118.4 21.4322 118.4V119.6ZM21.7735 119.714C21.687 119.663 21.6888 119.609 21.7164 119.687C21.7415 119.758 21.769 119.887 21.7838 120.093L22.9807 120.007C22.9621 119.747 22.9229 119.5 22.848 119.288C22.7757 119.083 22.6441 118.837 22.3909 118.686L21.7735 119.714ZM21.7822 120.05C21.7822 120.231 21.7345 120.375 21.644 120.501L22.6205 121.199C22.8633 120.859 22.9822 120.469 22.9822 120.05H21.7822ZM21.633 120.517C21.6288 120.523 21.6264 120.525 21.6261 120.526C21.6259 120.526 21.624 120.528 21.6183 120.53C21.6063 120.536 21.5671 120.55 21.4822 120.55V121.75C21.9264 121.75 22.3588 121.592 22.6315 121.183L21.633 120.517ZM21.5103 120.551C19.3681 120.45 17.2754 120.4 15.2322 120.4V121.6C17.2557 121.6 19.3297 121.65 21.4541 121.749L21.5103 120.551ZM15.2322 120.4C13.4545 120.4 11.4785 120.45 9.30456 120.551L9.35989 121.749C11.5193 121.65 13.4766 121.6 15.2322 121.6V120.4ZM22.2822 105.65C24.8491 105.65 26.8858 105.048 28.2806 103.737C29.6824 102.42 30.3322 100.486 30.3322 98.05H29.1322C29.1322 100.281 28.5404 101.847 27.4589 102.863C26.3703 103.886 24.6821 104.45 22.2822 104.45V105.65ZM30.3322 98.05C30.3322 95.9968 29.6232 94.2424 28.2065 92.8257L27.358 93.6743C28.5413 94.8576 29.1322 96.3032 29.1322 98.05H30.3322ZM28.2065 92.8257C26.7416 91.3609 24.4144 90.7 21.3822 90.7V91.9C24.2834 91.9 26.2228 92.5391 27.358 93.6743L28.2065 92.8257ZM21.3822 90.7C20.3842 90.7 19.5467 90.8178 18.9285 91.1063L19.436 92.1937C19.8177 92.0156 20.4469 91.9 21.3822 91.9V90.7ZM18.9285 91.1063C18.2687 91.4142 17.8148 91.9467 17.5664 92.6503L18.698 93.0497C18.8497 92.62 19.0957 92.3525 19.436 92.1937L18.9285 91.1063ZM17.5566 92.6807C17.3648 93.3329 17.2822 94.2704 17.2822 95.45H18.4822C18.4822 94.2963 18.5663 93.5004 18.7078 93.0193L17.5566 92.6807ZM17.2822 95.45V105.05H18.4822V95.45H17.2822ZM17.8822 105.65H22.2822V104.45H17.8822V105.65ZM41.76 110.55L41.2332 110.837L41.2492 110.867L41.2684 110.894L41.76 110.55ZM41.76 108.4L41.2538 108.078L41.2495 108.085L41.2455 108.091L41.76 108.4ZM54.36 108.4L53.8332 108.687L53.8492 108.717L53.8684 108.744L54.36 108.4ZM54.36 110.55L53.8538 110.228L53.8495 110.235L53.8455 110.241L54.36 110.55ZM42.61 110.45C42.5167 110.45 42.4006 110.419 42.2515 110.206L41.2684 110.894C41.586 111.348 42.0366 111.65 42.61 111.65V110.45ZM42.2867 110.263C42.128 109.972 42.06 109.703 42.06 109.45H40.86C40.86 109.93 40.9919 110.395 41.2332 110.837L42.2867 110.263ZM42.06 109.45C42.06 109.199 42.1269 108.955 42.2745 108.709L41.2455 108.091C40.993 108.512 40.86 108.968 40.86 109.45H42.06ZM42.2662 108.722C42.4271 108.469 42.5433 108.45 42.61 108.45V107.25C42.0099 107.25 41.5595 107.597 41.2538 108.078L42.2662 108.722ZM42.61 108.45H53.56V107.25H42.61V108.45ZM53.56 108.45C53.6153 108.45 53.7071 108.456 53.8332 108.687L54.8867 108.113C54.6129 107.611 54.1713 107.25 53.56 107.25V108.45ZM53.8684 108.744C54.0392 108.988 54.11 109.22 54.11 109.45H55.31C55.31 108.947 55.1473 108.479 54.8515 108.056L53.8684 108.744ZM54.11 109.45C54.11 109.683 54.0373 109.939 53.8538 110.228L54.8662 110.872C55.1492 110.427 55.31 109.95 55.31 109.45H54.11ZM53.8455 110.241C53.7326 110.429 53.6442 110.45 53.56 110.45V111.65C54.1424 111.65 54.5873 111.337 54.8745 110.859L53.8455 110.241ZM53.56 110.45H42.61V111.65H53.56V110.45ZM59.3811 121.15V121.75H59.3949L59.4087 121.749L59.3811 121.15ZM58.6811 120.85L58.1601 121.148L58.1863 121.194L58.2201 121.234L58.6811 120.85ZM58.4811 120.05L57.8824 120.01L57.8811 120.03V120.05H58.4811ZM58.7811 119.15L59.0898 119.664L58.7811 119.15ZM61.8811 118.5L62.2298 118.988L62.241 118.98L62.2517 118.972L61.8811 118.5ZM62.7311 117.2L62.149 117.054L62.1455 117.068L62.1427 117.082L62.7311 117.2ZM62.9811 115.15L63.5806 115.174L63.5811 115.162V115.15H62.9811ZM62.9811 95.3H63.5811V95.288L63.5806 95.276L62.9811 95.3ZM62.7311 93.3L62.1413 93.4106L62.1455 93.4328L62.1513 93.4546L62.7311 93.3ZM61.8811 92L61.5104 92.4718L61.5211 92.4803L61.5323 92.4882L61.8811 92ZM58.7311 91.3L58.3068 91.7243L58.3369 91.7544L58.3711 91.78L58.7311 91.3ZM58.4811 90.4H57.8811V90.4214L57.8826 90.4427L58.4811 90.4ZM58.6811 89.65L58.1928 89.3013L58.1872 89.3091L58.1818 89.3172L58.6811 89.65ZM59.3811 89.3L59.4087 88.7006L59.3949 88.7H59.3811V89.3ZM71.5311 89.3V88.7H71.5172L71.5034 88.7006L71.5311 89.3ZM72.1811 89.65L71.6601 89.9477L71.6863 89.9935L71.7201 90.0341L72.1811 89.65ZM72.4311 90.4L73.0297 90.4399L73.0311 90.42V90.4H72.4311ZM72.1311 91.3L71.8224 90.7855V90.7855L72.1311 91.3ZM69.0311 92L69.3798 92.4882L69.391 92.4803L69.4017 92.4718L69.0311 92ZM68.1311 93.3L67.549 93.1545L67.5455 93.1683L67.5427 93.1823L68.1311 93.3ZM67.9311 95.3L67.3315 95.276L67.3311 95.288V95.3H67.9311ZM67.9311 104.15H67.3311V104.75H67.9311V104.15ZM83.6311 104.15V104.75H84.2311V104.15H83.6311ZM83.6311 95.3H84.2311V95.288L84.2306 95.276L83.6311 95.3ZM83.3811 93.3L82.7913 93.4106L82.7955 93.4328L82.8013 93.4546L83.3811 93.3ZM82.5311 92L82.1604 92.4718L82.1712 92.4803L82.1823 92.4882L82.5311 92ZM79.3311 91.3L78.9068 91.7243L78.959 91.7765L79.0224 91.8145L79.3311 91.3ZM79.0811 90.4H78.4811V90.4214L78.4826 90.4427L79.0811 90.4ZM79.3311 89.65L79.792 90.0341L79.8063 90.0169L79.8193 89.9987L79.3311 89.65ZM79.9811 89.3L80.0087 88.7006L79.9949 88.7H79.9811V89.3ZM92.1811 89.3V88.7H92.167L92.153 88.7007L92.1811 89.3ZM92.8311 89.65L92.3101 89.9477L92.3363 89.9935L92.3701 90.0341L92.8311 89.65ZM93.0811 90.4L93.6797 90.4399L93.6811 90.42V90.4H93.0811ZM92.7311 91.3L92.4627 90.7633L92.4421 90.7736L92.4224 90.7855L92.7311 91.3ZM89.6311 92L89.9798 92.4883L89.9859 92.4838L89.6311 92ZM88.7311 93.3L88.149 93.1545L88.1455 93.1683L88.1427 93.1823L88.7311 93.3ZM88.5311 95.3L87.9315 95.276L87.9311 95.288V95.3H88.5311ZM88.5311 115.15H87.9311V115.162L87.9315 115.174L88.5311 115.15ZM88.7311 117.2L88.1413 117.311L88.1455 117.333L88.1513 117.355L88.7311 117.2ZM89.6311 118.5L89.2604 118.972L89.2788 118.986L89.2982 118.999L89.6311 118.5ZM92.7811 119.2L92.3568 119.624L92.409 119.676L92.4724 119.714L92.7811 119.2ZM93.0811 120.05H93.6811V120.029L93.6795 120.007L93.0811 120.05ZM92.8311 120.85L92.3428 120.501L92.3372 120.509L92.3318 120.517L92.8311 120.85ZM92.1811 121.15L92.153 121.749L92.167 121.75H92.1811V121.15ZM79.9811 121.15V121.75H79.9949L80.0087 121.749L79.9811 121.15ZM79.3311 120.85L78.8428 121.199L78.8558 121.217L78.8701 121.234L79.3311 120.85ZM79.0811 120.05L78.4824 120.01L78.4811 120.03V120.05H79.0811ZM79.3811 119.15L79.1127 118.613L79.0921 118.624L79.0724 118.636L79.3811 119.15ZM82.5311 118.5L82.8798 118.988L82.891 118.98L82.9017 118.972L82.5311 118.5ZM83.3811 117.2L82.799 117.054L82.7955 117.068L82.7927 117.082L83.3811 117.2ZM83.6311 115.15L84.2306 115.174L84.2311 115.162V115.15H83.6311ZM83.6311 106.3H84.2311V105.7H83.6311V106.3ZM67.9311 106.3V105.7H67.3311V106.3H67.9311ZM67.9311 115.15H67.3311V115.162L67.3315 115.174L67.9311 115.15ZM68.1311 117.2L67.5413 117.311L67.5455 117.333L67.5513 117.355L68.1311 117.2ZM69.0311 118.5L68.6604 118.972L68.6712 118.98L68.6823 118.988L69.0311 118.5ZM72.1811 119.2L71.7568 119.624L71.7869 119.654L71.8211 119.68L72.1811 119.2ZM72.4311 120.05H73.0311V120.029L73.0295 120.007L72.4311 120.05ZM72.1811 120.85L71.6928 120.501L71.6872 120.509L71.6818 120.517L72.1811 120.85ZM71.5311 121.15L71.503 121.749L71.517 121.75H71.5311V121.15ZM59.3811 120.55C59.2288 120.55 59.1766 120.507 59.142 120.466L58.2201 121.234C58.5189 121.593 58.9333 121.75 59.3811 121.75V120.55ZM59.202 120.552C59.1263 120.42 59.0811 120.258 59.0811 120.05H57.8811C57.8811 120.442 57.9691 120.813 58.1601 121.148L59.202 120.552ZM59.0797 120.09C59.0947 119.865 59.123 119.722 59.1503 119.64C59.1815 119.546 59.1859 119.607 59.0898 119.664L58.4724 118.636C58.2095 118.793 58.0806 119.054 58.0118 119.26C57.9391 119.478 57.9007 119.735 57.8824 120.01L59.0797 120.09ZM59.0898 119.664C59.0779 119.672 59.1119 119.65 59.2371 119.63C59.354 119.612 59.5163 119.6 59.7311 119.6V118.4C59.4791 118.4 59.2497 118.413 59.05 118.445C58.8586 118.475 58.6509 118.528 58.4724 118.636L59.0898 119.664ZM59.7311 119.6C60.7455 119.6 61.6127 119.429 62.2298 118.988L61.5323 118.012C61.216 118.238 60.6499 118.4 59.7311 118.4V119.6ZM62.2517 118.972C62.8114 118.532 63.1869 117.98 63.3194 117.318L62.1427 117.082C62.0752 117.42 61.8841 117.735 61.5104 118.028L62.2517 118.972ZM63.3131 117.346C63.4601 116.758 63.5464 116.03 63.5806 115.174L62.3815 115.126C62.3491 115.937 62.2687 116.576 62.149 117.054L63.3131 117.346ZM63.5811 115.15V95.3H62.3811V115.15H63.5811ZM63.5806 95.276C63.5464 94.4218 63.4603 93.7059 63.3108 93.1454L62.1513 93.4546C62.2685 93.8941 62.349 94.5115 62.3815 95.324L63.5806 95.276ZM63.3208 93.1894C63.1905 92.4945 62.8146 91.9295 62.2298 91.5118L61.5323 92.4882C61.8808 92.7372 62.0716 93.0388 62.1413 93.4106L63.3208 93.1894ZM62.2517 91.5282C61.631 91.0405 60.754 90.85 59.7311 90.85V92.05C60.6414 92.05 61.1977 92.2262 61.5104 92.4718L62.2517 91.5282ZM59.7311 90.85H59.4311V92.05H59.7311V90.85ZM59.4311 90.85C59.2914 90.85 59.1945 90.8393 59.1318 90.8258C59.066 90.8117 59.065 90.8005 59.0911 90.82L58.3711 91.78C58.6704 92.0045 59.0765 92.05 59.4311 92.05V90.85ZM59.1553 90.8757C59.1949 90.9153 59.1767 90.9224 59.1467 90.8144C59.1196 90.7169 59.0946 90.5685 59.0795 90.3572L57.8826 90.4427C57.9008 90.6982 57.9342 90.9331 57.9904 91.1356C58.0438 91.3276 58.1339 91.5513 58.3068 91.7243L59.1553 90.8757ZM59.0811 90.4C59.0811 90.189 59.1273 90.0623 59.1803 89.9828L58.1818 89.3172C57.9682 89.6377 57.8811 90.011 57.8811 90.4H59.0811ZM59.1693 89.9987C59.2173 89.9315 59.2642 89.9 59.3811 89.9V88.7C58.8979 88.7 58.4781 88.9018 58.1928 89.3013L59.1693 89.9987ZM59.3534 89.8994C61.5273 89.9997 63.5034 90.05 65.2811 90.05V88.85C63.5254 88.85 61.5681 88.8003 59.4087 88.7006L59.3534 89.8994ZM65.2811 90.05C67.291 90.05 69.3836 89.9998 71.5587 89.8994L71.5034 88.7006C69.3452 88.8002 67.2711 88.85 65.2811 88.85V90.05ZM71.5311 89.9C71.6033 89.9 71.6304 89.9138 71.6341 89.9158C71.6366 89.9171 71.6385 89.9184 71.6412 89.9211C71.6441 89.9241 71.651 89.9317 71.6601 89.9477L72.702 89.3523C72.4476 88.9071 72.0161 88.7 71.5311 88.7V89.9ZM71.7201 90.0341C71.7835 90.1101 71.8311 90.2178 71.8311 90.4H73.0311C73.0311 89.9822 72.912 89.5899 72.642 89.2659L71.7201 90.0341ZM71.8324 90.3601C71.8174 90.5851 71.7891 90.7284 71.7618 90.8103C71.7306 90.904 71.7262 90.8432 71.8224 90.7855L72.4398 91.8145C72.7026 91.6568 72.8315 91.396 72.9003 91.1897C72.973 90.9716 73.0114 90.7149 73.0297 90.4399L71.8324 90.3601ZM71.8224 90.7855C71.8342 90.7784 71.8002 90.8001 71.675 90.8198C71.5581 90.8383 71.3958 90.85 71.1811 90.85V92.05C71.433 92.05 71.6624 92.0367 71.8621 92.0052C72.0535 91.9749 72.2612 91.9216 72.4398 91.8145L71.8224 90.7855ZM71.1811 90.85C70.1581 90.85 69.2811 91.0405 68.6604 91.5282L69.4017 92.4718C69.7144 92.2262 70.2707 92.05 71.1811 92.05V90.85ZM68.6823 91.5118C68.1051 91.9241 67.7185 92.4764 67.549 93.1545L68.7131 93.4455C68.8103 93.0569 69.0237 92.7426 69.3798 92.4882L68.6823 91.5118ZM67.5427 93.1823C67.4339 93.7264 67.3654 94.4283 67.3315 95.276L68.5306 95.324C68.5633 94.505 68.6282 93.8736 68.7194 93.4177L67.5427 93.1823ZM67.3311 95.3V104.15H68.5311V95.3H67.3311ZM67.9311 104.75H83.6311V103.55H67.9311V104.75ZM84.2311 104.15V95.3H83.0311V104.15H84.2311ZM84.2306 95.276C84.1964 94.4218 84.1103 93.7059 83.9608 93.1454L82.8013 93.4546C82.9185 93.8941 82.999 94.5115 83.0315 95.324L84.2306 95.276ZM83.9708 93.1894C83.8405 92.4945 83.4646 91.9295 82.8798 91.5118L82.1823 92.4882C82.5308 92.7372 82.7216 93.0388 82.7913 93.4106L83.9708 93.1894ZM82.9017 91.5282C82.281 91.0405 81.404 90.85 80.3811 90.85V92.05C81.2914 92.05 81.8477 92.2262 82.1604 92.4718L82.9017 91.5282ZM80.3811 90.85H80.0811V92.05H80.3811V90.85ZM80.0811 90.85C79.7881 90.85 79.6682 90.8026 79.6398 90.7855L79.0224 91.8145C79.3272 91.9974 79.7073 92.05 80.0811 92.05V90.85ZM79.7553 90.8757C79.7949 90.9153 79.7767 90.9224 79.7467 90.8144C79.7196 90.7169 79.6946 90.5685 79.6795 90.3572L78.4826 90.4427C78.5008 90.6982 78.5342 90.9331 78.5904 91.1356C78.6438 91.3276 78.7339 91.5513 78.9068 91.7243L79.7553 90.8757ZM79.6811 90.4C79.6811 90.2178 79.7286 90.1101 79.792 90.0341L78.8701 89.2659C78.6001 89.5899 78.4811 89.9822 78.4811 90.4H79.6811ZM79.8193 89.9987C79.8833 89.9092 79.9247 89.9 79.9811 89.9V88.7C79.5041 88.7 79.1122 88.9242 78.8428 89.3013L79.8193 89.9987ZM79.9534 89.8994C82.1285 89.9998 84.2211 90.05 86.2311 90.05V88.85C84.241 88.85 82.1669 88.8002 80.0087 88.7006L79.9534 89.8994ZM86.2311 90.05C88.0751 90.05 90.0679 89.9997 92.2092 89.8993L92.153 88.7007C90.0275 88.8003 88.0536 88.85 86.2311 88.85V90.05ZM92.1811 89.9C92.2533 89.9 92.2804 89.9138 92.2841 89.9158C92.2866 89.9171 92.2885 89.9184 92.2912 89.9211C92.2941 89.9241 92.301 89.9317 92.3101 89.9477L93.352 89.3523C93.0976 88.9071 92.6661 88.7 92.1811 88.7V89.9ZM92.3701 90.0341C92.4335 90.1101 92.4811 90.2178 92.4811 90.4H93.6811C93.6811 89.9822 93.562 89.5899 93.292 89.2659L92.3701 90.0341ZM92.4824 90.3601C92.4678 90.5791 92.4369 90.7118 92.4094 90.7825C92.3815 90.8541 92.3811 90.8041 92.4627 90.7633L92.9994 91.8367C93.281 91.6959 93.4389 91.4459 93.5278 91.2175C93.6169 90.9882 93.661 90.7209 93.6797 90.4399L92.4824 90.3601ZM92.4224 90.7855C92.4295 90.7812 92.3954 90.8018 92.2824 90.8207C92.1755 90.8385 92.0273 90.85 91.8311 90.85V92.05C92.2696 92.05 92.7194 92.0067 93.0398 91.8145L92.4224 90.7855ZM91.8311 90.85C90.8034 90.85 89.9223 91.0424 89.2762 91.5162L89.9859 92.4838C90.3398 92.2243 90.9254 92.05 91.8311 92.05V90.85ZM89.2823 91.5118C88.7051 91.9241 88.3185 92.4764 88.149 93.1545L89.3131 93.4455C89.4103 93.0569 89.6237 92.7426 89.9798 92.4882L89.2823 91.5118ZM88.1427 93.1823C88.0339 93.7264 87.9654 94.4283 87.9315 95.276L89.1306 95.324C89.1633 94.505 89.2282 93.8736 89.3194 93.4177L88.1427 93.1823ZM87.9311 95.3V115.15H89.1311V95.3H87.9311ZM87.9315 115.174C87.9655 116.023 88.0339 116.738 88.1413 117.311L89.3208 117.089C89.2282 116.596 89.1633 115.944 89.1306 115.126L87.9315 115.174ZM88.1513 117.355C88.3229 117.998 88.7072 118.537 89.2604 118.972L90.0017 118.028C89.6216 117.73 89.4059 117.402 89.3108 117.045L88.1513 117.355ZM89.2982 118.999C89.9401 119.427 90.8117 119.6 91.8311 119.6V118.4C90.9171 118.4 90.322 118.24 89.9639 118.001L89.2982 118.999ZM91.8311 119.6H92.1311V118.4H91.8311V119.6ZM92.1311 119.6C92.2393 119.6 92.306 119.612 92.3421 119.623C92.3757 119.634 92.372 119.639 92.3568 119.624L93.2053 118.776C92.9084 118.479 92.4995 118.4 92.1311 118.4V119.6ZM92.4724 119.714C92.3859 119.663 92.3876 119.609 92.4153 119.687C92.4404 119.758 92.4679 119.887 92.4826 120.093L93.6795 120.007C93.6609 119.747 93.6217 119.5 93.5469 119.288C93.4745 119.083 93.3429 118.837 93.0898 118.686L92.4724 119.714ZM92.4811 120.05C92.4811 120.231 92.4333 120.375 92.3428 120.501L93.3193 121.199C93.5621 120.859 93.6811 120.469 93.6811 120.05H92.4811ZM92.3318 120.517C92.3276 120.523 92.3252 120.525 92.325 120.526C92.3247 120.526 92.3228 120.528 92.3171 120.53C92.3052 120.536 92.2659 120.55 92.1811 120.55V121.75C92.6252 121.75 93.0576 121.592 93.3303 121.183L92.3318 120.517ZM92.2092 120.551C90.0678 120.45 88.0583 120.4 86.1811 120.4V121.6C88.0371 121.6 90.0277 121.65 92.153 121.749L92.2092 120.551ZM86.1811 120.4C84.2043 120.4 82.1283 120.45 79.9534 120.551L80.0087 121.749C82.1671 121.65 84.2245 121.6 86.1811 121.6V120.4ZM79.9811 120.55C79.8875 120.55 79.8415 120.525 79.792 120.466L78.8701 121.234C79.1539 121.575 79.5413 121.75 79.9811 121.75V120.55ZM79.8193 120.501C79.7288 120.375 79.6811 120.231 79.6811 120.05H78.4811C78.4811 120.469 78.6 120.859 78.8428 121.199L79.8193 120.501ZM79.6797 120.09C79.6947 119.865 79.723 119.722 79.7503 119.64C79.7815 119.546 79.7859 119.607 79.6898 119.664L79.0724 118.636C78.8095 118.793 78.6806 119.054 78.6118 119.26C78.5391 119.478 78.5007 119.735 78.4824 120.01L79.6797 120.09ZM79.6494 119.687C79.7159 119.653 79.9275 119.6 80.3811 119.6V118.4C79.9013 118.4 79.4462 118.447 79.1127 118.613L79.6494 119.687ZM80.3811 119.6C81.3956 119.6 82.2627 119.429 82.8798 118.988L82.1823 118.012C81.866 118.238 81.2999 118.4 80.3811 118.4V119.6ZM82.9017 118.972C83.4614 118.532 83.8369 117.98 83.9694 117.318L82.7927 117.082C82.7253 117.42 82.5341 117.735 82.1604 118.028L82.9017 118.972ZM83.9631 117.346C84.1101 116.758 84.1964 116.03 84.2306 115.174L83.0315 115.126C82.9991 115.937 82.9187 116.576 82.799 117.054L83.9631 117.346ZM84.2311 115.15V106.3H83.0311V115.15H84.2311ZM83.6311 105.7H67.9311V106.9H83.6311V105.7ZM67.3311 106.3V115.15H68.5311V106.3H67.3311ZM67.3315 115.174C67.3655 116.023 67.4339 116.738 67.5413 117.311L68.7208 117.089C68.6282 116.596 68.5633 115.944 68.5306 115.126L67.3315 115.174ZM67.5513 117.355C67.7229 117.998 68.1072 118.537 68.6604 118.972L69.4017 118.028C69.0216 117.73 68.8059 117.402 68.7108 117.045L67.5513 117.355ZM68.6823 118.988C69.2994 119.429 70.1666 119.6 71.1811 119.6V118.4C70.2622 118.4 69.6961 118.238 69.3798 118.012L68.6823 118.988ZM71.1811 119.6H71.4811V118.4H71.1811V119.6ZM71.4811 119.6C71.6112 119.6 71.6939 119.613 71.7412 119.627C71.7873 119.64 71.78 119.647 71.7568 119.624L72.6053 118.776C72.2992 118.47 71.861 118.4 71.4811 118.4V119.6ZM71.8211 119.68C71.7705 119.642 71.7506 119.607 71.7493 119.605C71.7478 119.602 71.7559 119.616 71.7679 119.657C71.7926 119.741 71.8174 119.881 71.8326 120.093L73.0295 120.007C73.0114 119.753 72.9779 119.518 72.9192 119.318C72.866 119.137 72.7647 118.888 72.5411 118.72L71.8211 119.68ZM71.8311 120.05C71.8311 120.231 71.7833 120.375 71.6928 120.501L72.6693 121.199C72.9121 120.859 73.0311 120.469 73.0311 120.05H71.8311ZM71.6818 120.517C71.6776 120.523 71.6752 120.525 71.675 120.526C71.6747 120.526 71.6728 120.528 71.6671 120.53C71.6552 120.536 71.6159 120.55 71.5311 120.55V121.75C71.9752 121.75 72.4076 121.592 72.6803 121.183L71.6818 120.517ZM71.5592 120.551C69.4171 120.45 67.341 120.4 65.3311 120.4V121.6C67.3211 121.6 69.3784 121.65 71.503 121.749L71.5592 120.551ZM65.3311 120.4C63.5202 120.4 61.5275 120.45 59.3534 120.551L59.4087 121.749C61.568 121.65 63.5419 121.6 65.3311 121.6V120.4ZM148.947 120.75L148.398 120.993L148.413 121.027L148.432 121.059L148.947 120.75ZM137.697 95.3L138.245 95.0574L138.087 94.7H137.697V95.3ZM137.547 95.3V94.7H136.944L136.947 95.303L137.547 95.3ZM137.647 115.15L137.047 115.153L137.047 115.163L137.047 115.172L137.647 115.15ZM137.847 117.25L137.258 117.368L137.26 117.376L137.847 117.25ZM138.647 118.5L138.259 118.958L138.278 118.974L138.298 118.988L138.647 118.5ZM141.797 119.2L141.372 119.624L141.425 119.676L141.488 119.714L141.797 119.2ZM142.097 120.05H142.697V120.029L142.695 120.007L142.097 120.05ZM141.847 120.85L141.358 120.501L141.353 120.509L141.347 120.517L141.847 120.85ZM141.197 121.15L141.173 121.75L141.185 121.75H141.197V121.15ZM139.947 121.1L139.921 121.699L139.923 121.7L139.947 121.1ZM131.697 121.15V121.75H131.711L131.724 121.749L131.697 121.15ZM130.997 120.85L130.476 121.148L130.502 121.194L130.536 121.234L130.997 120.85ZM130.797 120.05L130.198 120.01L130.197 120.03V120.05H130.797ZM131.097 119.15L131.405 119.664L131.097 119.15ZM134.147 118.5L134.513 118.976L134.517 118.972L134.147 118.5ZM134.997 117.25L135.583 117.376L135.585 117.368L134.997 117.25ZM135.197 115.15L135.796 115.172L135.797 115.163L135.797 115.153L135.197 115.15ZM135.297 95.3L135.897 95.303V95.3H135.297ZM134.947 93L134.397 93.2405L134.4 93.2471L134.403 93.2537L134.947 93ZM133.897 91.9L133.612 92.4283L133.636 92.441L133.66 92.4515L133.897 91.9ZM131.947 91.3L131.801 91.8821L131.817 91.8861L131.833 91.8892L131.947 91.3ZM131.347 91.2L131.201 91.7821L131.236 91.7909L131.272 91.7954L131.347 91.2ZM130.797 90.9L130.24 91.1228L130.269 91.1965L130.317 91.26L130.797 90.9ZM130.997 89.35L130.699 88.8291L130.681 88.8393L130.664 88.8508L130.997 89.35ZM136.897 89.55L136.773 90.1371L136.781 90.1387L136.788 90.1401L136.897 89.55ZM140.197 91.05L139.816 91.5137L139.824 91.5201L140.197 91.05ZM142.597 94.45L142.044 94.6834L142.049 94.6942L142.597 94.45ZM151.197 113.75L150.649 113.994L150.807 114.35H151.197V113.75ZM151.347 113.75V114.35H151.751L151.903 113.975L151.347 113.75ZM161.197 89.45V88.85H160.792L160.641 89.2246L161.197 89.45ZM169.997 89.3V88.7H169.983L169.969 88.7007L169.997 89.3ZM170.647 89.65L170.126 89.9477L170.152 89.9935L170.186 90.0341L170.647 89.65ZM170.897 90.4L171.495 90.4399L171.497 90.42V90.4H170.897ZM170.547 91.3L170.278 90.7633L170.258 90.7736L170.238 90.7855L170.547 91.3ZM167.497 92L167.845 92.4882L167.857 92.4803L167.867 92.4718L167.497 92ZM166.597 93.3L166.015 93.1545L166.011 93.1683L166.008 93.1823L166.597 93.3ZM166.397 95.3L165.797 95.276L165.797 95.288V95.3H166.397ZM166.397 115.15H165.797V115.162L165.797 115.174L166.397 115.15ZM166.597 117.2L166.007 117.311L166.011 117.333L166.017 117.355L166.597 117.2ZM167.497 118.5L167.126 118.972L167.137 118.98L167.148 118.988L167.497 118.5ZM170.597 119.2L170.172 119.624L170.225 119.676L170.288 119.714L170.597 119.2ZM170.897 120.05H171.497V120.029L171.495 120.007L170.897 120.05ZM170.647 120.85L170.158 120.501L170.153 120.509L170.147 120.517L170.647 120.85ZM169.997 121.15L169.969 121.749L169.983 121.75H169.997V121.15ZM157.847 121.15V121.75H157.861L157.874 121.749L157.847 121.15ZM157.147 120.85L156.626 121.148L156.652 121.194L156.686 121.234L157.147 120.85ZM156.947 120.05L156.348 120.01L156.347 120.03V120.05H156.947ZM157.247 119.15L157.555 119.664L157.247 119.15ZM160.347 118.5L160.695 118.988L160.707 118.98L160.717 118.972L160.347 118.5ZM161.197 117.2L160.615 117.054L160.611 117.068L160.608 117.082L161.197 117.2ZM161.447 115.15L162.046 115.174L162.047 115.162V115.15H161.447ZM161.447 95.3H162.047V94.7H161.447V95.3ZM161.297 95.3V94.7H160.892L160.741 95.0749L161.297 95.3ZM150.997 120.75L150.441 120.525L150.44 120.527L150.997 120.75ZM149.997 120.65C149.638 120.65 149.521 120.542 149.461 120.441L148.432 121.059C148.772 121.625 149.355 121.85 149.997 121.85V120.65ZM149.495 120.507L138.245 95.0574L137.148 95.5426L148.398 120.993L149.495 120.507ZM137.697 94.7H137.547V95.9H137.697V94.7ZM136.947 95.303L137.047 115.153L138.247 115.147L138.147 95.297L136.947 95.303ZM137.047 115.172C137.081 116.084 137.149 116.821 137.258 117.368L138.435 117.132C138.344 116.679 138.279 116.016 138.246 115.128L137.047 115.172ZM137.26 117.376C137.393 117.995 137.744 118.522 138.259 118.958L139.034 118.042C138.682 117.744 138.501 117.438 138.433 117.124L137.26 117.376ZM138.298 118.988C138.915 119.429 139.782 119.6 140.797 119.6V118.4C139.878 118.4 139.312 118.238 138.995 118.012L138.298 118.988ZM140.797 119.6H141.097V118.4H140.797V119.6ZM141.097 119.6C141.227 119.6 141.31 119.613 141.357 119.627C141.403 119.64 141.396 119.647 141.372 119.624L142.221 118.776C141.915 118.47 141.477 118.4 141.097 118.4V119.6ZM141.488 119.714C141.402 119.663 141.403 119.609 141.431 119.687C141.456 119.758 141.483 119.887 141.498 120.093L142.695 120.007C142.677 119.747 142.637 119.5 142.562 119.288C142.49 119.083 142.359 118.837 142.105 118.686L141.488 119.714ZM141.497 120.05C141.497 120.231 141.449 120.375 141.358 120.501L142.335 121.199C142.578 120.859 142.697 120.469 142.697 120.05H141.497ZM141.347 120.517C141.343 120.523 141.341 120.525 141.341 120.526C141.34 120.526 141.338 120.528 141.333 120.53C141.321 120.536 141.282 120.55 141.197 120.55V121.75C141.641 121.75 142.073 121.592 142.346 121.183L141.347 120.517ZM141.221 120.55L139.971 120.5L139.923 121.7L141.173 121.75L141.221 120.55ZM139.973 120.501C138.439 120.434 137.328 120.4 136.647 120.4V121.6C137.299 121.6 138.388 121.633 139.921 121.699L139.973 120.501ZM136.647 120.4C135.499 120.4 133.838 120.451 131.669 120.551L131.724 121.749C133.888 121.649 135.527 121.6 136.647 121.6V120.4ZM131.697 120.55C131.544 120.55 131.492 120.507 131.458 120.466L130.536 121.234C130.834 121.593 131.249 121.75 131.697 121.75V120.55ZM131.518 120.552C131.442 120.42 131.397 120.258 131.397 120.05H130.197C130.197 120.442 130.285 120.813 130.476 121.148L131.518 120.552ZM131.395 120.09C131.41 119.865 131.439 119.722 131.466 119.64C131.497 119.546 131.502 119.607 131.405 119.664L130.788 118.636C130.525 118.793 130.396 119.054 130.327 119.26C130.255 119.478 130.216 119.735 130.198 120.01L131.395 120.09ZM131.405 119.664C131.394 119.672 131.427 119.65 131.553 119.63C131.67 119.612 131.832 119.6 132.047 119.6V118.4C131.795 118.4 131.565 118.413 131.366 118.445C131.174 118.475 130.967 118.528 130.788 118.636L131.405 119.664ZM132.047 119.6C133.055 119.6 133.92 119.431 134.513 118.976L133.781 118.024C133.507 118.235 132.971 118.4 132.047 118.4V119.6ZM134.517 118.972C135.067 118.54 135.447 118.01 135.583 117.376L134.41 117.124C134.346 117.423 134.16 117.726 133.776 118.028L134.517 118.972ZM135.585 117.368C135.694 116.821 135.762 116.084 135.796 115.172L134.597 115.128C134.564 116.016 134.499 116.679 134.408 117.132L135.585 117.368ZM135.797 115.153L135.897 95.303L134.697 95.297L134.597 115.147L135.797 115.153ZM135.897 95.3C135.897 94.2425 135.781 93.3681 135.49 92.7463L134.403 93.2537C134.579 93.6319 134.697 94.2909 134.697 95.3H135.897ZM135.496 92.7595C135.212 92.1085 134.76 91.6174 134.133 91.3485L133.66 92.4515C133.966 92.5826 134.215 92.8249 134.397 93.2405L135.496 92.7595ZM134.181 91.3717C133.668 91.0952 132.947 90.8814 132.06 90.7108L131.833 91.8892C132.68 92.052 133.259 92.2381 133.612 92.4283L134.181 91.3717ZM132.092 90.7179C131.923 90.6755 131.694 90.6387 131.421 90.6046L131.272 91.7954C131.533 91.828 131.704 91.8578 131.801 91.8821L132.092 90.7179ZM131.492 90.6179C131.394 90.5933 131.332 90.5676 131.296 90.5483C131.262 90.5293 131.264 90.5229 131.277 90.54L130.317 91.26C130.538 91.5552 130.881 91.702 131.201 91.7821L131.492 90.6179ZM131.354 90.6772C131.33 90.6185 131.297 90.461 131.297 90.15H130.097C130.097 90.5056 130.13 90.8482 130.24 91.1228L131.354 90.6772ZM131.297 90.15C131.297 89.9951 131.317 89.9054 131.333 89.8607C131.348 89.8228 131.352 89.8339 131.329 89.8492L130.664 88.8508C130.209 89.1537 130.097 89.6843 130.097 90.15H131.297ZM131.294 89.8709C131.393 89.8148 131.617 89.75 132.047 89.75V88.55C131.543 88.55 131.067 88.6186 130.699 88.8291L131.294 89.8709ZM132.047 89.75C133.991 89.75 135.562 89.8822 136.773 90.1371L137.02 88.9629C135.698 88.6845 134.036 88.55 132.047 88.55V89.75ZM136.788 90.1401C137.962 90.3563 138.966 90.8158 139.816 91.5136L140.578 90.5864C139.56 89.7509 138.365 89.2104 137.005 88.9599L136.788 90.1401ZM139.824 91.5201C140.69 92.2074 141.438 93.2475 142.044 94.6834L143.149 94.2166C142.489 92.6525 141.636 91.426 140.57 90.5799L139.824 91.5201ZM142.049 94.6942L150.649 113.994L151.745 113.506L143.145 94.2058L142.049 94.6942ZM151.197 114.35H151.347V113.15H151.197V114.35ZM151.903 113.975L161.753 89.6754L160.641 89.2246L150.791 113.525L151.903 113.975ZM161.197 90.05H164.047V88.85H161.197V90.05ZM164.047 90.05C165.891 90.05 167.884 89.9997 170.025 89.8993L169.969 88.7007C167.843 88.8003 165.869 88.85 164.047 88.85V90.05ZM169.997 89.9C170.069 89.9 170.096 89.9138 170.1 89.9158C170.102 89.9171 170.104 89.9184 170.107 89.9211C170.11 89.9241 170.117 89.9317 170.126 89.9477L171.168 89.3523C170.913 88.9071 170.482 88.7 169.997 88.7V89.9ZM170.186 90.0341C170.249 90.1101 170.297 90.2178 170.297 90.4H171.497C171.497 89.9822 171.378 89.5899 171.108 89.2659L170.186 90.0341ZM170.298 90.3601C170.283 90.5791 170.252 90.7118 170.225 90.7825C170.197 90.8541 170.197 90.8041 170.278 90.7633L170.815 91.8367C171.097 91.6959 171.255 91.4459 171.343 91.2175C171.433 90.9882 171.477 90.7209 171.495 90.4399L170.298 90.3601ZM170.238 90.7855C170.245 90.7812 170.211 90.8018 170.098 90.8207C169.991 90.8385 169.843 90.85 169.647 90.85V92.05C170.085 92.05 170.535 92.0067 170.855 91.8145L170.238 90.7855ZM169.647 90.85C168.624 90.85 167.747 91.0405 167.126 91.5282L167.867 92.4718C168.18 92.2262 168.736 92.05 169.647 92.05V90.85ZM167.148 91.5118C166.571 91.9241 166.184 92.4764 166.015 93.1545L167.179 93.4455C167.276 93.0569 167.489 92.7426 167.845 92.4882L167.148 91.5118ZM166.008 93.1823C165.9 93.7264 165.831 94.4283 165.797 95.276L166.996 95.324C167.029 94.505 167.094 93.8736 167.185 93.4177L166.008 93.1823ZM165.797 95.3V115.15H166.997V95.3H165.797ZM165.797 115.174C165.831 116.023 165.9 116.738 166.007 117.311L167.186 117.089C167.094 116.596 167.029 115.944 166.996 115.126L165.797 115.174ZM166.017 117.355C166.189 117.998 166.573 118.537 167.126 118.972L167.867 118.028C167.487 117.73 167.271 117.402 167.176 117.045L166.017 117.355ZM167.148 118.988C167.765 119.429 168.632 119.6 169.647 119.6V118.4C168.728 118.4 168.162 118.238 167.845 118.012L167.148 118.988ZM169.647 119.6H169.947V118.4H169.647V119.6ZM169.947 119.6C170.055 119.6 170.122 119.612 170.158 119.623C170.191 119.634 170.188 119.639 170.172 119.624L171.021 118.776C170.724 118.479 170.315 118.4 169.947 118.4V119.6ZM170.288 119.714C170.202 119.663 170.203 119.609 170.231 119.687C170.256 119.758 170.283 119.887 170.298 120.093L171.495 120.007C171.477 119.747 171.437 119.5 171.362 119.288C171.29 119.083 171.159 118.837 170.905 118.686L170.288 119.714ZM170.297 120.05C170.297 120.231 170.249 120.375 170.158 120.501L171.135 121.199C171.378 120.859 171.497 120.469 171.497 120.05H170.297ZM170.147 120.517C170.143 120.523 170.141 120.525 170.141 120.526C170.14 120.526 170.138 120.528 170.133 120.53C170.121 120.536 170.082 120.55 169.997 120.55V121.75C170.441 121.75 170.873 121.592 171.146 121.183L170.147 120.517ZM170.025 120.551C167.883 120.45 165.874 120.4 163.997 120.4V121.6C165.853 121.6 167.843 121.65 169.969 121.749L170.025 120.551ZM163.997 120.4C162.053 120.4 159.994 120.45 157.819 120.551L157.874 121.749C160.033 121.65 162.074 121.6 163.997 121.6V120.4ZM157.847 120.55C157.694 120.55 157.642 120.507 157.608 120.466L156.686 121.234C156.984 121.593 157.399 121.75 157.847 121.75V120.55ZM157.668 120.552C157.592 120.42 157.547 120.258 157.547 120.05H156.347C156.347 120.442 156.435 120.813 156.626 121.148L157.668 120.552ZM157.545 120.09C157.56 119.865 157.589 119.722 157.616 119.64C157.647 119.546 157.652 119.607 157.555 119.664L156.938 118.636C156.675 118.793 156.546 119.054 156.477 119.26C156.405 119.478 156.366 119.735 156.348 120.01L157.545 120.09ZM157.555 119.664C157.544 119.672 157.577 119.65 157.703 119.63C157.82 119.612 157.982 119.6 158.197 119.6V118.4C157.945 118.4 157.715 118.413 157.516 118.445C157.324 118.475 157.117 118.528 156.938 118.636L157.555 119.664ZM158.197 119.6C159.211 119.6 160.078 119.429 160.695 118.988L159.998 118.012C159.682 118.238 159.116 118.4 158.197 118.4V119.6ZM160.717 118.972C161.277 118.532 161.652 117.98 161.785 117.318L160.608 117.082C160.541 117.42 160.35 117.735 159.976 118.028L160.717 118.972ZM161.779 117.346C161.926 116.758 162.012 116.03 162.046 115.174L160.847 115.126C160.815 115.937 160.734 116.576 160.615 117.054L161.779 117.346ZM162.047 115.15V95.3H160.847V115.15H162.047ZM161.447 94.7H161.297V95.9H161.447V94.7ZM160.741 95.0749L150.441 120.525L151.553 120.975L161.853 95.5251L160.741 95.0749ZM150.44 120.527C150.43 120.552 150.419 120.568 150.378 120.588C150.323 120.616 150.208 120.65 149.997 120.65V121.85C150.636 121.85 151.287 121.64 151.554 120.973L150.44 120.527ZM176.03 121.15V121.75H176.044L176.058 121.749L176.03 121.15ZM175.38 120.85L174.859 121.148L174.886 121.194L174.919 121.234L175.38 120.85ZM175.18 120.05L174.582 120.01L174.58 120.03V120.05H175.18ZM175.48 119.15L175.789 119.664L175.48 119.15ZM178.58 118.5L178.929 118.988L178.94 118.98L178.951 118.972L178.58 118.5ZM179.43 117.2L178.848 117.054L178.845 117.068L178.842 117.082L179.43 117.2ZM179.68 115.15L180.28 115.174L180.28 115.162V115.15H179.68ZM179.68 95.3H180.28V95.288L180.28 95.276L179.68 95.3ZM179.43 93.3L178.841 93.4106L178.845 93.4328L178.851 93.4546L179.43 93.3ZM178.58 92L178.21 92.4718L178.22 92.4803L178.232 92.4882L178.58 92ZM175.43 91.3L175.006 91.7243L175.036 91.7544L175.07 91.78L175.43 91.3ZM175.18 90.4H174.58V90.4214L174.582 90.4427L175.18 90.4ZM175.38 89.65L174.892 89.3013L174.886 89.3091L174.881 89.3172L175.38 89.65ZM176.03 89.3L176.058 88.7006L176.044 88.7H176.03V89.3ZM198.98 90.65H198.38L198.38 90.6629L198.98 90.65ZM199.13 97.65H199.73L199.73 97.6371L199.13 97.65ZM198.68 98.4L198.972 98.9245L198.993 98.9127L199.013 98.8992L198.68 98.4ZM196.73 98.45L196.439 98.9745L196.462 98.9874L196.487 98.9983L196.73 98.45ZM196.23 97.75L196.827 97.6837L196.825 97.6685L196.822 97.6533L196.23 97.75ZM195.33 94.05L194.763 94.2463L194.768 94.2597L194.773 94.2728L195.33 94.05ZM193.93 92.15L193.579 92.6364L193.594 92.6473L193.61 92.6573L193.93 92.15ZM191.33 91.45L191.348 90.8503L191.339 90.85H191.33V91.45ZM184.63 91.45V90.85H184.03V91.45H184.63ZM184.63 104.15H184.03V104.75H184.63V104.15ZM193.68 104.15L193.765 103.556L193.723 103.55H193.68V104.15ZM194.23 104.55L193.709 104.848L193.72 104.866L193.731 104.883L194.23 104.55ZM184.63 106.3V105.7H184.03V106.3H184.63ZM184.63 115.75H184.03V115.779L184.033 115.807L184.63 115.75ZM184.88 117.45L184.296 117.585L184.298 117.596L184.88 117.45ZM185.78 118.55L186.113 118.051L185.78 118.55ZM188.13 119V118.4H188.121L188.112 118.4L188.13 119ZM192.73 119V119.6H192.739L192.747 119.6L192.73 119ZM195.38 118.45L195.672 118.974L195.683 118.968L195.693 118.962L195.38 118.45ZM196.78 116.8L196.244 116.532L196.239 116.542L196.234 116.552L196.78 116.8ZM198.08 113.2L197.521 112.983L197.512 113.005L197.506 113.028L198.08 113.2ZM199.78 112.5L199.898 111.912L199.883 111.909L199.868 111.906L199.78 112.5ZM200.63 112.9L200.24 113.356L200.255 113.368L200.27 113.38L200.63 112.9ZM200.98 113.65L201.573 113.744L201.575 113.73L201.577 113.716L200.98 113.65ZM199.98 119.95L200.565 120.085L200.57 120.065L200.573 120.044L199.98 119.95ZM176.03 120.55C175.937 120.55 175.891 120.525 175.841 120.466L174.919 121.234C175.203 121.575 175.591 121.75 176.03 121.75V120.55ZM175.901 120.552C175.826 120.42 175.78 120.258 175.78 120.05H174.58C174.58 120.442 174.668 120.813 174.859 121.148L175.901 120.552ZM175.779 120.09C175.794 119.865 175.822 119.722 175.849 119.64C175.881 119.546 175.885 119.607 175.789 119.664L175.172 118.636C174.909 118.793 174.78 119.054 174.711 119.26C174.638 119.478 174.6 119.735 174.582 120.01L175.779 120.09ZM175.789 119.664C175.777 119.672 175.811 119.65 175.936 119.63C176.053 119.612 176.216 119.6 176.43 119.6V118.4C176.178 118.4 175.949 118.413 175.749 118.445C175.558 118.475 175.35 118.528 175.172 118.636L175.789 119.664ZM176.43 119.6C177.445 119.6 178.312 119.429 178.929 118.988L178.232 118.012C177.915 118.238 177.349 118.4 176.43 118.4V119.6ZM178.951 118.972C179.511 118.532 179.886 117.98 180.019 117.318L178.842 117.082C178.774 117.42 178.583 117.735 178.21 118.028L178.951 118.972ZM180.012 117.346C180.159 116.758 180.246 116.03 180.28 115.174L179.081 115.126C179.048 115.937 178.968 116.576 178.848 117.054L180.012 117.346ZM180.28 115.15V95.3H179.08V115.15H180.28ZM180.28 95.276C180.246 94.4218 180.159 93.7059 180.01 93.1454L178.851 93.4546C178.968 93.8941 179.048 94.5115 179.081 95.324L180.28 95.276ZM180.02 93.1894C179.89 92.4945 179.514 91.9295 178.929 91.5118L178.232 92.4882C178.58 92.7372 178.771 93.0388 178.841 93.4106L180.02 93.1894ZM178.951 91.5282C178.33 91.0405 177.453 90.85 176.43 90.85V92.05C177.341 92.05 177.897 92.2262 178.21 92.4718L178.951 91.5282ZM176.43 90.85H176.13V92.05H176.43V90.85ZM176.13 90.85C175.991 90.85 175.894 90.8393 175.831 90.8258C175.765 90.8117 175.764 90.8005 175.79 90.82L175.07 91.78C175.37 92.0045 175.776 92.05 176.13 92.05V90.85ZM175.855 90.8757C175.894 90.9153 175.876 90.9224 175.846 90.8144C175.819 90.7169 175.794 90.5685 175.779 90.3572L174.582 90.4427C174.6 90.6982 174.633 90.9331 174.69 91.1356C174.743 91.3276 174.833 91.5513 175.006 91.7243L175.855 90.8757ZM175.78 90.4C175.78 90.189 175.827 90.0623 175.88 89.9828L174.881 89.3172C174.667 89.6377 174.58 90.011 174.58 90.4H175.78ZM175.869 89.9987C175.932 89.9092 175.974 89.9 176.03 89.9V88.7C175.553 88.7 175.161 88.9242 174.892 89.3013L175.869 89.9987ZM176.003 89.8994C178.21 89.9997 180.203 90.05 181.98 90.05V88.85C180.225 88.85 178.251 88.8003 176.058 88.7006L176.003 89.8994ZM181.98 90.05H197.68V88.85H181.98V90.05ZM197.68 90.05C198.033 90.05 198.185 90.1323 198.248 90.1909C198.303 90.2411 198.38 90.3554 198.38 90.65H199.58C199.58 90.1446 199.441 89.6589 199.062 89.3091C198.692 88.9677 198.195 88.85 197.68 88.85V90.05ZM198.38 90.6629L198.53 97.6629L199.73 97.6371L199.58 90.6371L198.38 90.6629ZM198.53 97.65C198.53 97.707 198.519 97.7863 198.347 97.9008L199.013 98.8992C199.441 98.6137 199.73 98.193 199.73 97.65H198.53ZM198.389 97.8755C198.165 97.9999 197.964 98.05 197.78 98.05V99.25C198.196 99.25 198.596 99.1335 198.972 98.9245L198.389 97.8755ZM197.78 98.05C197.446 98.05 197.182 97.9944 196.974 97.9017L196.487 98.9983C196.878 99.1723 197.314 99.25 197.78 99.25V98.05ZM197.022 97.9255C196.865 97.8383 196.835 97.762 196.827 97.6837L195.634 97.8163C195.692 98.338 195.996 98.7284 196.439 98.9745L197.022 97.9255ZM196.822 97.6533C196.554 96.0065 196.245 94.7219 195.887 93.8272L194.773 94.2728C195.082 95.0448 195.374 96.2269 195.638 97.8467L196.822 97.6533ZM195.897 93.8537C195.563 92.8881 195.023 92.1306 194.251 91.6427L193.61 92.6573C194.104 92.9694 194.498 93.4785 194.763 94.2463L195.897 93.8537ZM194.282 91.6636C193.545 91.1317 192.542 90.8854 191.348 90.8503L191.313 92.0497C192.385 92.0813 193.115 92.3016 193.579 92.6364L194.282 91.6636ZM191.33 90.85H184.63V92.05H191.33V90.85ZM184.03 91.45V104.15H185.23V91.45H184.03ZM184.63 104.75H193.68V103.55H184.63V104.75ZM193.595 104.744C193.618 104.747 193.653 104.75 193.709 104.848L194.751 104.252C194.541 103.884 194.209 103.619 193.765 103.556L193.595 104.744ZM193.731 104.883C193.784 104.962 193.83 105.089 193.83 105.3H195.03C195.03 104.911 194.943 104.538 194.73 104.217L193.731 104.883ZM193.83 105.3C193.83 105.462 193.792 105.576 193.731 105.667L194.73 106.333C194.936 106.024 195.03 105.672 195.03 105.3H193.83ZM193.731 105.667C193.72 105.684 193.712 105.692 193.708 105.696C193.705 105.699 193.704 105.699 193.705 105.698C193.707 105.697 193.708 105.697 193.706 105.698C193.704 105.698 193.696 105.7 193.68 105.7V106.9C194.121 106.9 194.489 106.694 194.73 106.333L193.731 105.667ZM193.68 105.7H184.63V106.9H193.68V105.7ZM184.03 106.3V115.75H185.23V106.3H184.03ZM184.033 115.807C184.101 116.52 184.187 117.116 184.296 117.585L185.465 117.315C185.373 116.918 185.293 116.38 185.228 115.693L184.033 115.807ZM184.298 117.596C184.448 118.194 184.879 118.67 185.447 119.049L186.113 118.051C185.681 117.763 185.513 117.505 185.462 117.304L184.298 117.596ZM185.447 119.049C186.105 119.488 187.043 119.634 188.149 119.6L188.112 118.4C187.084 118.432 186.456 118.279 186.113 118.051L185.447 119.049ZM188.13 119.6H192.73V118.4H188.13V119.6ZM192.747 119.6C193.951 119.565 194.948 119.377 195.672 118.974L195.089 117.926C194.613 118.19 193.842 118.368 192.713 118.4L192.747 119.6ZM195.693 118.962C196.41 118.524 196.951 117.874 197.326 117.048L196.234 116.552C195.943 117.192 195.551 117.643 195.067 117.938L195.693 118.962ZM197.317 117.068C197.708 116.286 198.154 115.044 198.655 113.372L197.506 113.028C197.007 114.689 196.586 115.847 196.244 116.532L197.317 117.068ZM198.639 113.417C198.7 113.262 198.786 113.181 198.909 113.13C199.055 113.07 199.301 113.036 199.692 113.094L199.868 111.906C199.36 111.831 198.872 111.847 198.452 112.02C198.008 112.203 197.694 112.538 197.521 112.983L198.639 113.417ZM199.663 113.088C199.906 113.137 200.093 113.229 200.24 113.356L201.021 112.444C200.701 112.171 200.321 111.996 199.898 111.912L199.663 113.088ZM200.27 113.38C200.388 113.469 200.391 113.52 200.384 113.584L201.577 113.716C201.636 113.18 201.405 112.731 200.99 112.42L200.27 113.38ZM200.388 113.556L199.388 119.856L200.573 120.044L201.573 113.744L200.388 113.556ZM199.396 119.815C199.353 119.999 199.306 120.125 199.262 120.207C199.219 120.289 199.191 120.305 199.197 120.301L199.863 121.299C200.262 121.033 200.457 120.554 200.565 120.085L199.396 119.815ZM199.197 120.301C199.152 120.331 198.972 120.4 198.53 120.4V121.6C199.022 121.6 199.508 121.536 199.863 121.299L199.197 120.301ZM198.53 120.4H182.03V121.6H198.53V120.4ZM182.03 120.4C180.219 120.4 178.21 120.45 176.003 120.551L176.058 121.749C178.25 121.65 180.241 121.6 182.03 121.6V120.4Z" fill="white"/>
<circle cx="112.5" cy="104.5" r="17.15" stroke="white" stroke-width="2.7"/>
<path d="M121.65 104.5C121.65 109.419 120.516 113.805 118.751 116.915C116.963 120.065 114.701 121.65 112.5 121.65C110.299 121.65 108.037 120.065 106.249 116.915C104.484 113.805 103.35 109.419 103.35 104.5C103.35 99.5813 104.484 95.1947 106.249 92.0849C108.037 88.9352 110.299 87.35 112.5 87.35C114.701 87.35 116.963 88.9352 118.751 92.0849C120.516 95.1947 121.65 99.5813 121.65 104.5Z" stroke="white" stroke-width="2.7"/>
<rect x="98" y="93.7" width="29" height="2" fill="white"/>
<rect x="98" y="113.2" width="29" height="2" fill="white"/>
<rect x="96" y="103.5" width="33" height="2" fill="white"/>
<rect x="111.5" y="122" width="35" height="2" transform="rotate(-90 111.5 122)" fill="white"/>
<path d="M11 67.5H0L105 0L210 67.5H199L104.5 6.5L11 67.5Z" fill="white"/>
</svg>
