<svg width="40" height="40" viewBox="0 0 40 40" fill="none" xmlns="http://www.w3.org/2000/svg">
<path d="M16.9838 0.300907C10.5326 1.47691 5.34144 5.20651 2.40144 10.7841C0.519842 14.3457 -0.252958 18.1761 0.167042 21.9057C0.284642 22.9473 0.486242 24.1737 0.603842 24.6441C2.48544 31.9017 8.11344 37.5465 15.2198 39.3441C17.3534 39.8817 21.2174 39.9993 23.4854 39.5961C25.2158 39.2937 27.4502 38.5713 28.7606 37.9161C33.3302 35.5977 37.2278 31.1625 38.8238 26.4417C40.1343 22.5105 40.2015 17.8737 38.9582 13.9761C37.2278 8.54971 32.675 3.64411 27.4334 1.56091C24.8126 0.51931 23.7206 0.317707 20.4278 0.267307C18.7646 0.250507 17.219 0.267307 16.9838 0.300907ZM24.0398 2.92171C26.375 3.47611 27.719 4.06411 29.7014 5.37451C32.6246 7.28971 35.279 10.5825 36.4214 13.7073C37.5975 16.9161 37.8494 20.8305 37.0934 23.9721C36.3038 27.2649 34.9431 29.7681 32.6414 32.1537C29.0966 35.8329 25.0478 37.5465 19.9238 37.5297C17.5046 37.5297 16.3622 37.3449 14.2286 36.6225C8.38224 34.6233 3.94704 29.4993 2.68704 23.3001C2.41824 22.0065 2.41824 18.0417 2.68704 16.7481C4.24944 9.03691 10.5158 3.27451 18.0758 2.55211C19.9742 2.38411 22.3598 2.53531 24.0398 2.92171Z" fill="black"/>
<path d="M17.908 4.92089C15.7576 5.37449 15.2872 5.50888 14.212 5.94568C7.71043 8.60008 3.67843 15.8409 4.95523 22.5609C5.49283 25.3497 6.46723 27.4329 8.21443 29.6001C11.44 33.5649 16.6984 35.7657 21.4864 35.1609C23.6368 34.8921 25.1656 34.4217 26.896 33.5313C30.508 31.6665 33.3472 28.2897 34.54 24.4257C36.4888 18.0753 34.0864 11.2881 28.492 7.44088C27.2992 6.61768 25.2832 5.64328 24.208 5.37449C21.7552 4.76968 19.3696 4.60168 17.908 4.92089ZM23.7544 7.67608C26.1064 8.43209 27.736 9.45688 29.332 11.1369C30.928 12.8337 31.8856 14.5641 32.5744 17.0001C32.9104 18.2601 32.9104 21.8049 32.5576 23.0481C31.4488 27.0465 29.164 29.8689 25.6024 31.6833C22.3936 33.2961 17.6224 33.2961 14.4136 31.6833C11.8432 30.3729 9.92803 28.5081 8.41603 25.8201C7.37443 23.9721 6.83683 20.4777 7.22323 18.0417C8.09683 12.4641 12.3304 8.24728 18.16 7.18888C18.3952 7.13848 19.4536 7.13848 20.512 7.17208C22.0072 7.22248 22.7464 7.34008 23.7544 7.67608Z" fill="black"/>
<path d="M14.7159 11.876C11.8431 13.9592 9.37352 15.7736 9.22232 15.908C8.97032 16.1096 8.91992 16.4624 8.91992 18.0584C8.91992 19.3184 8.98712 20.024 9.12152 20.1584C9.23912 20.276 9.79352 20.36 10.4487 20.36H11.5911L11.6415 24.392C11.6919 27.9872 11.7255 28.4408 11.9943 28.7096C12.2631 28.9952 12.8679 29.012 20.1927 29.0624L28.0719 29.1128L28.4919 28.6928L28.9119 28.2728V24.308V20.36H30.0711C31.6335 20.36 31.7679 20.1752 31.7679 18.008C31.7679 16.9664 31.6839 16.2944 31.5663 16.1264C31.1295 15.5552 20.6295 8.09599 20.2767 8.09599C20.0583 8.09599 17.7399 9.67519 14.7159 11.876ZM25.0479 13.6064L29.8359 17.084L29.8863 17.7896L29.9367 18.512H29.0631C28.1895 18.512 28.1559 18.4952 24.6279 15.8408C21.0999 13.2032 20.5287 12.8 20.1927 12.8C20.0919 12.8 18.3111 14.0768 16.2111 15.656C12.4815 18.4448 12.3639 18.512 11.5743 18.512H10.7511L10.8015 17.756L10.8519 16.9832L15.5559 13.556C18.1431 11.6744 20.2599 10.1288 20.2599 10.112C20.2599 10.112 22.4103 11.6744 25.0479 13.6064ZM23.7039 17.4704L26.9799 19.94L27.0303 23.5016L27.0639 27.08H25.5519H24.0399V24.1232C24.0399 22.4096 23.9727 21.0488 23.8719 20.8472C23.7039 20.5448 23.4855 20.528 20.3943 20.528C17.5551 20.528 17.0511 20.5616 16.7823 20.8136C16.5135 21.0488 16.4799 21.3848 16.4799 24.0896V27.08H15.0519H13.6239V23.5016V19.9232L16.8663 17.4704C18.6303 16.1264 20.1759 15.0176 20.2599 15.0176C20.3607 15.0008 21.9063 16.1096 23.7039 17.4704ZM22.1919 24.728V27.08H20.2599H18.3279V24.728V22.376H20.2599H22.1919V24.728Z" fill="black"/>
</svg>
